<svg id="account" xmlns="http://www.w3.org/2000/svg" viewBox="0 0 37.76 39.15" fill="currentColor"><path class="cls-1" d="M30.15,25.43a12.41,12.41,0,0,1-3.09,6,12.81,12.81,0,0,1-14.34,3.18A12.83,12.83,0,0,1,5.07,21.85c.4-4.79,4.49-10.15,10.16-11-.85.93-1.47,1.54-2,2.23-.87,1.08-.94,2-.29,2.74a2.2,2.2,0,0,0,2.79.3,11.86,11.86,0,0,0,1.81-1.45c1.68-1.5,3.3-3.06,5-4.5s1.74-2,0-3.42S19.42,4,17.83,2.59A14.07,14.07,0,0,0,15.48.69,2,2,0,0,0,12.9,1a1.79,1.79,0,0,0,0,2.38c.73,1,1.58,1.88,2.53,3-.84.29-1.53.58-2.25.78a16.43,16.43,0,0,0-1.68,31.18c10.92,4,21-3,22.41-12.94Z" transform="translate(-1.07 -0.37)"/><path class="cls-1" d="M38.36,10.52c-.5-.57-1-1.12-1.48-1.69h0a7,7,0,0,0,.48-1.55,1.64,1.64,0,0,0-1-1.6,1.74,1.74,0,0,0-1.87.11,4.85,4.85,0,0,0-.61.49l-13,11.5a7.43,7.43,0,0,0-.57.59c-.85-.29-1.55-.59-2.29-.76a6.41,6.41,0,0,0-7.57,4.72A6.5,6.5,0,0,0,15,30.14a6.22,6.22,0,0,0,6.53-1.89,6.23,6.23,0,0,0,1.23-6.63A.56.56,0,0,1,23,20.9Q26.32,18,29.64,15a2.21,2.21,0,0,1,.26-.14c.51.61,1,1.23,1.56,1.84s1,.7,1.74.1c.35-.3.7-.6,1-.92a1,1,0,0,0,.07-1.54c-.56-.65-1.14-1.27-1.73-1.91.51-.42,1-.8,1.48-1.25.52.6,1,1.23,1.6,1.85s1,.66,1.69.09l.89-.78C39,11.66,39,11.27,38.36,10.52ZM16.66,26.68a2.77,2.77,0,1,1,2.92-2.61A2.78,2.78,0,0,1,16.66,26.68ZM36.87,8.83s0-.06,0,0Z" transform="translate(-1.07 -0.37)"/></svg>