<svg id="add-file" xmlns="http://www.w3.org/2000/svg" viewBox="0 0 34.13 38.52" fill="currentColor"><path class="cls-1" d="M29.08.69h-23A3.1,3.1,0,0,0,3,3.79V36.11a3.1,3.1,0,0,0,3.09,3.1H34a3.09,3.09,0,0,0,3.09-3.1v-27Zm-.45,2.53L35,9.89H28.63ZM34,37.14H6.09a1,1,0,0,1-1-1V3.79a1,1,0,0,1,1-1H26.56V12h8.5V36.11A1,1,0,0,1,34,37.14Z" transform="translate(-3 -0.69)"/><polygon class="cls-1" points="29.09 23.42 21.93 23.42 21.93 16.26 19 16.26 19 23.42 11.84 23.42 11.84 26.35 19 26.35 19 33.51 21.93 33.51 21.93 26.35 29.09 26.35 29.09 23.42"/></svg>