<svg id="add" xmlns="http://www.w3.org/2000/svg" viewBox="0 0 39.09 33.54" fill="currentColor"><path class="cls-1" d="M10,18.38C14.37,20.59,16,20,20,18.32a29.2,29.2,0,0,1,2.68,2c3.61,3.31,5.85,8.15,6.89,14.27.19,1.1-.21,1.82-1,1.82H1.46c-.84,0-1.19-.62-1-1.81q1.86-11.49,9.14-16Z" transform="translate(-0.41 -2.92)"/><path class="cls-1" d="M31.42,22.59c-1.15,0-2.2,0-3.26,0a1.19,1.19,0,0,1-1.35-1.34c0-.29,0-.59,0-.88a1.16,1.16,0,0,1,1.25-1.23c1.09,0,2.18,0,3.35,0,0-.92,0-1.8,0-2.68-.05-1.31.09-2,1.92-1.92,1.19.05,1.55.36,1.55,1.56,0,.95,0,1.9,0,2.86a1.37,1.37,0,0,0,0,.18h.89c.81,0,1.63,0,2.44,0a1.16,1.16,0,0,1,1.22,1.16c0,.37,0,.73,0,1.1a1.15,1.15,0,0,1-1.23,1.19c-1.1,0-2.19,0-3.34,0,0,.21,0,.39,0,.57,0,.89,0,1.77,0,2.66s-.42,1.36-1.36,1.37h-.83a1.15,1.15,0,0,1-1.27-1.26c0-.9,0-1.8,0-2.7Z" transform="translate(-0.41 -2.92)"/><circle class="cls-1" cx="14.1" cy="7.67" r="7.67"/></svg>