<?xml version="1.0" encoding="UTF-8"?><svg id="AirInletFan" fill="currentColor" data-name="進風機" xmlns="http://www.w3.org/2000/svg" viewBox="0 0 232 206.99066"><defs><style>.cls-1{fill:#050505;}</style></defs><path class="cls-1" d="M232,0H105.32257V.02313c-.6084-.01056-1.21637-.02313-1.82727-.02313C46.33643,0,0,46.33643,0,103.49536s46.33643,103.4953,103.4953,103.4953,103.49536-46.33643,103.49536-103.4953c0-14.14203-2.84033-27.61957-7.97534-39.89874h32.98468V0Zm-6.07794,58.08044h-35.69354c7.12152,13.5744,11.15631,29.02234,11.15631,45.41486,0,54.06927-43.83173,97.901-97.90094,97.901S5.58289,157.56458,5.58289,103.4953,49.41467,5.59436,103.48389,5.59436c.18781,0,.37421,.00604,.56177,.00708v-.00708h121.8764V58.08044Z"/></svg>