<svg id="alert" xmlns="http://www.w3.org/2000/svg" viewBox="0 0 38.65 38.65" fill="currentColor"><path class="cls-1" d="M20.15,6.52a16.06,16.06,0,0,1,2.59.75,2.76,2.76,0,0,1,1.57,3.19q-1,6.65-2,13.3C22,25.27,21.38,26,20.18,26s-1.92-.69-2.15-2.19q-1-6.57-2-13.17C15.63,8.1,17.13,6.67,20.15,6.52Z" transform="translate(-0.67 -0.77)"/><path class="cls-1" d="M23.34,31.53a3.33,3.33,0,0,1-3.26,3.55,3.36,3.36,0,0,1-3.14-3.55,3.35,3.35,0,0,1,3.2-3.5A3.36,3.36,0,0,1,23.34,31.53Z" transform="translate(-0.67 -0.77)"/><path class="cls-1" d="M20,39.42A19.33,19.33,0,1,1,39.32,20.1,19.35,19.35,0,0,1,20,39.42ZM20,2.74A17.36,17.36,0,1,0,37.35,20.1,17.37,17.37,0,0,0,20,2.74Z" transform="translate(-0.67 -0.77)"/></svg>