<svg id="assign-permissions" xmlns="http://www.w3.org/2000/svg" viewBox="0 0 31.06 38.92" fill="currentColor"><path class="cls-1" d="M22.92,28.93l-1.05-7.55A6.07,6.07,0,0,0,23.44,21L26.3,28A14.08,14.08,0,0,1,22.92,28.93ZM29.76,26l-4.69-6a7.07,7.07,0,0,0,1.16-1.16l6,4.7A14.43,14.43,0,0,1,29.76,26ZM7.62,20.11a14.78,14.78,0,0,1-.91-3.39l7.55-1.06a7.23,7.23,0,0,0,.42,1.58Zm26.61,0-7.06-2.85a6.66,6.66,0,0,0,.42-1.59v0l7.54,1.06v.05A14.48,14.48,0,0,1,34.23,20.1ZM14.23,14l-3.34-.65-4.18-.59v0a14.2,14.2,0,0,1,.89-3.34l7.07,2.84a7,7,0,0,0-.42,1.57Zm13.36-.21a6.28,6.28,0,0,0-.43-1.58L34.22,9.3a14.58,14.58,0,0,1,.92,3.38Zm-12-3.18-6-4.69a14.43,14.43,0,0,1,2.47-2.47l4.7,6A7.07,7.07,0,0,0,15.61,10.58Zm10.61,0A6.37,6.37,0,0,0,25.06,9.4l4.68-6a14.43,14.43,0,0,1,2.47,2.47ZM18.4,8.48,15.52,1.42A14.86,14.86,0,0,1,18.9.5L20,8.05A6.6,6.6,0,0,0,18.4,8.48Zm5,0a7,7,0,0,0-1.57-.42l1-7.55h0a15.3,15.3,0,0,1,3.33.89Z" transform="translate(-4.09 -0.5)"/><rect class="cls-1" x="9.19" y="17.64" width="5.22" height="23.34" rx="2.6" ry="2.6" transform="translate(14.48 -2.06) rotate(34.29)"/></svg>