<svg id="authority" xmlns="http://www.w3.org/2000/svg" viewBox="0 0 37.13 38.2" fill="currentColor"><path class="cls-1" d="M33.28,27.56a14.89,14.89,0,0,1-15.93,7.09c-8.6-2-14.63-11.13-10.6-20.57a14,14,0,0,1,13-8.95c6-.24,10.83,2.32,13.7,7.75a6.49,6.49,0,0,0,.58.91h4.27A18.79,18.79,0,0,0,17.55,1.14a19.09,19.09,0,0,0,3.24,38C30.88,39,38.14,30.6,38.44,24.93l-3.81.13C34.13,26,33.73,26.79,33.28,27.56Z" transform="translate(-1.31 -0.91)"/><path class="cls-1" d="M20.27,7.73a12.51,12.51,0,0,0,.29,25A12.36,12.36,0,0,0,33,20.08,12.31,12.31,0,0,0,20.27,7.73Zm7.62,19c-.37-1.66-1.66-2.27-3-2.81A11.69,11.69,0,0,1,23,23a1.26,1.26,0,0,1-.41-1.91c.42-.68.65-1.34,1-2,0,0,.23,0,.25-.07a1.23,1.23,0,0,0,.34-.91,1.16,1.16,0,0,0-.37-.92c0-.11,0-.22-.05-.33a2.71,2.71,0,0,0,0-.41,3.47,3.47,0,1,0-6.94,0c0,.08,0,.16,0,.24s0,.3-.06.45a1.11,1.11,0,0,0-.43,1c0,.58.29,1,.64,1h0a.14.14,0,0,1,0,.06c.34.66.78,1.27,1.16,1.91a1.25,1.25,0,0,1-.51,2c-.79.42-1.63.74-2.44,1.12-1.05.5-2.1,1-2.23,2.56a9.78,9.78,0,0,1,.69-13.95,9.89,9.89,0,0,1,14.11.68A9.6,9.6,0,0,1,27.89,26.72Z" transform="translate(-1.31 -0.91)"/></svg>