<svg id="basic-info" xmlns="http://www.w3.org/2000/svg" viewBox="0 0 33.64 37.97" fill='currentColor'><path class="cls-1" d="M30.64,18.05H9.86a1,1,0,1,1,0-1.93H30.64a1,1,0,1,1,0,1.93Z" transform="translate(-3 -0.86)"/><path class="cls-1" d="M30.64,24.33H9.86a1,1,0,1,1,0-1.92H30.64a1,1,0,1,1,0,1.92Z" transform="translate(-3 -0.86)"/><path class="cls-1" d="M30.64,30.45H9.86a1,1,0,1,1,0-1.92H30.64a1,1,0,1,1,0,1.92Z" transform="translate(-3 -0.86)"/><path class="cls-1" d="M28.71.86H6.05A3.06,3.06,0,0,0,3,3.91V35.78a3.06,3.06,0,0,0,3.05,3H33.59a3.06,3.06,0,0,0,3-3V9.18Zm-.44,2.5,6.27,6.57H28.27Zm5.32,33.43H6.05a1,1,0,0,1-1-1V3.91a1,1,0,0,1,1-1H26.23V12H34.6V35.78A1,1,0,0,1,33.59,36.79Z" transform="translate(-3 -0.86)"/><path class="cls-1" d="M18.74,12.27H9.92a1,1,0,0,1,0-1.93h8.82a1,1,0,0,1,0,1.93Z" transform="translate(-3 -0.86)"/></svg>