<svg id="building" data-name="大樓" xmlns="http://www.w3.org/2000/svg" viewBox="0 0 38.04 38.7" fill="currentColor"><polygon class="cls-1" points="7.87 8.69 7.87 11.36 16.56 7.19 29.36 13.38 29.36 10.93 16.46 4.01 7.87 8.69"/><polygon class="cls-1" points="7.87 12.43 7.87 15.09 16.56 11.38 29.36 16.75 29.36 14.3 16.46 8.2 7.87 12.43"/><polygon class="cls-1" points="7.87 16.16 7.87 18.83 16.56 15.12 29.36 20.49 29.36 18.03 16.66 12.57 7.87 16.16"/><polygon class="cls-1" points="7.87 19.99 7.87 22.65 16.56 19.03 29.36 23.68 29.36 21.22 16.66 16.48 7.87 19.99"/><polygon class="cls-1" points="7.87 23.63 7.87 26.29 16.56 23.68 29.36 26.68 29.56 24.5 16.66 20.49 7.87 23.63"/><polygon class="cls-1" points="7.14 27.86 17.16 25.41 31.95 27.86 31.95 34.33 29.96 34.33 29.96 30.14 25.5 30.14 25.5 34.15 7.04 34.15 7.14 27.86"/><path class="cls-1" d="M35.12,39.38h-30a4.27,4.27,0,0,1-4-4.47V5.14a4.26,4.26,0,0,1,4-4.46h30a4.25,4.25,0,0,1,4,4.46V34.91A4.26,4.26,0,0,1,35.12,39.38ZM5.09,2.43A2.59,2.59,0,0,0,2.66,5.14V34.91a2.58,2.58,0,0,0,2.43,2.71h30a2.58,2.58,0,0,0,2.43-2.71V5.14a2.59,2.59,0,0,0-2.43-2.71Z" transform="translate(-1.09 -0.68)"/></svg>