<svg id="cellphone" xmlns="http://www.w3.org/2000/svg" viewBox="0 0 22.33 38.62" fill="currentColor"><path class="cls-1" d="M27.59.68H11.64A3.15,3.15,0,0,0,8.45,3.76V36.21a3.14,3.14,0,0,0,3.19,3.08h16a3.15,3.15,0,0,0,3.2-3.08V3.76A3.15,3.15,0,0,0,27.59.68ZM16.94,2.17a.36.36,0,0,1,.37-.35h5a.36.36,0,0,1,.37.35V3a.37.37,0,0,1-.37.36h-5A.37.37,0,0,1,16.94,3ZM19.81,37.7A1.69,1.69,0,1,1,21.5,36,1.69,1.69,0,0,1,19.81,37.7Zm9-6.81a2.48,2.48,0,0,1-2.51,2.43H12.78a2.48,2.48,0,0,1-2.51-2.43v-24a2.48,2.48,0,0,1,2.51-2.43H26.26a2.48,2.48,0,0,1,2.51,2.43Z" transform="translate(-8.45 -0.68)"/><path class="cls-1" d="M11.74,14.31a.7.7,0,0,1-.45-.17.68.68,0,0,1-.06-1,11.4,11.4,0,0,1,8.54-3.89,11.27,11.27,0,0,1,8.12,3.44.67.67,0,0,1,0,1,.68.68,0,0,1-1,0,9.91,9.91,0,0,0-7.15-3,10,10,0,0,0-7.52,3.43A.69.69,0,0,1,11.74,14.31Z" transform="translate(-8.45 -0.68)"/><path class="cls-1" d="M13.3,16.52a.63.63,0,0,1-.44-.17.68.68,0,0,1-.07-1,9.3,9.3,0,0,1,6.94-3.16,9.19,9.19,0,0,1,6.6,2.8.69.69,0,0,1,0,1,.7.7,0,0,1-1,0,7.8,7.8,0,0,0-5.62-2.39,7.89,7.89,0,0,0-5.91,2.7A.68.68,0,0,1,13.3,16.52Z" transform="translate(-8.45 -0.68)"/><path class="cls-1" d="M14.56,18.6a.7.7,0,0,1-.45-.17.68.68,0,0,1-.06-1,7.53,7.53,0,0,1,5.65-2.58,7.44,7.44,0,0,1,5.37,2.28.68.68,0,1,1-1,.95,6.1,6.1,0,0,0-4.4-1.87,6.18,6.18,0,0,0-4.63,2.11A.67.67,0,0,1,14.56,18.6Z" transform="translate(-8.45 -0.68)"/><circle class="cls-1" cx="11.13" cy="19.17" r="1.61"/></svg>