<svg id="class" data-name="圖層 1" xmlns="http://www.w3.org/2000/svg" viewBox="0 0 38.41 36.05" fill="currentColor"><path class="cls-1" d="M24.8,12.3c-.43,3.67-1.18,6.89-4.22,9a1.67,1.67,0,0,0-.64,2.24c.52,1.51.19,2.29-1.19,3a7.27,7.27,0,0,1-6.91-.06c-1.34-.68-1.75-1.45-1.28-2.83.41-1.22-.14-1.83-.9-2.61A11.74,11.74,0,0,1,6.36,9.47a9.35,9.35,0,0,1,9-7.17,9,9,0,0,1,8.79,6.84A8.21,8.21,0,0,1,24.8,12.3Z" transform="translate(-0.71 -1.93)"/><path class="cls-1" d="M21.63,3A8.36,8.36,0,0,1,34,9.35c.67,4.24-.57,7.4-4.14,10.85a1.65,1.65,0,0,0-.06.43c.22,1.2.74,2.46-.62,3.34s-1.91,1.29-1.91,1.29c-1.26-.44-4.7-1.61-5.83-2.13-.09-1,1.65-1.44,2.17-2.08,3.57-4.42,4.36-10.88.81-15.77A10.56,10.56,0,0,0,21.63,3Z" transform="translate(-0.71 -1.93)"/><path class="cls-1" d="M38.93,35.11h-7.2a30.9,30.9,0,0,0-.56-4.86c-.26-1.75-.54-3.16-2.5-4.23,1.74-1.23,2.75-1.49,3.34-3.24l4.4,1.93a3.87,3.87,0,0,1,2.33,2.94A24.14,24.14,0,0,1,38.93,35.11Z" transform="translate(-0.71 -1.93)"/><path class="cls-1" d="M29.45,30.07a3.28,3.28,0,0,0-1.9-2.76c-1.89-.88-3.82-1.68-5.72-2.51a6.73,6.73,0,0,1-4.64,3.47l-1.44,6L13.9,28.37a6.84,6.84,0,0,1-5.13-3.68c-1.86.83-3.58,1.59-5.3,2.37A3.76,3.76,0,0,0,1.3,29.65,23.64,23.64,0,0,0,.91,38c3.54,0,26.47-.19,29.09-.19C29.83,35.26,29.69,32.66,29.45,30.07Z" transform="translate(-0.71 -1.93)"/></svg>