<svg id="click" xmlns="http://www.w3.org/2000/svg" viewBox="0 0 33.41 38.53" fill="currentColor"><path class="cls-1" d="M18.5,33.14c-1.46-.8-2.9-1.56-4.32-2.37A10.72,10.72,0,0,1,10,27a14.91,14.91,0,0,1-1.49-4.64c-.08-.39-.12-.79-.21-1.17A4,4,0,0,1,9.75,17c.32-.28.31-.47.12-.81-2-3.69-4-7.37-5.89-11.08A4.31,4.31,0,0,1,3.56,3.2,2.39,2.39,0,0,1,5.42.87a2.46,2.46,0,0,1,2.83.94C9,3,9.72,4.26,10.43,5.5s1.22,2.22,1.79,3.27c.92-.5,1.7-1,2.51-1.36a1.58,1.58,0,0,1,.94-.19,1.22,1.22,0,0,0,1.21-.46,2.89,2.89,0,0,1,3.47-.48,5.85,5.85,0,0,1,.8.73c.5-.28,1-.58,1.47-.8a2.27,2.27,0,0,1,2.76.66,13,13,0,0,1,1.43,2,60.73,60.73,0,0,1,5.06,10.26,14.19,14.19,0,0,1,1,5.69c0,.14,0,.28,0,.46l.34-.11a1.05,1.05,0,0,1,1.43.44q1.13,2,2.18,4A1,1,0,0,1,36.34,31L23.62,38c-.67.38-1.35.75-2,1.12A1.08,1.08,0,0,1,20,38.63c-.64-1.15-1.26-2.29-1.89-3.44S17.58,33.84,18.5,33.14Zm.05-19.43-.29-.52c-.73-1.35-1.48-2.69-2.2-4-.2-.38-.45-.5-.83-.31a13.52,13.52,0,0,0-1.41.75c-.54.36-.57.64-.25,1.21l2,3.56c.09.16.18.31.27.49l-1.34.74L10.6,8.86Q8.89,5.9,7.2,3a1.09,1.09,0,0,0-1.39-.58,1,1,0,0,0-.72,1.25,3,3,0,0,0,.33,1c2,3.83,4.08,7.66,6.11,11.49.58,1.08.55,1.07-.44,1.82a2.69,2.69,0,0,0-1.28,3c.23.93.38,1.88.57,2.82A7.76,7.76,0,0,0,14.26,29c1.58.91,3.22,1.72,4.79,2.64a2.08,2.08,0,0,0,2.39,0c3.13-1.8,6.32-3.49,9.48-5.24.18-.1.41-.32.42-.49A16.55,16.55,0,0,0,30,18.44a66.31,66.31,0,0,0-4.62-9,10.53,10.53,0,0,0-1.2-1.55c-.41-.44-1-.35-1.53.05s-.24.72-.05,1.1l1,2.09-1.34.74-.21-.33c-.73-1.16-1.46-2.33-2.18-3.5a.9.9,0,0,0-1.06-.53,1.57,1.57,0,0,0-1.28.92.66.66,0,0,0,.12.47c.66,1.24,1.34,2.48,2,3.72.07.13.12.27.18.4Zm2.61,23.84,14.05-7.71-1.69-3.09L19.47,34.46Z" transform="translate(-3.56 -0.75)"/></svg>