<svg id="contact" xmlns="http://www.w3.org/2000/svg" viewBox="0 0 38.55 38.81" fill="currentColor"><path class="cls-1" d="M35.37,39.5H7.53a3.88,3.88,0,0,1-3.88-3.88v-7.5a1.49,1.49,0,0,1,3,0v7.5a.92.92,0,0,0,.91.91H35.37a.91.91,0,0,0,.91-.91V4.56a.91.91,0,0,0-.91-.9H7.53a.92.92,0,0,0-.91.9v5.49a1.49,1.49,0,0,1-3,0V4.56A3.88,3.88,0,0,1,7.53.69H35.37a3.88,3.88,0,0,1,3.88,3.87V35.62A3.88,3.88,0,0,1,35.37,39.5Z" transform="translate(-0.7 -0.69)"/><path class="cls-1" d="M8,15.33H2.18a1.49,1.49,0,0,1,0-3H8a1.49,1.49,0,0,1,0,3Z" transform="translate(-0.7 -0.69)"/><path class="cls-1" d="M8,20.25H2.18a1.48,1.48,0,0,1,0-3H8a1.48,1.48,0,0,1,0,3Z" transform="translate(-0.7 -0.69)"/><path class="cls-1" d="M8,25.17H2.18a1.48,1.48,0,0,1,0-3H8a1.48,1.48,0,0,1,0,3Z" transform="translate(-0.7 -0.69)"/><path class="cls-1" d="M18.53,21.79c-3.62-2.32-4.37-8.1-1.36-11.61a6.14,6.14,0,0,1,9.67,0c3,3.54,2.25,9.26-1.32,11.59.61.35,1.27.65,1.86,1.07a11.79,11.79,0,0,1,4.79,7.45c.13.58-.14,1-.67,1H12.61c-.58,0-.82-.32-.68-.94a11.31,11.31,0,0,1,6.36-8.38Z" transform="translate(-0.7 -0.69)"/></svg>