<svg id="create-maintenance-order" xmlns="http://www.w3.org/2000/svg" viewBox="0 0 37.5 34.76" fill="currentColor"><path class="cls-1" d="M38.83,22.81H36.59a17.45,17.45,0,0,1-6.7,11.31A15.73,15.73,0,0,1,21,37.4,16.43,16.43,0,0,1,6,29.28l1.26-.82a14.91,14.91,0,0,0,17.17,6.73A15.65,15.65,0,0,0,35,22.84h-2.2l3-5.49c.31.55.6,1.06.88,1.57l2,3.65.09.13Z" transform="translate(-1.33 -2.67)"/><path class="cls-1" d="M22.53,6.3c.18.89.37,1.76.53,2.63a.63.63,0,0,0,.45.53,14,14,0,0,1,1.59.7.45.45,0,0,0,.58-.05c.69-.52,1.39-1,2.12-1.56l3,3.24c-.49.76-.95,1.52-1.45,2.26a.57.57,0,0,0,0,.65,9.11,9.11,0,0,1,.56,1.42.59.59,0,0,0,.57.49l2.46.39v4.53c-.8.18-1.58.38-2.38.52a.76.76,0,0,0-.66.63,11.39,11.39,0,0,1-.56,1.47,11.26,11.26,0,0,1-4.25,4.48c-.51.23-1,.49-1.55.69a.51.51,0,0,0-.37.48c-.11.79-.24,1.57-.34,2.37,0,.25-.12.33-.35.33H18.72c-.22,0-.32-.06-.37-.31-.13-.76-.31-1.51-.46-2.26a.6.6,0,0,0-.43-.53,18.6,18.6,0,0,1-1.85-.78.45.45,0,0,0-.58,0l-2.12,1.57L9.89,27c.46-.72.91-1.44,1.38-2.14a.71.71,0,0,0,.07-.85,5.78,5.78,0,0,1-.51-1.29.65.65,0,0,0-.66-.55c-.79-.11-1.57-.25-2.38-.38V17.24c.81-.18,1.61-.37,2.42-.53a.67.67,0,0,0,.59-.53c.16-.53.41-1,.59-1.56a.69.69,0,0,0,0-.51c-.47-.77-1-1.51-1.47-2.31l3-3.25c.73.54,1.43,1.07,2.16,1.57a.62.62,0,0,0,.48.05c.64-.25,1.25-.55,1.89-.8a.49.49,0,0,0,.35-.44c.12-.87.26-1.75.4-2.63Zm-9.48,13A7.5,7.5,0,0,0,20.32,27a7.5,7.5,0,0,0,7.34-7.47,7.51,7.51,0,0,0-7.25-7.8A7.49,7.49,0,0,0,13.05,19.33Z" transform="translate(-1.33 -2.67)"/><path class="cls-1" d="M34.71,11.47l-1.37.8A15.28,15.28,0,0,0,24.76,5a14.2,14.2,0,0,0-8.86-.16A15.63,15.63,0,0,0,5.18,17.21H7.39l-3,5.49-3-5.44H3.61a17.5,17.5,0,0,1,6.3-11,15.32,15.32,0,0,1,8.51-3.51C25.53,2.15,30.86,5.25,34.71,11.47Z" transform="translate(-1.33 -2.67)"/><path class="cls-1" d="M19.16,14.32a5.05,5.05,0,0,1,5.23,1.42A4.93,4.93,0,0,1,25.51,21a.65.65,0,0,0,.19.8c1.56,1.49,3.52,3.46,5.11,4.92a1.78,1.78,0,0,1-2.46,2.57c-1.57-1.51-3.58-3.47-5.14-5a.55.55,0,0,0-.68-.13,5.17,5.17,0,0,1-7-5.82,1,1,0,0,1,.06-.2c.34.3.68.59,1,.91s.72.7,1.06,1.06a2.22,2.22,0,0,0,2.44.65A2.55,2.55,0,0,0,22,18.79a2.35,2.35,0,0,0-.7-2.37l-1.9-1.84A2.56,2.56,0,0,1,19.16,14.32Z" transform="translate(-1.33 -2.67)"/></svg>