<svg id="delete" xmlns="http://www.w3.org/2000/svg" viewBox="0 0 25.96 38.69" fill="currentColor"><path class="cls-1" d="M14.77,3.86c-.3-1.52-.26-1.59,1-2.45A4.75,4.75,0,0,1,20.06.82c.4.13.64.77,1,1.17l-.12.19c.31,0,.61-.06.91-.07l8.07-.25a.74.74,0,0,1,.82.67c.19.79.38,1.59.64,2.37s0,1-.7,1.24Q23.87,7.94,17.1,9.78L8.46,12.11c-1,.26-1.07.21-1.33-.76-.21-.76-.38-1.54-.62-2.29a.75.75,0,0,1,.41-1L14,4.2A7.59,7.59,0,0,1,14.77,3.86Z" transform="translate(-6.44 -0.56)"/><path class="cls-1" d="M31.29,13.28H8.7c-1.24,0-1.3,0-1.19,1.32.25,3.22.53,6.43.8,9.64q.57,6.95,1.15,13.9c0,.62.13,1.1,1,1.1q9.51,0,19,0c.72,0,1-.29,1-1q.93-11.89,1.89-23.78C32.46,13.35,32.39,13.28,31.29,13.28ZM14.56,36.65h-.12a1.16,1.16,0,0,1-1.15-1L11.47,17.45a1.16,1.16,0,0,1,2.3-.24L15.6,35.38A1.16,1.16,0,0,1,14.56,36.65Zm6.51-1a1.16,1.16,0,0,1-2.32,0V17.25a1.16,1.16,0,0,1,2.32,0Zm6.21,0a1.16,1.16,0,0,1-1.15,1H26a1.16,1.16,0,0,1-1-1.27L26.8,17.21a1.16,1.16,0,0,1,2.3.24Z" transform="translate(-6.44 -0.56)"/></svg>