<svg id="detail" data-name="維保細項" xmlns="http://www.w3.org/2000/svg" viewBox="0 0 36.67 38.81" fill="currentColor"><rect class="cls-1" x="9.48" y="12.99" width="13.74" height="0.97"/><rect class="cls-1" x="9.48" y="19.05" width="8.75" height="0.97"/><rect class="cls-1" x="9.48" y="25.11" width="9.11" height="0.97"/><rect class="cls-1" x="9.48" y="31.18" width="9.23" height="0.97"/><path class="cls-1" d="M37.85,26.7c-.31-.16-.63-.31-.89-.43,0-1.05,0-2,0-2.94a7.21,7.21,0,0,0,1-.52c.19-.14.45-.43.41-.58a5.38,5.38,0,0,0-.67-1.68c-.32-.45-.85-.21-1.3,0a.66.66,0,0,1-.88-.12c-.55-.61-1.15-1.19-1.73-1.77.5-1.62.48-1.78-.43-2.17-.38-.17-1-.41-1.22-.25a6,6,0,0,0-1.15,1.34l-2.77,0c-.9-1.59-1-1.66-2.18-1.11-.31.15-.76.41-.79.66a6.63,6.63,0,0,0,.24,1.63l-2,2c-1.56-.47-1.78-.44-2.18.49-.16.39-.38,1-.21,1.23a5,5,0,0,0,1.3,1.07c0,.7,0,1.42.06,2.14.06.53-.07.84-.58,1s-.86.35-.77.79a4.57,4.57,0,0,0,.73,1.76c.36.48.86,0,1.29-.13a3.09,3.09,0,0,1,.37-.1l2.12,2.08c-.48,1.63-.47,1.74.43,2.12.42.18,1,.48,1.31.31.44-.27.68-.88,1-1.35h2.91c.1.18.19.34.27.5.45.92.65,1,1.61.63l.6-.27A.81.81,0,0,0,34.12,32c-.1-.34-.22-.67-.3-.91l2-2.14a4.21,4.21,0,0,1,.42.12c1.24.44,1.32.4,1.84-.86,0-.13.11-.27.17-.4A.8.8,0,0,0,37.85,26.7Zm-6.23,2.9a5.2,5.2,0,1,1,2.74-6.83A5.2,5.2,0,0,1,31.62,29.6Z" transform="translate(-1.69 -0.54)"/><circle class="cls-1" cx="6.5" cy="13.2" r="1.51"/><circle class="cls-1" cx="6.5" cy="19.47" r="1.51"/><circle class="cls-1" cx="6.5" cy="25.49" r="1.51"/><circle class="cls-1" cx="6.5" cy="31.83" r="1.51"/><path class="cls-1" d="M29.93,14.6V4.13H22.75V.54h-13V4.13H1.69V39.35H29.93v-5.2H28v3.26H3.63V6.06H9.78V8.81h13V6.06H28V14.6Zm-8.6-7.09H11.21V1.83H21.33Z" transform="translate(-1.69 -0.54)"/></svg>