<?xml version="1.0" encoding="UTF-8"?><svg id="differentialDetector" fill="currentColor" data-name="差動探測器" xmlns="http://www.w3.org/2000/svg" viewBox="0 0 288.68746 248.62646"><path d="M144.36736,248.62646c-.021,0-.04199,0-.06348-.00098l-6.71387-.1416c-.04883-.00098-.09814-.00293-.14697-.00684l-6.6665-.46875c-50.9751-4.82129-95.94824-36.65918-117.44043-83.09375l-2.7041-6.21191c-.021-.04883-.04102-.09863-.05957-.14844l-2.34766-6.29102C1.22039,132.54443-1.34846,111.36426,.66521,90.45947c.00293-.16602,.01904-.3291,.04785-.4873,.28516-2.86035,.65625-5.71338,1.11377-8.55859C5.64617,57.65576,15.39617,35.08545,30.02214,16.14258l4.27002-5.26709c.02783-.03467,.05713-.06885,.08691-.10205l4.45996-5.02344c.03564-.04053,.07324-.08057,.11133-.11914L43.64519,.88916c.56348-.56885,1.33105-.88916,2.13184-.88916H242.91082c.80078,0,1.56836,.32031,2.13184,.88916l4.69434,4.7417c.03809,.03857,.0752,.07861,.11133,.11914l4.45996,5.02344c.03027,.0332,.05859,.06738,.08691,.10205l4.22559,5.21094c15.43164,20.0625,25.35742,43.80273,28.75293,68.71387,.23926,1.76221,.44727,3.52783,.62109,5.29541,.01074,.0791,.01855,.15918,.02344,.24023,2.24023,23.14014-1.16211,46.63721-9.93359,68.29541l-2.70508,6.2207c-.01855,.04297-.03906,.08496-.05957,.12793l-2.95801,6.00977c-22.75195,43.62305-65.49805,72.38965-114.37891,77.0127l-6.73926,.47461c-.04883,.00391-.09766,.00586-.14648,.00684l-6.6665,.1416c-.021,.00098-.04199,.00098-.06348,.00098Zm-6.57666-6.13965l6.57715,.13867,6.5293-.13867,6.59375-.46289c46.77539-4.42578,87.74414-31.99609,109.51953-73.74707l2.89551-5.88379,2.64746-6.08496c8.16016-20.15039,11.28418-41.68262,9.61426-62.79736H6.52166c-1.51855,19.05029,.85107,38.42822,7.34082,56.69971l2.30322,6.1709,2.64404,6.07617c20.5708,44.44141,63.67383,74.95605,112.45996,79.57227l6.521,.45703ZM7.12957,87.51074H281.56316c-2.97656-24.27832-12.31738-47.76953-27.65039-67.70557l-4.13574-5.09863-4.36035-4.91162-3.75781-3.79492H47.02849l-3.75684,3.79443-4.36133,4.91211-4.18359,5.15918C19.48943,39.60156,10.12566,63.16357,7.12957,87.51074Z"/></svg>