<svg id="doorplate" data-name="門牌" xmlns="http://www.w3.org/2000/svg" viewBox="0 0 38.83 33.38" fill="currentColor"><path class="cls-1" d="M.58,3.15V36.53H39.42V3.15ZM30.84,6.41H36v5.75H30.84Zm-7.69,0h5.19v5.75H23.15Zm14.12,28H2.73V15.71H37.27Z" transform="translate(-0.58 -3.15)"/><path class="cls-1" d="M6.28,22.29V20.67a12.66,12.66,0,0,0,1.8-.15,2.55,2.55,0,0,0,1.32-.63A2,2,0,0,0,9.94,19a1.74,1.74,0,0,0,.1-.49H12.3V30.64H9.53V22.29Z" transform="translate(-0.58 -3.15)"/><path class="cls-1" d="M16.05,22.29V20.67a12.66,12.66,0,0,0,1.8-.15,2.55,2.55,0,0,0,1.32-.63,2,2,0,0,0,.54-.87,1.74,1.74,0,0,0,.1-.49h2.26V30.64H19.3V22.29Z" transform="translate(-0.58 -3.15)"/><path class="cls-1" d="M25.82,22.29V20.67a12.66,12.66,0,0,0,1.8-.15,2.55,2.55,0,0,0,1.32-.63,2,2,0,0,0,.54-.87,1.74,1.74,0,0,0,.1-.49h2.26V30.64H29.07V22.29Z" transform="translate(-0.58 -3.15)"/></svg>