<svg id="download" data-name="下載" xmlns="http://www.w3.org/2000/svg" viewBox="0 0 35.63 38.01" fill="currentColor"><path class="cls-1" d="M3.93,38.77a2.47,2.47,0,0,1-1.45-1A2.93,2.93,0,0,1,2,36.55C2,33.37,2,30.19,2,27a.92.92,0,0,1,0-.09H6.74V34H32.88V26.91h4.75v9.27a2.35,2.35,0,0,1-1.83,2.53s-.06,0-.09.06Z" transform="translate(-2 -0.76)"/><path class="cls-1" d="M16.25,17.39V2.14A1.21,1.21,0,0,1,17.64.76h4.45a1.17,1.17,0,0,1,1.29,1.29V17.39h.41c1.38,0,2.77,0,4.16,0a1.25,1.25,0,0,1,1.25.68,1.23,1.23,0,0,1-.28,1.43q-3.77,4.31-7.52,8.6l-.54.61a1.22,1.22,0,0,1-2.07,0c-1.12-1.26-2.22-2.53-3.33-3.79l-4.54-5.2a4.71,4.71,0,0,1-.36-.42,1.19,1.19,0,0,1,1-1.91h4.72Z" transform="translate(-2 -0.76)"/></svg>