<svg id="edit" data-name="編輯" xmlns="http://www.w3.org/2000/svg" viewBox="0 0 38.92 36.4" fill="currentColor"><path class="cls-1" d="M18.69,38.09a18,18,0,1,1,7-34.63,1.33,1.33,0,1,1-1,2.44,15.37,15.37,0,1,0,9.22,11.82,1.32,1.32,0,0,1,2.62-.39,19.21,19.21,0,0,1,.2,2.74A18,18,0,0,1,18.69,38.09Z" transform="translate(-0.67 -1.69)"/><path class="cls-1" d="M39.51,8.22l-3,2.86L30.69,4.41A33.3,33.3,0,0,1,33.41,2a1.52,1.52,0,0,1,2,.25C36.73,3.63,38,5.1,39.21,6.56a3.26,3.26,0,0,1,.37.69Z" transform="translate(-0.67 -1.69)"/><path class="cls-1" d="M18.79,25.81l-5.85-6.65,15.54-13,5.8,6.66C29.18,17.11,24,21.46,18.79,25.81Z" transform="translate(-0.67 -1.69)"/><path class="cls-1" d="M10.88,21l5.8,6.62L8.49,28.79Z" transform="translate(-0.67 -1.69)"/></svg>