<svg id="emergency-call" xmlns="http://www.w3.org/2000/svg" viewBox="0 0 291 291.76919"><path d="M49.00133,130.98478c-3.43844,14.576,15.54771,49.03512,28.32973,67.64753a68.7686,68.7686,0,0,0,19.43465,19.73363,24.29329,24.29329,0,0,0,23.47107-1.56971,122.28894,122.28894,0,0,1,15.9962-9.56783c11.2123-5.90515,19.58415-4.11117,26.23678,6.20413,7.47486,11.586,14.94973,23.32159,21.30336,35.28136s4.26067,17.79018-6.20413,25.04078c-6.87688,4.78391-13.978,9.34358-21.30337,13.45475a35.65512,35.65512,0,0,1-25.71354,3.58793,97.17331,97.17331,0,0,1-40.81275-21.52761,246.67048,246.67048,0,0,1-88.35289-151.665A90.44583,90.44583,0,0,1,2.50767,80.679,32.51561,32.51561,0,0,1,18.72812,57.80587c6.57789-3.58794,12.782-7.92336,19.3599-11.586,12.10928-6.65262,19.88314-4.70916,27.059,6.57789q9.49308,14.94972,18.61241,30.64694c8.67084,14.94973,7.02637,22.42459-7.47486,30.79644C70.00569,118.427,57.97116,117.15629,49.00133,130.98478Z"/><path d="M280.34837,193.2504h-1.34548a8.29712,8.29712,0,0,1-6.87686-9.49309A143.96588,143.96588,0,0,0,245.73977,74.4,145.5356,145.5356,0,0,0,141.09167,16.3951,8.29709,8.29709,0,0,1,133.61681,7.5,8.37185,8.37185,0,0,1,142.58665.02515a160.8591,160.8591,0,0,1,147.92261,172.83q-.54786,7.05513-1.71426,14.04166A8.29711,8.29711,0,0,1,280.34837,193.2504Z"/><path d="M240.20836,194.82012h-1.27072a8.29709,8.29709,0,0,1-6.87687-9.49308A113.54315,113.54315,0,0,0,211.2059,99.06711a114.73916,114.73916,0,0,0-82.672-45.74617,8.2971,8.2971,0,0,1,.74585-16.57742q.33824.01521.67438.058a130.36167,130.36167,0,0,1,119.79894,140.1304q-.42974,5.49381-1.32235,10.93661A8.37186,8.37186,0,0,1,240.20836,194.82012Z"/><path d="M204.85224,198.70706h-1.34548a8.37185,8.37185,0,0,1-6.87688-9.49308,89.02562,89.02562,0,0,0-16.2952-67.72228,90.22161,90.22161,0,0,0-64.95656-35.72984,8.2971,8.2971,0,0,1,1.34548-16.51945,106.741,106.741,0,0,1,76.91634,42.233,105.32079,105.32079,0,0,1,19.43465,80.2053A8.22234,8.22234,0,0,1,204.85224,198.70706Z"/></svg>