<?xml version="1.0" encoding="UTF-8"?><svg id="emergencyGenerator" fill="currentColor" data-name="緊急發電機" xmlns="http://www.w3.org/2000/svg" viewBox="0 0 296.13086 139.83594"><path d="M290.13086,139.83594H6c-3.31348,0-6-2.68652-6-6V6C0,2.68652,2.68652,0,6,0H290.13086c3.31348,0,6,2.68652,6,6v127.83594c0,3.31348-2.68652,6-6,6ZM12,127.83594H284.13086V12h-119.6416l4.26758,2.14209c.57324,.28809,1.09668,.66602,1.5498,1.11963l10.10742,10.10742c.45605,.45605,.83594,.98242,1.12402,1.55957l5.05371,10.10791c1.48242,2.96387,.28125,6.56787-2.68262,8.0498-2.96387,1.48242-6.56836,.28027-8.0498-2.68359l-4.61816-9.23682-8.73438-8.73389-7.93066-3.98145h-17.37646l-7.97021,3.98486-8.73047,8.73047-4.42773,8.85547-4.61084,13.83301v23.31836l4.60986,13.79297,4.42871,8.85742,8.73048,8.73145,7.97021,3.98438h17.37646l7.93066-3.98145,8.7334-8.73438,3.98535-7.96973v-7.7041h-19.22754c-3.31348,0-6-2.68652-6-6s2.68652-6,6-6h25.22754c3.31348,0,6,2.68652,6,6v15.12012c0,.93164-.2168,1.85059-.63379,2.68359l-5.05371,10.10742c-.28809,.57617-.66699,1.10254-1.12305,1.55859l-10.10742,10.1084c-.4541,.4541-.97754,.83203-1.55078,1.12012l-10.06641,5.05371c-.83594,.41895-1.75781,.6377-2.69238,.6377h-20.21484c-.93164,0-1.8501-.2168-2.68311-.63379l-10.10791-5.05371c-.57715-.28809-1.10352-.66797-1.55957-1.12402l-10.10742-10.1084c-.45605-.45605-.83545-.98242-1.12402-1.55859l-5.05371-10.10742c-.12598-.25293-.23438-.51367-.32373-.78125l-5.05371-15.12012c-.20508-.61328-.30957-1.25586-.30957-1.90234v-25.26855c0-.64502,.104-1.28564,.30811-1.89746l5.05371-15.16113c.08936-.26904,.19824-.53174,.3252-.78564l5.05371-10.10791c.28857-.57715,.66797-1.10352,1.12402-1.55957l10.10742-10.10742c.45605-.45605,.98242-.83545,1.55957-1.12402l4.27539-2.1377H12V127.83594Z"/></svg>