<svg id="emergency-operations" xmlns="http://www.w3.org/2000/svg" viewBox="0 0 291 291"><path d="M144.661,32.706c1.30143-4.69206,2.67941-9.3072,4.0574-13.99926,21.43529,5.46125,32.3826,17.69137,34.21991,36.075a1011.67988,1011.67988,0,0,0-125.93237,0c.38279-17.22986,10.33489-29.15231,33.14817-36.84421,1.68421,4.8459,3.445,9.61488,6.27748,17.92213,5.97126,3.846-5.81815-33.76744,21.28219-35.76734,24.49749-1.846,18.909,24.46025,24.19126,36.998C143.283,37.09036,143.51266,36.16734,144.661,32.706Z"/><path d="M193.96216,72.70386a78.7193,78.7193,0,0,0-11.02387-3.23059,273.26764,273.26764,0,0,0-136.65,3.23059c-25.56925,7.69191-30.62185,23.53722-12.555,43.22848,5.05261,5.53817,10.7942,10.53791,15.31093,16.38375,12.86117,16.38375,24.03815,34.229,38.27731,49.30508a45.37669,45.37669,0,0,0,34.75581,15.3838c17.91379,0,25.64581-7.6919,32.61228-21.07581,12.24874-23.53721,34.14337-40.92091,51.59781-61.07369S219.3783,81.93414,193.96216,72.70386Zm-24.19126,65.1504a262.09618,262.09618,0,0,0-16.842,25.53711c-19.67454,34.69047-45.93278,31.99831-63.69345,5.692C81.58,158.2378,73.9245,146.623,65.42694,136.31588a33.78434,33.78434,0,0,1-5.81815-14.99921L78.135,131.93148a120.25287,120.25287,0,0,0,0-22.61419c-3.06218-13.92234,4.21051-19.22975,16.22958-19.922,15.77025-.7692,31.61706,0,47.38732-.53843,13.77983,0,17.91378,7.07655,16.38269,19.61434a205.73029,205.73029,0,0,0,0,23.0757l19.29177-9.99945A29.67371,29.67371,0,0,1,169.7709,137.85426Z"/><path d="M239.4356,290.92309a74.15057,74.15057,0,0,1-9.56933-6.30735c-9.49277-8.8457-13.70328-8.92261-22.96638,0a14.80305,14.80305,0,0,1-20.36353,2.3845c-2.83253-1.69223-5.7416-3.30752-8.72723-4.92281a12.24932,12.24932,0,0,1-6.5837-14.61463c2.756-13.38392-1.5311-19.922-14.39226-21.9219a10.88843,10.88843,0,0,1-9.33966-8.30725,51.61448,51.61448,0,0,1,.689-31.383,13.71225,13.71225,0,0,1,9.18656-7.07655,15.86,15.86,0,0,0,14.23917-20.69121c-1.76076-9.23029,0-12.61471,7.65546-16.92219,3.90429-2.07681,7.65546-3.99979,11.71286-6.38428a11.062,11.062,0,0,1,14.54538,1.38455c1.378,1.15378,2.83253,2.23066,4.287,3.2306,7.65547,5.46124,11.25353,5.23049,18.29656-.99994,8.65066-7.6919,11.7894-7.6919,21.81807-2.07682l7.65546,4.30746a12.63375,12.63375,0,0,1,7.11958,16.153c-2.3732,12.15321,2.37321,18.46056,14.39228,20.84506a12.642,12.642,0,0,1,8.65068,6.84579,50.8401,50.8401,0,0,1,1.83733,29.84458,11.34973,11.34973,0,0,1-10.488,9.461,15.39632,15.39632,0,0,0-14.08611,20.30658c1.83732,9.76872.84211,12.307-7.65546,16.99909C251.60779,284.4619,245.63654,287.61557,239.4356,290.92309Zm-77.32016-60.45835c18.22,5.92276,27.71277,18.6144,24.65058,33.69051-.91866,4.769,0,6.615,3.90429,8.23034a45.872,45.872,0,0,1,5.7416,3.23058c13.39706-11.07633,25.72236-15.99914,43.32992,0l10.41143-5.76893s.76554-.69227.689-1.07686c0-3.07677-.84211-6.15351-.99522-9.30719a21.557,21.557,0,0,1,.61245-5.38434,29.38176,29.38176,0,0,1,24.6506-23.61413v-7.07655c0-6.76886-.91865-12.1532-9.49279-14.99921a27.71409,27.71409,0,0,1-16.68891-30.07533A8.41164,8.41164,0,0,0,246.938,171.314c-3.67462-2.15373-7.043-7.30731-12.63151-2.30756a21.97105,21.97105,0,0,1-26.48791,4.07671c-3.5215-1.923-6.7368-4.30746-10.41143-6.692l-11.55975,6.53812c3.67462,17.15294-2.5263,31.69062-16.38269,36.075a9.5337,9.5337,0,0,0-7.74184,11.01984q.038.22154.08638.44109C162.11544,223.77279,162.11544,226.92647,162.11544,230.46474Z"/><path d="M218.99553,252.77125h0a30.5538,30.5538,0,0,1-21.665-9.461,31.64352,31.64352,0,0,1,.38277-44.38227,29.62622,29.62622,0,0,1,21.20563-8.30725,30.70138,30.70138,0,0,1,30.05982,31.32213q-.01168.64623-.0504,1.29153a29.84953,29.84953,0,0,1-29.62663,29.5369Zm0-7.69191a22.25165,22.25165,0,0,0,22.35394-22.07574A23.04316,23.04316,0,0,0,220.377,198.08506q-.99475-.08358-1.9939-.08014a21.99031,21.99031,0,0,0-15.77025,6.15352,24.00257,24.00257,0,0,0,0,33.76744,22.91575,22.91575,0,0,0,16.30613,7.15346Z"/><path d="M169.7709,282.53892a23.14157,23.14157,0,0,1-4.97605-13.46082s2.83253-10.38406.61244-14.46079-11.25352-2.53834-16.61235-7.23037-8.72723-7.23039-8.72723-24.84484,4.66984-21.99884,4.66984-21.99884c-20.89941,11.46093-42.87059,7.6919-68.89917-12.307-15.31092,9.99946-31.99983,17.99905-45.47344,30.7676A106.78549,106.78549,0,0,0,2.80527,259.694c-7.65546,21.07582.76555,31.22912,20.287,31.306H183.857A22.3355,22.3355,0,0,1,169.7709,282.53892Z"/></svg>