<?xml version="1.0" encoding="UTF-8"?><svg id="emergencyBroadcastHost" fill="currentColor" data-name="緊急廣播主機" xmlns="http://www.w3.org/2000/svg" viewBox="0 0 285.89534 173.92322"><path d="M2.99983,173.92322c-.20459,0-.40674-.02148-.60352-.06152-.43359-.08887-.8335-.27148-1.17725-.52539-.35352-.26074-.65234-.60059-.86621-1.00293-.15918-.29785-.26953-.62598-.32031-.97363-.02539-.16992-.03564-.33984-.03174-.50684V3.04138c-.00098-.0791,.00098-.15869,.00635-.23877,.03418-.5249,.20361-1.01318,.47314-1.42969l.00049-.00098,.00342-.00488c.12939-.19971,.28174-.38232,.45312-.54443h.00049l.00488-.00537C1.46809,.32214,2.17219,.01404,2.94807,.00085h.00781c.00537-.00146,.00635-.00049,.00879-.00049H282.89534c1.65723,0,3,1.34326,3,3V170.92224c0,1.65723-1.34277,3-3,3H3.06868c-.02295,.00098-.0459,.00098-.06885,.00098Zm20.43896-6.00098H279.89534V90.97595L23.43879,167.92224ZM6.00081,7.0321V166.89001L272.45393,86.94373,6.00081,7.0321Zm17.44629-1.03174L279.89534,82.9115V6.00037H23.44709Z"/></svg>