<svg id="equipment-device-status" data-name="設備處理狀況" xmlns="http://www.w3.org/2000/svg" viewBox="0 0 37.85 38.66" currentColor="fill"><rect class="cls-1" x="32.72" y="17.85" width="5.03" height="1.13"/><path class="cls-1" d="M33.51,22.08h5.17c.06-.56.17-1.46.17-1.46H33.59V21S33.55,21.73,33.51,22.08Z" transform="translate(-1 -0.59)"/><path class="cls-1" d="M32.91,24.86h5.31c.1-.49.16-.65.2-.84.07-.35.12-.71.17-1.07H33.37C33.27,23.49,33.14,24,32.91,24.86Z" transform="translate(-1 -0.59)"/><path class="cls-1" d="M13.76,24.33V22.94c0-3.17,0-6.35,0-9.52a2.11,2.11,0,0,1,3.16-1.9A2.07,2.07,0,0,1,18,13.45v6.63H28a2.12,2.12,0,0,1,.38,4.23c-.23,0-.45,0-.68,0H13.76Z" transform="translate(-1 -0.59)"/><path class="cls-1" d="M32.39,26.05A14.32,14.32,0,0,1,31.29,28h5.83a20.45,20.45,0,0,0,.75-2H32.42Z" transform="translate(-1 -0.59)"/><path class="cls-1" d="M14.59,33A13.2,13.2,0,0,1,6.31,22.24a12.84,12.84,0,0,1,2.22-9.56c3.34-4.72,8-6.59,13.68-5.8a23.19,23.19,0,0,1,3.07.85l-2.9,3.11c2.31.15,11.09,1.07,11.09,1.07L32,.59S30.14,2.5,29.46,3.26a.85.85,0,0,1-1.19.22A18.4,18.4,0,0,0,15.61,2,18.48,18.48,0,0,0,2.93,12.06,18.06,18.06,0,0,0,1.19,22.91,18.43,18.43,0,0,0,6.9,34.06a18.13,18.13,0,0,0,10.92,5.07,18.22,18.22,0,0,0,11.45-2.37,18.81,18.81,0,0,0,7.22-7.44H30.28A13.56,13.56,0,0,1,14.59,33Z" transform="translate(-1 -0.59)"/></svg>