<svg id="escalator" fill="currentColor" xmlns="http://www.w3.org/2000/svg" viewBox="0 0 35.95667 30.86677"><path d="M27.57745,20.32c-.93,1.06-1.82,2.13-2.8,3.28-.78-1.81-1.49005-2.36-2.32-1.68995a2.79979,2.79979,0,0,0-.89,1.68995c-.13,1.39,0,2.8,0,4.2,0,1.16.53,1.75,1.53,1.78,1,.03,2.3,0,3.45,0,1,0,1.77-.24,1.93-1.48.16-1.24-.53-1.83-1.81-2,1.14-1.25,2.12-2.29,3.07-3.37995.95-1.09.91-1.86.15-2.68005C29.12743,19.22,28.50744,19.26,27.57745,20.32Z"/><path d="M35.16741,7.77a3.16,3.16,0,0,0-2.73-1.63c-2.54,0-5.1-.12-7.64.07a4.66007,4.66007,0,0,0-2.69,1.39c-1.46,1.43-2.72,3.11-4.07995,4.7-.44-2.33-1.26-3.56-2.88-4.12a3.00007,3.00007,0,0,0-3.58,1.64,7.17034,7.17034,0,0,0-.64,3.06c-.08,2.12,0,4.26,0,6.39a2.57,2.57,0,0,1-2.37,2.67,33.87445,33.87445,0,0,0-5.24.14c-2.31.4-3.42,2.13-3.31,4.71a3.90993,3.90993,0,0,0,3.62,4,41.48537,41.48537,0,0,0,7.72-.25,5.70987,5.70987,0,0,0,3.11-1.91c3.77-4.22,7.45-8.55,11.12-12.86a2.2898,2.2898,0,0,1,2-.93c1.47.05,2.94,0,4.42,0a3.69011,3.69011,0,0,0,3.53-2.48A4.74008,4.74008,0,0,0,35.16741,7.77Zm-3.42975,4.89014c-1.62207.0498-3.08593.0498-4.78027.0498a2.62975,2.62975,0,0,0-2.24414,1.01514c-1.11231,1.2832-2.22461,2.52588-3.33594,3.76806-2.11816,2.36719-4.30957,4.81641-6.32861,7.34864-1.88965,2.35644-3.28174,3.85937-6.70947,3.85937-.28516,0-.58448-.00976-.89893-.03125-1.07129,0-2.10547-.03125-3.35059-.10058-1.90332-.08594-2.25244-.832-2.25244-2.26954,0-1.34765.77735-2.03027,2.31006-2.03027l3.45459.10059a5.10386,5.10386,0,0,0,4.38086-2.124c3.83057-4.52734,7.76953-9.00781,11.12012-12.79736a3.42136,3.42136,0,0,1,2.20019-1.07666c1.499-.05469,2.99121-.03613,4.43067-.01953.72851.00879,1.45605.01758,2.18359.01758a2.012,2.012,0,0,1,1.56055.45508,2.3532,2.3532,0,0,1,.59961,1.76464C34.07751,11.96338,33.2904,12.66016,31.73766,12.66016Z"/><path d="M14.26745,7.42a3.71,3.71,0,1,0-3.71-3.71A3.71,3.71,0,0,0,14.26745,7.42Z"/></svg>