<svg id="expand" data-name="展開" xmlns="http://www.w3.org/2000/svg" viewBox="0 0 38.78 36.43" fill="currentColor"><path class="cls-1" d="M29.54,38.21H10.48A9.87,9.87,0,0,1,.62,28.35V11.64a9.87,9.87,0,0,1,9.86-9.86H29.54a9.87,9.87,0,0,1,9.86,9.86V28.35A9.87,9.87,0,0,1,29.54,38.21ZM10.48,3.73a7.92,7.92,0,0,0-7.91,7.91V28.35a7.92,7.92,0,0,0,7.91,7.91H29.54a7.92,7.92,0,0,0,7.91-7.91V11.64a7.92,7.92,0,0,0-7.91-7.91Z" transform="translate(-0.62 -1.78)"/><path class="cls-1" d="M20.18,29.83,10.44,13.08H29.92Z" transform="translate(-0.62 -1.78)"/></svg>