<svg id="file-select" data-name="選取檔案" xmlns="http://www.w3.org/2000/svg" viewBox="0 0 38.5 30.57" fill="currentColor"><path class="cls-1" d="M6.41,7.65V7A2.4,2.4,0,0,1,7.62,4.91a2.33,2.33,0,0,1,1.23-.34H26.2a2.43,2.43,0,0,1,1.32.33,2.38,2.38,0,0,1,1.21,2.16c0,1.28,0,2.55,0,3.83v.26l.66.1a4,4,0,0,1,2.71,2.21,4.46,4.46,0,0,1,.48,2.06v.42h3.8a3.36,3.36,0,0,1,1.3.23,2.54,2.54,0,0,1,1.62,2.18A3.63,3.63,0,0,1,39,20.27q-1.6,3.7-3.23,7.41c-.55,1.26-1.11,2.52-1.65,3.79a6.16,6.16,0,0,1-2.28,2.69,5.62,5.62,0,0,1-2.47,1,2.73,2.73,0,0,1-.41,0H4.75A3.58,3.58,0,0,1,2,33.84,4.43,4.43,0,0,1,.84,30.92a.61.61,0,0,1,0-.14q0-9.59,0-19.17A3.8,3.8,0,0,1,2.16,8.66a3.86,3.86,0,0,1,2.63-1H6.41ZM17,33.27H28.73a2.94,2.94,0,0,0,1-.14A4.52,4.52,0,0,0,32,31.42a6.61,6.61,0,0,0,.67-1.36l2.85-6.51,1.77-4.05a2.23,2.23,0,0,0,.19-.84.78.78,0,0,0-.68-.81,3.87,3.87,0,0,0-.48,0H12.7a3,3,0,0,0-.73.07,4.29,4.29,0,0,0-2.86,2.37c-.38.79-.7,1.59-1,2.38-.9,2.06-1.79,4.11-2.69,6.16L4.13,31.65a1.91,1.91,0,0,0-.16.78.73.73,0,0,0,.63.79,3.32,3.32,0,0,0,.64.05Zm9.9-17.33V7.17a1.08,1.08,0,0,0,0-.18.54.54,0,0,0-.46-.53,1.67,1.67,0,0,0-.32,0H8.94a.62.62,0,0,0-.65.66c0,3.59,0,7.17,0,10.76,0,0,0,.11,0,.2l.15-.15c.2-.18.39-.38.59-.55a5.87,5.87,0,0,1,3.89-1.42c4.53,0,9.06,0,13.59,0ZM2.71,30.08h0L2.82,30l.45-1q1.54-3.53,3.08-7.06a.72.72,0,0,0,.06-.29V9.72a1.1,1.1,0,0,0,0-.18l-.08,0c-.53,0-1.07,0-1.61,0a2,2,0,0,0-1.69,1,2.15,2.15,0,0,0-.31,1.21q0,9,0,18.11Zm26-17v2.84a12.69,12.69,0,0,0,2,0,3.08,3.08,0,0,0-.13-1.27,2.32,2.32,0,0,0-1.2-1.42A1.11,1.11,0,0,0,28.75,13.07Z" transform="translate(-0.83 -4.57)"/><path class="cls-1" d="M17.3,8.42h7.05a1,1,0,0,1,.76.3.9.9,0,0,1,.21.92.86.86,0,0,1-.7.63,1.36,1.36,0,0,1-.29,0H10.26a1,1,0,0,1-1-.71.94.94,0,0,1,.82-1.16H17.3Z" transform="translate(-0.83 -4.57)"/><path class="cls-1" d="M17.3,12.15h7.05a1,1,0,0,1,.76.29.9.9,0,0,1,.21.92.86.86,0,0,1-.7.63,1.36,1.36,0,0,1-.29,0H10.26a1,1,0,0,1-1-.71.94.94,0,0,1,.82-1.16H17.3Z" transform="translate(-0.83 -4.57)"/></svg>