<svg id="fire_a2" fill="currentColor" viewBox="0 0 287 287" xmlns="http://www.w3.org/2000/svg">
<path d="M176.44,180.12c-6.73-9.88-19.76-12.16-30.53-14.84-24.72-6.18-60.78-8.75-71.08-36.64-2.77-7.49-3-15-3-22.87,0-8.53,1.11-16.48,4.73-24.3,19.29-41.61,89.2-42.73,119.05-12.73,11,11.05,14.62,26.27,15.8,41.32-9.39,0-26.54,3.37-35-.86-5.61-2.81-6.88-14.07-12.14-18.59C150,78.3,120.6,78.69,109.94,95.77c-11.88,19,17.79,26.69,30.28,29.83,32.87,8.29,71.57,12.22,76.5,53.07.81,6.7-.27,13.46-1.66,20-6.53,30.75-37.71,44.26-66.3,44.31C107.21,243.07,69,227.4,69,180.1c8.29,0,28-3.67,34.77,1.47,7.58,5.78,6.31,17.84,16.51,23.74,12.38,7.16,34.57,7.55,47,.2C175.88,200.42,182.94,189.67,176.44,180.12ZM287,0V287H0V0ZM267.25,19.75H19.75v247.5h247.5Z"/>
</svg>
