<svg id="fire_o4" fill="currentColor" viewBox="0 0 300 300" xmlns="http://www.w3.org/2000/svg">
<path fill-rule="evenodd" clip-rule="evenodd" d="M196.972 121.974C203.657 128.358 211.509 131.794 222.003 132.706C244.546 134.739 259.703 126.183 264.757 108.439C265.457 106.053 266 103.949 266 103.74C266 103.529 260.792 103.318 254.341 103.318H242.68L241.203 106.053C236.928 113.558 226.434 116.013 217.571 111.595C211.275 108.439 207.854 99.0394 208.71 87.1867C209.72 73.7203 215.395 67.6183 226.978 67.5482C229.776 67.5482 232.808 67.969 234.052 68.6002C236.773 69.8627 240.193 73.4398 240.814 75.6841L241.281 77.3674H253.329H265.379L264.835 75.123C262.736 65.5142 257.449 57.5887 250.376 53.4505C243.38 49.3125 240.114 48.4007 230.242 48.05C215.473 47.559 206.145 50.6451 197.36 59.0616C188.654 67.478 184.924 76.8063 185.001 90.6935C185.001 104.441 188.654 113.909 196.972 121.974ZM66.6583 252.418C47.2212 251.863 42.0328 250.96 32.5079 246.514C15.4714 238.458 3.15875 219.219 3.00379 200.327C2.92636 191.854 4.01055 187.756 8.57936 179.213C17.3299 162.891 35.3731 151.64 55.8942 149.695C59.9211 149.347 72.0014 149 82.7654 149C104.448 149 104.758 149.07 109.172 153.515C114.128 158.655 111.418 164.906 103.597 166.294C101.35 166.641 89.5025 166.989 77.1123 166.989C56.5138 166.92 54.2681 167.058 49.5443 168.378C32.3529 173.24 21.3568 187.686 22.8281 203.523C24.222 218.941 34.9084 230.262 51.7126 234.082C55.8168 235.055 62.3216 235.124 97.7881 234.985L97.8511 234.985C138.908 234.776 139.066 234.776 143.477 233.179C158.036 227.901 166.166 218.316 168.257 204.147C168.722 200.952 169.729 197.41 170.504 196.23C173.601 191.715 180.802 191.089 185.139 194.909C187.927 197.479 188.624 201.16 187.462 207.69C183.823 228.595 167.405 245.403 145.258 250.751C141.851 251.584 134.804 252.07 118.93 252.488C94.7684 253.182 91.5159 253.182 66.6583 252.418ZM186.206 251.816C181.176 248.949 179.861 244.333 182.802 239.998C185.82 235.662 186.052 235.592 214.995 235.592C243.396 235.592 248.349 235.102 255.931 231.745C264.289 228.039 271.099 220.697 274.659 211.605C276.285 207.27 276.517 205.73 276.208 199.227C275.975 192.234 275.743 191.464 273.034 186.359C268.159 177.618 260.885 171.883 250.051 168.317C245.098 166.779 244.556 166.708 205.553 166.498C160.901 166.219 156.645 166.498 148.056 170.205C135.905 175.38 128.786 184.402 126.697 197.338C125.381 204.822 124.839 206.15 121.898 208.248C117.72 211.185 110.368 209.437 107.969 204.962C106.963 203.003 106.808 201.395 107.195 197.199C109.13 175.939 124.375 158.106 145.966 151.953C150.686 150.555 155.02 149.995 164.538 149.435C180.867 148.526 247.496 149.156 252.759 150.274C254.926 150.694 259.879 152.512 263.903 154.26C269.861 156.849 272.261 158.387 277.059 162.793C290.834 175.171 297.721 191.395 295.632 206.57C294.702 213.283 291.452 222.235 287.892 227.759C283.636 234.263 273.189 243.214 265.761 246.641C253.687 252.305 251.366 252.586 217.935 252.865C190.076 253.145 188.374 253.075 186.206 251.816ZM31 89.9997V49H48.9787C73.9019 49.0701 83.0842 50.7522 91.4176 56.9897C103.146 65.6102 104.304 84.7434 93.8097 95.8864C88.1769 101.774 75.0594 105.769 61.016 105.769H54.1486V118.384V131H42.5743H31V89.9997ZM68.9636 87.4066C74.9822 85.7947 78.4545 79.7674 76.6026 74.2306C74.9051 69.0443 68.9636 66.5212 58.7782 66.5212H54.1486V77.3844V88.2477H60.0128C63.2537 88.2477 67.2661 87.8972 68.9636 87.4066ZM115 49V89.9997V131H146H177V122.239V113.478H157.481H137.963V81.2391V49H126.481H115Z" />
</svg>
