<svg id="FireStationInsp" data-name="消防檢查" xmlns="http://www.w3.org/2000/svg" viewBox="0 0 32.15 38.63" fill="currentColor"><path class="cls-1" d="M18.85,5.52c1.75.11,3.34.2,4.92.33a.51.51,0,0,1,.56.39c0,.4-.36.39-.55.4-.76.05-1.53,0-2.29,0H20.36c0,.17,0,.36,0,.53l2.89.29c-.85,1.06-2.07.23-2.74.73,0,.6,0,1.08.06,1.58,0,.31.37.33.69.51a4.05,4.05,0,0,1,2.43,4c0,3,0,6,0,8.94,0,1-.27,1.5-1.42,1.45-1.86-.07-3.74,0-5.61,0-.9,0-1.2-.34-1.2-1.19,0-3.17,0-6.34,0-9.51,0-1.4.13-2.29,1.29-3.1.15-.11.93-.28,1.15-.43a.89.89,0,0,0,.27-.43,33.24,33.24,0,0,0-3.64,0,1.72,1.72,0,0,0-1.6,1.77,3.87,3.87,0,0,0,.48,2.6c.54.8.35,2.08.48,3.15.17,1.35.33,2.7.51,4.15H10.52c.23-1.92.51-3.75.66-5.59a3.29,3.29,0,0,1,.48-1.86c.49-.56.44-2,.49-2.87.1-1.57,1.19-2.16,2.57-2.26.83-.06,1.67,0,2.51,0,1.27,0,1.62-.37,1.62-1.56Zm0,6c1.66.64,2,1.9,1.88,3.37-.05.81,0,1.63,0,2.45v5.91h1.5c0-.32,0-.57,0-.83,0-2.93.06-5.87,0-8.8A2.53,2.53,0,0,0,18.88,11.48Z" transform="translate(-3.62 -0.75)"/><path class="cls-1" d="M29.65,6.89a14.29,14.29,0,1,0-5.22,20.86l.88,1.4c-.59,1.06.68,4.09,1.41,5.15L29.47,38a3.28,3.28,0,0,0,4.56.82l.33-.23A3.28,3.28,0,0,0,35.19,34l-2.75-3.68c-.64-.93-2.95-3.1-4.45-2.86L27,25.9A14.23,14.23,0,0,0,29.65,6.89ZM7.85,22a12.24,12.24,0,1,1,17,3.08A12.25,12.25,0,0,1,7.85,22Z" transform="translate(-3.62 -0.75)"/></svg>