<svg id="fire_c1" fill="currentColor" viewBox="0 0 288 288" xmlns="http://www.w3.org/2000/svg">
<path d="M0,0V288H288V0ZM241.83,18.41l-31.5,37-66.33,74h-1.32l-96.51-111Zm-203,233.45c-6.2,7.87-13.1,16.62-21.79,19.05V17.08c8.58,2.46,16,12.13,22.33,20.45,2,2.67,4,5.21,5.81,7.32q30,34.52,60.38,68.74c1.41,1.59,3.58,3.7,6.06,6.11,8,7.7,19.13,18.53,18.9,25.62s-10.2,16.52-17.84,23.77c-2.7,2.56-5.1,4.84-6.68,6.64-20.21,23-40.5,46.05-61.09,68.74C43,246.65,41,249.21,38.87,251.86Zm7.3,19.05,35.32-41,61.19-68.74,42.53,44.95,57.94,64.77Zm224.75,0c-8.82-2.83-17.15-13.41-24-22.15-2-2.55-3.89-4.93-5.62-6.93-12.3-14.16-25-28-37.75-41.76-7.45-8.1-14.91-16.18-22.28-24.34-1.45-1.61-3.73-3.75-6.34-6.2-7.85-7.37-18.66-17.52-18.73-24.21-.08-7.11,10.8-17.33,18.9-24.94,2.83-2.66,5.33-5,6.89-6.79,8.61-9.77,17.36-19.43,26.11-29.09C218.79,72.68,229.5,60.86,240,48.81c2.13-2.45,4.34-5.25,6.64-8.17,7.15-9,15.17-19.19,24.33-23.56Z"/>
</svg>
