<svg id="fire_o1" fill="currentColor" viewBox="0 0 300 300" xmlns="http://www.w3.org/2000/svg">
<path d="M49.3172 149.86C67.3642 171.03 86.0195 192.918 86.0195 228.451V266.719C86.0195 268.35 87.0375 269.911 88.8202 271.007L125.498 293.521C127.047 294.474 129.065 295 131.155 295H167.845C169.93 295 171.953 294.474 173.496 293.521L210.174 271.007C211.957 269.911 212.975 268.354 212.975 266.719V228.451C212.975 192.921 231.636 171.03 249.677 149.86C264.754 132.168 279 115.456 279 93.3375C279 44.6306 220.901 5 149.497 5C78.0923 5 20 44.6306 20 93.3375C20 115.456 34.24 132.168 49.3172 149.86ZM164.598 283.462H134.395L114.837 271.451H184.157L164.598 283.462ZM196.054 261.976H102.934V252.316H196.06V261.976H196.054ZM196.054 242.841H102.934V233.189H196.06V242.841H196.054ZM149.497 16.5379C211.582 16.5379 262.08 50.9912 262.08 93.3337C262.08 112.341 249.557 127.044 235.051 144.059C217.547 164.604 197.837 187.81 196.223 223.71H102.771C101.145 187.815 81.4476 164.604 63.9367 144.059C49.4317 127.044 36.9084 112.341 36.9084 93.3337C36.9084 50.9912 87.4169 16.5379 149.497 16.5379Z" />
</svg>
