<svg id="fire_p7" fill="currentColor" viewBox="0 0 300 300" xmlns="http://www.w3.org/2000/svg">
<path fill-rule="evenodd" clip-rule="evenodd" d="M181 42C181 59.1208 166.897 73 149.5 73C132.103 73 118 59.1208 118 42C118 24.8792 132.103 11 149.5 11C166.897 11 181 24.8792 181 42ZM112.415 171.44C112.412 176.709 107.171 180.979 100.709 180.979C94.2419 180.979 89.0005 176.705 89 171.432V105.113C89 92.0476 101.322 82 116.728 82H147.536H152.464H183.272C198.675 82 211 92.0502 211 105.113V171.432C211 176.705 205.756 180.979 199.292 180.979C192.83 180.979 187.592 176.709 187.587 171.44C187.582 171.439 187.571 113.153 187.571 113.153C187.571 112.603 187.025 112.16 186.353 112.16H183.874C183.199 112.16 182.655 112.606 182.655 113.153V276.691C182.655 283.489 175.897 289 167.561 289C159.224 289 152.464 283.49 152.464 276.691V180.468C152.464 179.768 152.068 179.475 151.217 179.475H148.783C147.935 179.475 147.536 179.766 147.536 180.468V276.691C147.536 283.489 140.777 289 132.44 289C124.104 289 117.346 283.49 117.346 276.691V113.153C117.346 112.603 116.799 112.16 116.127 112.16H113.648C112.974 112.16 112.43 112.606 112.43 113.153C112.43 113.153 112.42 171.439 112.415 171.44Z" />
</svg>
