<svg id="fire_f5" fill="currentColor" viewBox="0 0 300 300" xmlns="http://www.w3.org/2000/svg">
<path d="M9 15C23.2566 40.6794 41.9334 65.2088 58.936 89.1543C64.8182 97.4382 70.9101 111.948 79.6063 117.43C83.9759 120.184 91.4548 118.816 96.3922 118.816H134.038H186.474C193.676 118.816 203.826 120.635 210.622 118.003C219.783 114.455 226.917 99.3786 232.757 91.8508C251.416 67.7985 276.469 42.2409 290 15H9ZM138.072 137.692V175.443H162.273V137.692H138.072ZM92.3593 143.084L74.8804 175.443C80.0876 177.883 87.684 184.987 93.5641 184.541C101.307 183.952 111.76 160.557 113.871 153.871L92.3593 143.084ZM187.819 153.871C190.27 160.587 200.321 183.923 208.125 184.741C213.894 185.347 221.876 178.076 226.809 175.443C225.222 168.509 215.313 145.821 207.703 144.268C201.821 143.069 192.823 151.199 187.819 153.871ZM64.1244 190.273C60.0169 197.002 46.2372 213.02 47.8264 221.035C48.9168 226.531 62.6858 234.423 67.6483 231.115C74.9664 226.235 82.7766 209.477 84.2918 201.06L64.1244 190.273ZM217.397 201.06C218.891 208.829 227.742 228.414 235.318 231.854C240.543 234.226 254.032 225.619 254.052 219.877C254.083 211.18 242.061 197.641 237.565 190.273L217.397 201.06ZM138.072 194.319V230.721H162.273V194.319H138.072ZM34.5454 238.811L17.067 269.821L38.5789 281.955L56.0574 249.597L34.5454 238.811ZM245.632 249.597L263.11 281.955C268.422 280.268 282.441 274.896 282.939 268.332C283.585 259.779 271.103 246.273 267.144 238.811L245.632 249.597ZM138.072 249.597V286H162.273V249.597H138.072Z" />
</svg>
