<svg id="fire-marshalling" data-name="消防編組" xmlns="http://www.w3.org/2000/svg" viewBox="0 0 32.37 38.75" fill="currentColor"><path class="cls-1" d="M23.55,5.13l.56-1.94c2.94.76,4.43,2.45,4.68,5a135.85,135.85,0,0,0-17.24,0c.06-2.39,1.42-4,4.55-5.08L17,5.61c.81.54-.8-4.69,2.9-5,3.36-.26,2.6,3.4,3.31,5.15C23.36,5.74,23.4,5.62,23.55,5.13Z" transform="translate(-3.77 -0.62)"/><path class="cls-1" d="M30.3,10.7a11,11,0,0,0-1.51-.45,36.82,36.82,0,0,0-18.7.44c-3.5,1.07-4.18,3.28-1.72,6,.69.77,1.48,1.46,2.11,2.27,1.75,2.29,3.29,4.76,5.24,6.86A6.13,6.13,0,0,0,20.47,28c2.46,0,3.51-1.05,4.47-2.93,1.67-3.27,4.67-5.68,7-8.49S33.78,12,30.3,10.7ZM27,19.76a38.22,38.22,0,0,0-2.3,3.54C22,28.13,18.4,27.76,16,24.1c-1-1.51-2.14-3.13-3.26-4.56A4.57,4.57,0,0,1,12,17.46l2.53,1.47a16.94,16.94,0,0,0,0-3.15C14,13.85,15,13.11,16.68,13c2.15-.11,4.32,0,6.48-.08,1.88,0,2.44,1,2.24,2.73a30.45,30.45,0,0,0,0,3.22L28,17.49A4.14,4.14,0,0,1,27,19.76Z" transform="translate(-3.77 -0.62)"/><path class="cls-1" d="M35.28,34.77C33.67,32.68,33.88,32,31,30.24c-1.19-.85-2.72-1.55-5.24-3-3.85,3.05-7.08,3-11.64.1A44.33,44.33,0,0,0,7.9,30.94,12.54,12.54,0,0,0,4.13,35.7c-1,2.46.11,3.65,2.78,3.66,8.65,0,17.31,0,26,0a3.94,3.94,0,0,0,2.8-.94C36.71,37.19,35.73,35.62,35.28,34.77Zm-15.85,3-6.78-.1s.21-4.62,2.88-7.29A35,35,0,0,1,19.43,32Zm2.36,0V32a35,35,0,0,1,3.9-1.64c2.67,2.67,2.88,7.29,2.88,7.29Z" transform="translate(-3.77 -0.62)"/></svg>