<svg id="fire_p1" fill="currentColor" viewBox="0 0 300 300" xmlns="http://www.w3.org/2000/svg">
<path d="M79.9776 123.931H219.784C219.784 131.367 222.268 144.284 218.454 150.857C210.002 165.418 196.957 168.807 197.829 188.684C199.386 224.201 245.884 235.385 271.545 217.696C278.913 212.618 284.838 205.154 287.193 196.455C289.629 187.462 288.393 177.201 288.393 167.964C288.393 144.198 296.411 101.924 276.623 84.21C262.142 71.2483 236.378 76.0129 218.49 76.0129H83.8612C66.6519 76.0129 42.1666 71.6031 26.9079 81.1861C17.8586 86.8694 13.9763 97.0305 12.1658 107.095C10.4274 116.758 11.3689 127.094 11.3689 136.881C11.3689 159.842 4.34599 195.125 22.1144 212.901C46.2519 237.049 100.247 227.143 101.934 188.684C102.808 168.738 89.6251 165.537 81.3082 150.889C77.5235 144.222 79.9776 131.437 79.9776 123.931Z" />
</svg>
