<svg id="fire_a6" fill="currentColor" xmlns="http://www.w3.org/2000/svg" viewBox="0 0 292.94 292.94"><path d="M63.8,162.47c-3.11-31.6,2.26-69.19,27-91.25,44.74-39.89,120.84-25.12,137.49,34.49-9.12,1.8-26.54,9.15-35.41,6.15-5.3-1.79-8.31-12.13-12.12-16.2C171.35,85.65,158.3,83,145.2,84c-54.52,4.08-56.43,92.07-18.62,118,15.78,10.8,53.69,9.85,64.42-9.22,3.2-5.69,1.47-15.21,1.47-21.56H150.93v-32h78.79v55.3c0,7.33,1.72,17-3.32,23-8.54,10.12-24.71,15.62-36.79,19.66C132.69,256.2,70.14,226.87,63.8,162.47ZM292.94,0V292.94H0V0ZM270.13,20.87H22.1v248h248Z"/></svg>