<svg id="fire_p5" fill="currentColor" viewBox="0 0 300 300" xmlns="http://www.w3.org/2000/svg">
<path d="M288.403 56.2384C283.191 54.6 277.98 59.8429 276.532 65.7413L273.926 76.8824C268.715 77.8655 265.241 80.1592 262.346 82.453C258.293 85.0744 255.397 87.0405 248.45 87.0405C241.501 87.0405 238.605 85.0744 234.553 82.453C230.209 79.5039 225.287 76.227 215.734 76.227C206.179 76.227 201.258 79.5039 196.915 82.453C192.861 85.0744 189.967 87.0405 183.018 87.0405C176.069 87.0405 173.175 85.0744 169.121 82.453C164.778 79.5039 159.857 76.227 150.302 76.227C140.748 76.227 135.827 79.5039 131.483 82.453C127.43 85.0744 124.535 87.0405 117.586 87.0405C110.639 87.0405 107.743 85.0744 103.69 82.453C99.3475 79.5039 94.4252 76.227 84.8711 76.227C75.317 76.227 70.3952 79.5039 66.0525 82.453C61.9992 85.0744 59.104 87.0405 52.1555 87.0405C45.2071 87.0405 42.3119 85.0744 38.2586 82.453C35.0739 80.4869 31.5997 78.1932 26.6779 76.8824L24.0722 66.0689C22.6246 60.1706 17.4132 53.617 12.202 55.2554C6.99061 56.8939 4.09537 63.4474 5.25348 69.018L43.7594 233.842C44.9175 238.757 48.6813 244 53.024 244H246.133C250.476 244 254.24 238.757 255.397 234.17L293.903 68.6903C296.799 63.1198 293.614 57.8769 288.403 56.2384ZM240.053 224.667H61.7097L30.4417 89.3343C31.8892 89.9896 33.0472 90.9727 34.4949 91.6281C38.8376 94.5771 43.7595 97.8544 53.3136 97.8544C62.8677 97.8544 67.7896 94.5771 72.1323 91.6281C76.1855 89.0066 79.0808 87.0405 86.0291 87.0405C92.9776 87.0405 95.873 89.0066 99.9264 91.6281C104.269 94.5771 109.191 97.8544 118.744 97.8544C128.299 97.8544 133.221 94.5771 137.563 91.6281C141.617 89.0066 144.512 87.0405 151.46 87.0405C158.409 87.0405 161.305 89.0066 165.357 91.6281C169.7 94.5771 174.622 97.8544 184.176 97.8544C193.73 97.8544 198.651 94.5771 202.995 91.6281C207.048 89.0066 209.944 87.0405 216.892 87.0405C223.841 87.0405 226.735 89.0066 230.788 91.6281C235.132 94.5771 240.053 97.8544 249.607 97.8544C259.162 97.8544 264.083 94.5771 268.426 91.6281C269.873 90.6451 271.032 89.9896 272.19 89.3343L240.053 224.667Z" />
</svg>
