<svg id="fire_o3" fill="currentColor" viewBox="0 0 300 300" xmlns="http://www.w3.org/2000/svg">
<path d="M290.567 145.82L244.64 128.82L248.53 116.597C249.708 112.922 247.891 108.911 244.477 107.657L46.5545 34.3794C43.1434 33.125 39.4155 35.0824 38.2539 38.7595L6.35069 138.666C5.18917 142.339 7.00666 146.348 10.4178 147.616L70.3651 169.8L88.7104 176.602L88.8927 176.675V217.113H21.3104C17.7009 217.113 14.7729 220.272 14.7729 224.146V230.028C14.7729 233.913 17.7009 237.07 21.3104 237.07H94.1636C101.379 237.07 107.238 230.756 107.238 222.988V183.459L116.694 186.947V247.047H21.3104C17.7009 247.047 14.7729 250.202 14.7729 254.091V259.96C14.7729 263.85 17.7009 267 21.3104 267H122.144C129.355 267 135.215 260.693 135.215 252.922V193.806L208.34 220.879C211.751 222.13 215.478 220.179 216.66 216.499L220.554 204.275L244.828 213.259C248.236 214.525 252.729 213.011 254.866 209.868L262.428 198.699L285.32 164.964L292.892 153.801C295.029 150.659 293.979 147.085 290.567 145.82ZM203.018 197.803L27.7806 132.949L51.8791 57.4416L227.119 122.317L203.018 197.803ZM244.105 191.92L226.566 185.427L238.63 147.678L266.981 158.182L244.105 191.92Z" />
</svg>
