<svg id="fire_fs" fill="currentColor" viewBox="0 0 300 300" xmlns="http://www.w3.org/2000/svg">
<path d="M103.968 89.8393C91.0554 92.145 78.5451 101.869 68.2484 109.613C30.1031 138.302 13.4415 173.947 8.94095 220.515C7.50113 235.41 3.18875 264.624 15.2109 276.335C26.9337 287.755 63.8123 281.037 79.2389 281.037H220.741C238.713 281.037 265.747 286.086 282.562 279.459C305.52 270.41 284.481 240.886 277.368 227.392C258.332 191.27 229.828 127.343 282.563 102.218V100.843C249.002 101.122 218.011 117.333 213.941 153.114C212.059 169.667 214.549 184.825 214.615 201.257C214.635 206.183 212.557 212.383 206.977 213.262C184.978 216.73 175.548 173.294 173.002 158.615C163.323 102.837 188.468 51.4419 233.105 18.3114C220.077 12.991 195.387 25.1978 183.648 31.0319C144.913 50.2847 115.5 84.6656 114.964 129.729C114.767 146.213 114.795 162.88 116.723 179.249C118.041 190.423 120.004 205.61 111.669 214.718C93.9117 234.121 71.4975 211.001 71.0166 191.628C70.0315 152.012 85.013 123.154 103.968 89.8393Z" />
</svg>
