<svg id="fire_r9" fill="currentColor" viewBox="0 0 289 219" xmlns="http://www.w3.org/2000/svg">
<path d="M134.51,3C122.51.33,109.42-.92,97.17.76,80.1,3.09,64.27,8,49.65,17.37A106.16,106.16,0,0,0,19.13,46.83C-34.54,125.63,32.32,230.56,125.46,218a104.45,104.45,0,0,0,41.87-15.23C246.3,152.35,228,24,134.51,3Zm68.06,117.68c-4.28,43.06-41.07,78.69-83.66,82.83C33.22,211.86-17.93,105.52,42,43.48c17.59-18.2,40-25.43,64.4-28C163.38,9.33,207.85,67.73,202.57,120.71ZM97.64,32A80.82,80.82,0,0,0,65.71,44.13c-67,44-26.37,154.5,53.59,143,11.81-1.69,23-5.38,33.06-11.89C221.34,130.49,179.08,19.29,97.64,32Zm46.79,129.75a62.35,62.35,0,0,1-25.16,9.57c-63.33,9-99.68-74.14-46.89-112,9.66-6.93,20.36-10.17,32-11.73C168.59,39,195.12,128,144.43,161.76ZM249.2,138v19.4h35.25v16H249.2V211H231V122h58v16Z"/>
</svg>
