<svg id="fire_o2" fill="currentColor" viewBox="0 0 300 300" xmlns="http://www.w3.org/2000/svg">
<path fill-rule="evenodd" clip-rule="evenodd" d="M201.212 291H48.7661C41.6691 290.995 34.8644 288.906 29.8461 285.191C24.8277 281.474 22.0058 276.437 22 271.182V27.8182C22.0058 22.5634 24.8277 17.5251 29.8461 13.8093C34.8644 10.0937 41.6691 8.00434 48.7661 8H201.234C208.328 8.00867 215.126 10.0999 220.139 13.8151C225.153 17.5304 227.972 22.5662 227.978 27.8182V156.84C227.977 158.137 227.281 159.382 226.041 160.299C224.802 161.216 223.121 161.732 221.369 161.732C219.617 161.732 217.936 161.216 216.697 160.299C215.457 159.382 214.761 158.137 214.761 156.84V27.8182C214.761 25.1576 213.333 22.6062 210.792 20.7249C208.252 18.8436 204.805 17.7867 201.212 17.7867H48.7661C45.173 17.7867 41.7269 18.8436 39.1861 20.7249C36.6453 22.6062 35.2179 25.1576 35.2179 27.8182V271.182C35.2179 273.842 36.6453 276.394 39.1861 278.275C41.7269 280.157 45.173 281.213 48.7661 281.213H201.234C204.827 281.213 208.273 280.157 210.814 278.275C213.355 276.394 214.782 273.842 214.782 271.182V249.814C214.783 248.516 215.48 247.272 216.719 246.356C217.958 245.438 219.638 244.923 221.391 244.923C223.144 244.923 224.824 245.438 226.063 246.356C227.303 247.272 227.999 248.516 228 249.814V271.182C227.994 276.439 225.169 281.48 220.147 285.197C215.123 288.913 208.313 291 201.212 291ZM158.382 140.734H89.1609C84.6123 140.726 80.2517 138.861 77.0352 135.548C73.8186 132.235 72.0081 127.744 72 123.058V55.6138C72.0241 50.9392 73.8417 46.464 77.0566 43.1643C80.2714 39.8646 84.622 38.0082 89.1609 38H158.382C162.931 38.0083 167.291 39.8733 170.507 43.1865C173.725 46.4997 175.535 50.991 175.543 55.6766V123.121C175.519 127.795 173.702 132.27 170.487 135.57C167.272 138.869 162.921 140.726 158.382 140.734ZM89.1609 47.4108C87.0337 47.415 84.9946 48.2871 83.4909 49.8363C81.9869 51.3857 81.1402 53.4856 81.1361 55.6766V123.121C81.1561 125.301 82.01 127.385 83.5126 128.92C85.0151 130.456 87.0446 131.319 89.1609 131.324H158.382C160.509 131.319 162.548 130.447 164.052 128.898C165.556 127.349 166.402 125.249 166.407 123.058V55.6138C166.402 53.4229 165.556 51.3228 164.052 49.7736C162.548 48.2244 160.509 47.3522 158.382 47.348L89.1609 47.4108ZM256.063 227H131.004C125.452 227 120.126 224.728 116.199 220.684C112.273 216.639 110.067 211.153 110.067 205.434C110.067 199.714 112.273 194.228 116.199 190.184C120.126 186.14 125.452 183.867 131.004 183.867H256.063C261.615 183.867 266.942 186.14 270.868 190.184C274.794 194.228 277 199.714 277 205.434C277 211.153 274.794 216.639 270.868 220.684C266.942 224.728 261.615 227 256.063 227ZM131.004 193.279C127.875 193.279 124.874 194.561 122.663 196.839C120.45 199.119 119.207 202.211 119.207 205.434C119.207 208.657 120.45 211.748 122.663 214.028C124.874 216.308 127.875 217.589 131.004 217.59H256.063C257.613 217.59 259.148 217.276 260.581 216.665C262.012 216.055 263.313 215.159 264.409 214.03C265.506 212.902 266.375 211.561 266.968 210.086C267.562 208.612 267.868 207.03 267.868 205.434C267.868 203.837 267.562 202.255 266.968 200.781C266.375 199.306 265.506 197.966 264.409 196.837C263.313 195.708 262.012 194.813 260.581 194.202C259.148 193.592 257.613 193.277 256.063 193.279H131.004ZM87.8832 246.462C95.0511 249.307 102.882 250.395 110.656 249.628C120.332 248.696 129.486 244.912 136.822 238.816C137.246 238.473 137.595 238.055 137.848 237.585C138.102 237.115 138.255 236.604 138.297 236.08C138.341 235.557 138.274 235.032 138.1 234.535C137.926 234.038 137.65 233.58 137.287 233.188C136.922 232.795 136.479 232.475 135.981 232.247C135.484 232.019 134.942 231.887 134.388 231.858C133.834 231.829 133.277 231.906 132.752 232.081C132.226 232.258 131.742 232.53 131.327 232.883C125.724 237.517 118.834 240.528 111.497 241.548C104.158 242.57 96.6882 241.556 89.9974 238.631C83.3061 235.708 77.6814 230.998 73.809 225.08C69.9364 219.159 67.9831 212.284 68.1868 205.29C68.3905 198.297 70.7425 191.488 74.9563 185.691C79.1701 179.894 85.0638 175.361 91.9197 172.643C98.7757 169.925 106.297 169.14 113.57 170.383C120.841 171.627 127.55 174.845 132.878 179.645C133.266 180.036 133.737 180.345 134.259 180.557C134.782 180.768 135.346 180.876 135.917 180.874C136.488 180.871 137.055 180.759 137.58 180.544C138.106 180.329 138.581 180.014 138.977 179.62C139.372 179.227 139.679 178.763 139.879 178.256C140.079 177.748 140.168 177.209 140.14 176.671C140.113 176.132 139.969 175.606 139.717 175.125C139.466 174.643 139.112 174.216 138.679 173.87C133.06 168.81 126.169 165.182 118.639 163.316C111.109 161.45 103.181 161.406 95.5858 163.191C87.9888 164.975 80.9675 168.528 75.1665 173.526C69.3656 178.523 64.9711 184.804 62.387 191.789C59.8031 198.775 59.1125 206.242 60.3786 213.504C61.6448 220.766 64.8272 227.591 69.6333 233.35C74.4394 239.109 80.715 243.617 87.8832 246.462Z" />
</svg>
