<svg id="fire_s1" fill="currentColor" viewBox="0 0 294 168" xmlns="http://www.w3.org/2000/svg">
<path d="M244.82,42.58c-1.81,0-3.9.15-6.1.3-5.58.4-11.87.84-16.15-.94S214.63,35,211.09,30c-2.32-3.27-4.58-6.45-6.89-8.52a85.49,85.49,0,0,0-113.33,0c-2.31,2.06-4.59,5.26-6.93,8.54C80.4,35,76.7,40.18,72.5,41.94s-10.57,1.34-16.15.94c-2.2-.15-4.29-.3-6.1-.3H0v82H49.18c1.85,0,4-.14,6.16-.29,5.58-.38,11.81-.81,16.19.94s8,7,11.56,12c2.25,3.23,4.44,6.37,6.72,8.43a85.72,85.72,0,0,0,115.45,0,49.91,49.91,0,0,0,7-8.79c3.07-4.48,6.18-9,10.21-11.22s10.42-1.74,15.93-1.36c2,.14,3.78.26,5.34.26H294v-82ZM68.73,112.77H12.29V54.17H68.73C64.23,75.94,63.7,91,68.73,112.77ZM146.47,84,99.61,137.27c-35-25.78-28.29-78.72-1.06-106.54,11.88,8.38,21.76,20.71,31.45,32.8,5.44,6.79,10.82,13.5,16.47,19.41Zm67.37,27.7-.2.45c-2.67,6.06-10,22.77-17.22,22.77-3.94,0-8.17-5.56-11.26-9.63-.87-1.15-1.66-2.19-2.32-2.94-3.16-3.58-6.29-7.21-9.42-10.85-8.06-9.36-16.15-18.75-24.82-27.5V82.94l46.85-52.21C219.29,47.88,225.23,86,213.84,111.7Zm67.87,1.07H226.33c5-21.91,3.21-36.79,0-58.6h55.38Z"/>
</svg>
