<svg id="fire_p4" fill="currentColor" viewBox="0 0 300 300" xmlns="http://www.w3.org/2000/svg">
<path d="M37.375 215.779H38.734ZM10.1932 80H288.128C294.243 80 299 85.7103 299 92.0551V206.896C299 213.876 294.243 218.952 288.807 218.952H10.1932C4.75681 219.586 0 213.876 0 207.531V92.0551C0 85.7103 4.75681 80 10.1932 80ZM13.591 96.4966V111.724H285.41V96.4966C285.41 94.5931 284.05 92.6896 282.011 92.6896H16.9886C14.95 92.6896 13.591 94.5931 13.591 96.4966ZM15.6296 118.069H13.591V130.759H285.41V118.069H15.6296ZM15.6296 137.104H13.591V203.089C13.591 204.993 14.95 206.896 16.9886 206.896H27.1818V192.938C27.1818 186.593 31.9386 181.517 37.375 181.517H260.946C267.061 181.517 271.139 186.593 271.139 192.938V206.896H281.332C283.371 206.896 284.729 204.993 284.729 203.089V137.104H15.6296ZM37.375 198.014V206.896H261.625V198.014C261.625 196.11 260.265 194.207 258.228 194.207H40.7728C38.734 194.207 37.375 196.11 37.375 198.014Z"/>
</svg>
