<svg id="fire_f9" fill="currentColor" viewBox="0 0 290 291.02" xmlns="http://www.w3.org/2000/svg">
<path d="M124,1.53A143.33,143.33,0,0,0,67.67,22.14,147.91,147.91,0,0,0,26,61.53C-17.27,122-5.19,211.14,52.18,258.21c32.28,26.49,74.49,37.08,115.49,31.26a145.16,145.16,0,0,0,54.94-20.2,140.24,140.24,0,0,0,41.24-38.6C335.86,127.79,249.33-16.44,124,1.53Zm86.48,251.19c-15.63,9.27-32.65,15.73-50.73,18C55.06,283.54-19.74,162.81,39.07,75A126.83,126.83,0,0,1,73.8,40.28c17.57-11.73,36.93-18.21,57.77-21,14.79-2,30.76-.29,45.1,3.64C280.17,51.26,305.31,196.49,210.49,252.72ZM177.56,61H230V230H196V100.44h-1.42L166.22,230l-34.64-1.45-8.8-32.35-20.35-94.36H101V230H67V61h52.44l28.35,128.16h1.42Z"/>
</svg>
