<svg id="fire_r8" fill="currentColor" viewBox="0 0 289 288" xmlns="http://www.w3.org/2000/svg">
<path d="M0,0V288H289V0ZM269,269H20V19H269ZM81.24,237c24.2,16.23,53.09,21.64,81.63,17.8C278.26,239.3,289.22,71.15,180.06,36.67c-12.7-4-28.25-6.89-41.53-5.15C114.9,34.61,93,40.4,74.08,55.86,17.18,102.4,19.22,195.41,81.24,237ZM92.56,68.33c11.68-8.13,25.6-13,39.65-15.16,95.13-14.78,141,114.45,63.72,166.9A93.82,93.82,0,0,1,156.28,235C61.43,248.54,16.25,121.42,92.56,68.33ZM97.39,113c42.75-9.65,61.33,54.34,18.55,64C72.77,186.74,54.6,122.65,97.39,113Zm82.74,0c43-9.7,61.33,54.35,18.54,64S137.35,122.65,180.13,113Z"/>
</svg>
