<svg id="fire_f6" fill="currentColor" viewBox="0 0 300 300" xmlns="http://www.w3.org/2000/svg">
<path d="M61.6323 26V78.0299C46.19 78.0299 25.2296 74.3082 13.4862 86.8314C1.39259 99.7288 5.77307 123.841 5.77307 139.97V275H136.112V138.731C136.112 122.503 140.65 98.4863 128.399 85.5965C117.873 74.5213 97.7536 78.0299 83.976 78.0299V48.2985H232.934L204.384 123.866H270.174C260.606 90.4613 237.899 61.4898 237.899 26H61.6323ZM295 227.925H266.45C260.535 248.416 236.964 258.095 220.751 241.422C200.731 220.833 208.156 166.984 242.865 168.513C258.415 169.199 258.15 181.313 268.309 188.249C274.104 192.206 288.147 189.522 295 189.522C294.172 150.728 246.693 136.959 215.556 149.218C195.986 156.921 184.285 176.672 182.253 196.955C179.868 220.749 183.715 246.197 203.143 262.204C236.92 290.037 286.735 267.78 295 227.925Z"/>
</svg>
