<svg id="fire_p2" fill="currentColor" viewBox="0 0 291 196" xmlns="http://www.w3.org/2000/svg">
<path d="M0,0V196H291V0ZM277,181H13V16H277ZM72.59,93c46.65-9.91,29-80.48-17.33-69.89C10.25,33.37,27.77,102.5,72.59,93ZM59.85,32.67c33-6.15,41.74,44.11,8.59,49.9C36.91,88.08,28.17,38.58,59.85,32.67Zm95,60.3c46.24-9.82,28.74-79.71-17.33-69.9C92.16,32.73,109.7,102.58,154.89,93ZM140.35,32.74C172,25.52,184,74.17,152.16,82S107.58,40.21,140.35,32.74ZM237.19,93c45.64-10.43,28.44-79.62-17.33-69.89S191.8,103.34,237.19,93ZM221.92,32.74c32.58-7.38,42.92,42.76,9.66,49.62C200,88.87,190.26,39.92,221.92,32.74ZM58.24,102.62C13.31,109.77,23,179.91,68,173.48,115.88,166.64,106,95,58.24,102.62Zm9.4,61.23c-33.76,2.67-38.21-47.7-4.35-50.61C95.85,110.45,100.36,161.27,67.64,163.85Zm73.09-61.23c-44.61,6.95-36.07,76.87,8.68,71C197.73,167.36,188.73,95.14,140.73,102.62Zm9.56,61.23c-34.24,2.71-38.66-47.66-4.35-50.61C178.18,110.47,182.78,161.28,150.29,163.85Zm71.83-61.2c-46.83,8.36-32.4,79.19,14.11,70.29C281.66,164.25,267.37,94.57,222.12,102.65Zm11.9,61.1c-34.34,4.2-41.15-46.59-6.53-50.56C259.38,109.53,266.11,159.83,234,163.75Z"/>
</svg>
