<svg id="fire_p3" fill="currentColor" viewBox="0 0 289 194" xmlns="http://www.w3.org/2000/svg">
<path d="M0,0V194H289V0ZM274,180H13V15H274ZM58.63,27c42.8-9.21,60.1,56.24,17,65.78C33.23,102.22,16,36.2,58.63,27Zm77.65,0c43.28-9.31,59.28,56.7,15.95,66C110.09,102.06,93.84,36.16,136.28,27Zm76.57,0c44-10.16,60.22,56.64,16,66.14C187.64,102,171.64,36.57,212.85,27.05ZM74.59,169c-41.85,9-57.92-57-16-66C102.24,93.65,118.32,159.65,74.59,169Zm75.51.38c-41.15,7.46-55-58.61-13.82-66.43C181,94.48,195,161.25,150.1,169.4ZM212.85,103c44-10.17,60.2,56.64,16,66.14C187.64,178,171.61,112.56,212.85,103Z"/>
</svg>
