<svg id="fire_a3" fill="currentColor" viewBox="0 0 296 93" xmlns="http://www.w3.org/2000/svg">
<path d="M0,93H92.83V0H0ZM8,8H84.3V85H8ZM203.17,0V93H296V0ZM287,85H210.7V8H287ZM68.68,65.74C61.79,87.4,22.06,80.84,22,58.19c2.88,0,9-1.15,11.35.6s2.39,5.64,5.59,7.47a16,16,0,0,0,14.59,0c2.71-1.56,5.1-5,3.07-8C54.39,55,49.51,54.2,45.94,53.43,38.08,51.74,27.4,50.38,24,42c-1-2.43-.87-5-.86-7.54a16.62,16.62,0,0,1,1.7-8.12c9.74-18,42.66-10.74,42.68,9.86H55.87c-1.58-6.52-6.94-9.4-13.43-8.6-3.61.45-9.22,3.57-7.35,8s9.09,5,13.19,6C61,44.7,73.66,50.08,68.68,65.74ZM259.8,58.26c-2.2-3.27-7.08-4.06-10.65-4.83C241.1,51.7,230.09,50.27,227,41.37c-.83-2.41-.68-5-.65-7.54a16.45,16.45,0,0,1,2.06-8.12C238.5,8.21,270.74,16,270.75,36.15H259.07c-1.53-6.33-6.52-9.16-12.84-8.65-3.64.3-9.4,3-8.06,7.58,1.43,4.9,9.17,5.49,13.31,6.51,12.73,3.12,25.4,8.43,20.41,24.15-6.89,21.68-46.5,15.08-46.69-7.55,2.88,0,9-1.15,11.35.6s2.4,5.64,5.59,7.47a16,16,0,0,0,14.59,0C259.44,64.7,261.83,61.25,259.8,58.26ZM163.89,28.61c9.76,3.66,19.39,11.61,28,17.4v.58l-28,17.4V51.81H104.33V41.37h59.56Z"/>
</svg>
