<svg id="fire_a7" fill="currentColor" viewBox="0 0 290 290" xmlns="http://www.w3.org/2000/svg">
<path d="M209.75,70.26c-22.27-16-59-13.83-90-12-9.24.55-18,1.07-25.71,1.07V244h38.58V178.15c4.94,0,10.06.18,15.27.36,21.24.76,44,1.57,61.9-9.62C239.35,150.35,236.78,89.68,209.75,70.26Zm-29.22,71.19c-9.27,5.64-23.76,4.75-36.28,4-4-.25-7.86-.48-11.25-.48V95.16c3.53,0,7.54-.26,11.76-.54,11.9-.77,25.46-1.64,34.49,2.87C194.45,105.1,194.94,132.66,180.53,141.45ZM145,0A145,145,0,1,0,290,145,145,145,0,0,0,145,0Zm0,272.5A127.5,127.5,0,1,1,272.5,145,127.5,127.5,0,0,1,145,272.5Z"/>
</svg>
