<svg id="fire_f3" fill="currentColor" viewBox="0 0 300 300" xmlns="http://www.w3.org/2000/svg">
<path d="M15.3618 14C42.2943 47.3568 82.9593 73.6834 114.773 102.502C121.858 108.919 140.309 131.429 150.18 130.801C160.816 130.125 177.736 109.092 185.588 102.189C208.212 82.3001 231.055 62.6594 253.679 42.7709C264.025 33.6752 276.818 25.1017 285 14H15.3618ZM14 133.68V158.16H285V133.68H14ZM140.649 173.12V286H162.438V173.12H140.649ZM109.326 186.72C104.71 183.669 95.0771 175.164 89.1855 177.529C83.1281 179.96 78.295 192.268 75.024 197.6C64.4769 214.793 54.2864 232.22 43.5254 249.28C40.1726 254.596 31.5565 264.362 32.0471 270.913C32.4599 276.423 45.2712 284.119 50.3249 281.735C58.4876 277.885 64.7696 260.846 69.2908 253.36C74.783 244.267 80.3637 235.216 85.9185 226.16C93.8465 213.236 102.895 200.46 109.326 186.72ZM193.759 186.72C199.678 200.423 209.044 213.501 216.978 226.16C222.616 235.155 228.014 244.289 233.528 253.36C237.929 260.601 244.739 278.128 252.602 281.735C257.594 284.026 270.622 276.378 271.038 270.898C271.549 264.187 262.728 254.75 259.402 249.28C248.643 231.58 237.94 213.841 227.02 196.24C223.788 191.03 219.81 179.976 213.899 177.419C208.111 174.915 198.337 183.695 193.759 186.72Z" />
</svg>
