<svg id="fire_s2" fill="currentColor" viewBox="0 0 257 290" xmlns="http://www.w3.org/2000/svg">
<path d="M128.5,0C57.64,0,0,39.63,0,88.34c0,22.12,14.13,38.83,29.09,56.52C47,166,65.51,187.92,65.51,223.45v38.27A5.22,5.22,0,0,0,68.29,266l36.39,22.51A10.84,10.84,0,0,0,110.3,290h36.4a10.81,10.81,0,0,0,5.61-1.48L188.71,266a5.23,5.23,0,0,0,2.77-4.29V223.45c0-35.53,18.52-57.42,36.42-78.59,15-17.69,29.1-34.4,29.1-56.52C257,39.63,199.35,0,128.5,0Zm15,278.46h-30l-19.41-12h68.79ZM174.7,257H82.29v-9.66H174.7Zm0-19.14H82.29v-9.65H174.7Zm38.69-98.78c-17.37,20.54-36.93,43.75-38.53,79.65H82.13C80.52,182.82,61,159.6,43.6,139.06c-14.4-17-26.82-31.72-26.82-50.73C16.78,46,66.9,11.54,128.5,11.54S240.21,46,240.21,88.33C240.21,107.34,227.78,122,213.39,139.06Zm-87.22,3.2-9-73a8,8,0,0,1,3.33-6.85A14.29,14.29,0,0,1,129.17,60a13.26,13.26,0,0,1,8.33,2.45,7.59,7.59,0,0,1,3.33,6.69l-8.66,73.12A28.65,28.65,0,0,1,126.17,142.26Zm11.5,15.66a12.07,12.07,0,0,1,0,16.65,11.77,11.77,0,0,1-8.84,3.43,12,12,0,0,1-8.5-3.26,11.91,11.91,0,0,1,8.5-20.4A11.51,11.51,0,0,1,137.67,157.92Z"/>
</svg>
