<svg id="fire_p6" fill="currentColor" viewBox="0 0 300 300" xmlns="http://www.w3.org/2000/svg">
<path d="M78.9266 194.318L60.7716 268.23C60.0108 271.328 61.3016 274.555 64.0349 276.387L89.6802 293.576C91.0798 294.514 92.7318 295 94.4024 295C95.2662 295 96.1363 294.87 96.9778 294.605C99.4439 293.828 101.377 291.985 102.19 289.636L122.408 231.188L167.381 215.72L172.725 232.503C173.366 234.519 174.836 236.202 176.802 237.171L264.676 280.47C266.943 281.588 269.628 281.635 271.938 280.602C274.247 279.567 275.918 277.567 276.46 275.192L282.814 247.262C283.562 243.972 282.01 240.595 278.963 238.887L224.123 208.139L186.017 109.329L188.731 108.933L218.05 141.249C219.923 143.314 222.796 144.297 225.624 143.843C228.45 143.387 230.823 141.559 231.878 139.022L244.997 107.494C245.937 105.236 245.718 102.689 244.405 100.607L219.391 60.9033C217.567 58.0083 213.996 56.5587 210.538 57.3078L149.115 70.6289C153.97 62.9523 156.205 54.0557 155.449 44.9445C154.543 34.0021 149.371 23.8843 140.888 16.4556C132.452 9.06806 121.512 5 110.085 5C108.883 5 107.665 5.0456 106.463 5.13607C81.4256 7.01525 62.664 27.9318 64.6377 51.762C65.5448 62.7044 70.7163 72.8221 79.2001 80.2509C81.0151 81.8398 82.9514 83.2657 84.9776 84.5399L73.0684 87.1228L44.8251 67.3794C42.9951 66.1002 40.6914 65.6001 38.4586 65.9996C36.2278 66.3986 34.2693 67.6597 33.0518 69.4832L18.2795 91.6059C16.6417 94.0573 16.5714 97.1729 18.0964 99.69L42.1063 139.321C43.6858 141.928 46.6952 143.438 49.8543 143.202L107.407 138.882L119.868 176.462L84.1255 188.756C81.5143 189.653 79.5589 191.746 78.9266 194.318ZM107.751 20.6959C108.526 20.6379 109.311 20.608 110.084 20.608C125.168 20.608 137.913 31.8369 139.1 46.1718C139.713 53.5594 137.266 60.7322 132.21 66.368C127.155 72.0036 120.096 75.4286 112.335 76.0112C111.559 76.0692 110.775 76.0992 110.004 76.0992C94.9194 76.098 82.1722 64.8683 80.9843 50.5346C79.7209 35.2844 91.7287 21.8984 107.751 20.6959ZM132.841 188.595C136.977 187.173 139.197 182.898 137.874 178.906L121.081 128.264C119.932 124.799 116.422 122.553 112.617 122.833L53.725 127.254L34.7815 95.9869L42.1858 84.8996L66.3805 101.813C68.2991 103.154 70.7347 103.636 73.056 103.132L208.383 73.7823L228.258 105.329L221.614 121.297L198.175 95.4639C196.329 93.4314 193.515 92.4437 190.726 92.8514L173.622 95.3499C171.191 95.7043 169.056 97.08 167.805 99.0951C166.554 101.111 166.321 103.555 167.167 105.753L209.738 216.136C210.391 217.83 211.639 219.257 213.273 220.171L265.531 249.472L262.7 261.921L187.415 224.824L180.569 203.323C179.918 201.274 178.41 199.57 176.399 198.608C174.389 197.65 172.052 197.518 169.936 198.245L113.081 217.799C110.712 218.614 108.867 220.42 108.08 222.7L90.0743 274.752L77.9985 266.658L93.8815 201.996L132.841 188.595Z" />
</svg>
