<svg id="fire_p8" fill="currentColor" viewBox="0 0 300 300" xmlns="http://www.w3.org/2000/svg">
<path fill-rule="evenodd" clip-rule="evenodd" d="M6.08253 90.6491V107.816H295V91.9637C294.918 83.0928 291.45 79.643 282.615 79.643H210.034V38H90.6357V79.7252H17.4775C9.88084 79.8073 6.08253 83.2571 6.08253 90.6491ZM109.215 52.8666H191.785V79.0682H109.215V52.8666ZM294.422 124.079H6C6 124.079 6 214.429 6.08253 248.762C6.08253 259.357 9.13768 262.396 20.0372 262.396H281.375C290.954 262.396 294.918 259.44 294.918 251.226C295 214.429 294.422 124.079 294.422 124.079ZM137.453 178.946V145.516L163.463 145.763V178.618H196.493V203.669H163.463V236.934H137.949V204.08H104.425V178.946H137.453Z" />
</svg>
