<svg id="fire_f2" fill="currentColor" viewBox="0 0 299 116" xmlns="http://www.w3.org/2000/svg">
<path d="M0,114H170V0H0ZM7,8H145.86L160,8.65c-9.59,4.55-18.77,10.91-27.79,17.16-4.05,2.81-8.06,5.59-12.07,8.18-4.31,2.78-8.62,5.58-12.94,8.36C86.08,56,64.94,69.69,43.64,83.06,39.86,85.44,36,88.2,32.12,91,24,96.81,15.69,102.81,7,106ZM191.11,78.43h-5.82V64.83H207.9V59l7.76.65-1.3,5.18h22v13.6h-5.81V70.66H191.11Zm84.12-6.19c1.56,2.41-2.12,9.27-2.91,12-4,14.12-11,25.25-25,31.09l-3.88-6.47c4.37-1.5,17.72-7.49,16.45-13.58-.52-2.48-4.23-4.46-6.11-5.86l3.87-5.18h.65l5.81,4.53,3.23-13c-2.39,0-6-.67-8,1-5.43,4.78-6.66,18.65-15.92,11.91l8.84-13.6L257.65,59l7.11,1.94v1.3L260.88,70C265.13,70,272.5,68,275.23,72.24ZM299,89.44v.65l-4.52,4.53h-.65l-7.75-7.77V116h-6.46V59.65l7.75.64c-1.36,4.38-3,13.12-.63,17.38C289.19,82.11,295.4,85.84,299,89.44Zm-84.64,19.44h23.26v5.18H184v-5.18h23.9v-5.19H191.11V98.51H207.9V93.33l-16.15,1.94-1.93-7.12c7.47,0,10-2.17,14.85-7.77H193V75.19h36.19v5.19L213.1,81l-6.49,6.46,12.92-.65-1.93-3.24c6.49-4.45,13.74,3.49,16.15,9.72-5.59,3-5.14.16-10.34-1.09-2.8-.67-6.17.42-9,.44v5.83h16.16v5.18H214.36Z"/>
</svg>
