<svg id="fire_f8" fill="currentColor" viewBox="0 0 291.69 249" xmlns="http://www.w3.org/2000/svg">
<path d="M124.15,60.83c8.86,10.22,7.91,27.43,7.11,42-.22,3.95-.43,7.72-.43,11.1V249H.75V114c0-3.24-.17-6.77-.35-10.47C-.32,88.66-1.17,71.32,8.6,60.93c9.58-10.2,25.7-9.61,39.59-9.11,2.89.11,5.69.21,8.31.21V0H232.41c0,21.66,8.57,40.5,17.22,59.5,5.83,12.82,11.7,25.72,15,39.6H199l28.5-76.8H78.8V52c2.4,0,5-.09,7.66-.19C99.7,51.36,115.45,50.8,124.15,60.83ZM264.62,237.91c-16.77,9.68-41.53,8.22-63.29,6.94-7-.41-13.69-.81-19.71-.81V121.4c5.95,0,12.45-.33,19.2-.67,23.16-1.17,49.41-2.5,67.52,8.69C302,150.22,297.92,218.67,264.62,237.91Zm-12.5-88.46c-9.06-7-22.91-6.48-34.91-6-2.92.12-5.73.23-8.34.23v78.05c2.66,0,5.51.14,8.45.28,10.78.52,22.83,1.11,31.19-4.8C265.47,205.22,269.47,162.94,252.12,149.45Z"/>
</svg>
