<?xml version="1.0" encoding="UTF-8"?><svg id="FixedTemperatureDetector" fill="currentColor" data-name="定溫探測器" xmlns="http://www.w3.org/2000/svg" viewBox="0 0 288.68623 248.60971"><path d="M143.96655,248.60971c-.0293,0-.05908,0-.08838-.00098l-6.63965-.19727c-.04395-.00195-.0874-.00391-.13086-.00684l-6.68848-.49121c-50.88281-4.9668-95.74219-36.85547-117.14453-83.22852l-2.68555-6.21484c-.01855-.04199-.03613-.08496-.05225-.12891l-2.36084-6.24609C-8.03883,105.66537,.16723,54.87729,30.10131,16.16586l4.21289-5.25488c.03564-.04492,.07324-.08887,.11182-.13184l4.4751-4.96729c.0249-.02686,.0498-.05371,.0752-.07959L43.64819,.91293c.28857-.29834,.62451-.52344,.98389-.67529,.33252-.14111,.69531-.22363,1.07617-.23535h.00684c.0332-.00146,.06494-.00342,.09961-.00146H243.45922c1.41211,0,2.59668,.97559,2.91504,2.29004l3.81348,3.93359c.03223,.03369,.06445,.06787,.0957,.10303l4.42578,5.01611c.02148,.02539,.04297,.05078,.06445,.07666,18.13867,21.99902,29.49609,47.99609,32.84668,75.17969,3.15137,25.56201-.7168,51.69727-11.18555,75.5791-10.47266,23.89258-27.08203,44.45801-48.03027,59.47363-22.27539,15.96582-49.10352,25.23535-77.58398,26.80469l-6.7876,.15137c-.02197,.00098-.04395,.00098-.06641,.00098Zm-6.48584-6.19434l6.49805,.19336,6.61035-.14551c53.93066-2.97461,98.95801-33.88965,120.35059-82.69336,21.37402-48.76123,13.6123-102.77344-20.7627-144.49365l-4.34668-4.92676-4.21582-4.34863H47.07201l-3.75,3.86816-4.38086,4.8623-4.12646,5.146C6.16039,56.9349-1.7024,105.61166,13.8142,150.04526l2.31006,6.10938,2.62842,6.08398c20.48291,44.37891,63.47852,74.94238,112.17773,79.69727l6.55029,.47949Z"/></svg>