<svg id="fullscreen" viewBox="0 0 328 328" fill="currentColor" xmlns="http://www.w3.org/2000/svg">
<path d="M111.344 139.25L139.25 111.328L90.476 62.5085L121.119 32H32.0722L32 120.97L62.4363 90.311L86.8903 114.781L111.344 139.25ZM265.564 237.685L216.647 188.75L188.75 216.668L237.524 265.492L206.89 296H295.936L296 207.03L265.564 237.685ZM216.672 139.25L265.487 90.476L296 121.114V32.0784L207.036 32L237.693 62.4425L188.75 111.349L216.672 139.25ZM111.324 188.75L62.5085 237.53L32 206.888V295.932L120.97 296L90.311 265.564L139.25 216.656L111.324 188.75Z"/>
</svg>
