<svg id="gender" data-name="性別" xmlns="http://www.w3.org/2000/svg" viewBox="0 0 39.17 33.61" fill="currentColor"><path class="cls-1" d="M18.49,26.23H11.23V23.12a9.19,9.19,0,1,0-2.58,0v3.11H1.71a1.29,1.29,0,0,0,0,2.58H8.65v6a1.29,1.29,0,0,0,2.58,0v-6h7.26a1.29,1.29,0,1,0,0-2.58ZM3.33,14a6.62,6.62,0,1,1,6.61,6.62A6.62,6.62,0,0,1,3.33,14Z" transform="translate(-0.42 -3.28)"/><path class="cls-1" d="M31.58,18.58V8.51l3.48,4.63a1.28,1.28,0,0,0,1,.52,1.35,1.35,0,0,0,.78-.26,1.29,1.29,0,0,0,.25-1.81L31.28,3.8a1.29,1.29,0,0,0-1.81-.26l-.07.06A1.3,1.3,0,0,0,29,4l-5.64,7.52a1.29,1.29,0,0,0,.26,1.81,1.23,1.23,0,0,0,.77.26,1.28,1.28,0,0,0,1-.52L29,8.24V18.61a9.18,9.18,0,1,0,2.58,0ZM30.39,34.3A6.61,6.61,0,1,1,37,27.69,6.62,6.62,0,0,1,30.39,34.3Z" transform="translate(-0.42 -3.28)"/></svg>