<svg id="graphic-control-return" data-name="圖層 1" xmlns="http://www.w3.org/2000/svg" viewBox="0 0 32.79 38.99" fill="currentColor"><path class="cls-1" d="M31.21.53H13A4.9,4.9,0,0,0,8.13,5.41v8.72a3.16,3.16,0,0,0-2.9-1.33c-1.29.15-1.92,1.11-1.92,3,0,4.31,0,8.62,0,12.93a8.27,8.27,0,0,0,2.24,5.87c.84.89,1.69,1.78,2.58,2.61a8,8,0,0,0,10.75.47c2.28-1.87,4.39-3.93,6.55-5.93A2.37,2.37,0,0,0,26,28.81a10.78,10.78,0,0,0-1.65-2,7,7,0,0,0,.28-.8h6.57a4.9,4.9,0,0,0,4.88-4.89V5.41A4.89,4.89,0,0,0,31.21.53ZM21.46,28.79a1,1,0,0,0,1-.07,1.49,1.49,0,0,1,2.06.18A1.56,1.56,0,0,1,24.25,31c-1.86,1.7-3.7,3.42-5.6,5.07C15.45,38.87,12.1,38.88,9,36,7.34,34.59,5.58,33.18,5,30.92a10.91,10.91,0,0,1-.33-2.34c0-2.06,0-4.11,0-6.17,0-2.32,0-4.64,0-7,0-.4.2-1,.48-1.13a1.66,1.66,0,0,1,1.43,0,3.34,3.34,0,0,1,.82,1.71c.41,2.21.7,4.44,1.09,6.65a1.62,1.62,0,0,0,.59,1c.18.1.71-.25,1-.5Q15.36,18,20.61,12.7a1.58,1.58,0,0,1,2.28-.3,1.31,1.31,0,0,1,.44,1,2.13,2.13,0,0,1-.69,1.23c-2.28,2.32-4.58,4.62-6.87,6.92-.24.24-.5.47-.48.76a.63.63,0,0,0,.2.51c.47.51.84.12,1.18-.2.88-.85,1.73-1.73,2.61-2.57s1.57-.82,2.18-.22a1.39,1.39,0,0,1,.41,1A2,2,0,0,1,21.25,22c-.84.86-1.69,1.69-2.53,2.54-.23.24-.46.48-.43.77a.61.61,0,0,0,.22.52c.49.49.83.05,1.17-.26.49-.44.95-.92,1.46-1.34a1.24,1.24,0,0,1,1.86.13,1.45,1.45,0,0,1,.42.87,1.47,1.47,0,0,1-.31.82h.08a1.86,1.86,0,0,1-.14.2c-.42.51-1,.9-1.37,1.43A1,1,0,0,0,21.46,28.79Zm9.11-7.23c-1.26,0-2.18,0-3.44,0-.46,0-1.42,0-1.28-.7a.82.82,0,0,1,.67-.64,23.35,23.35,0,0,1,2.64,0L26.79,18c-.47.34-1,.75-1.54,1.08-.74.45-1.19.27-1.35.06-.45-.61.21-.88.65-1.16a5.27,5.27,0,0,0-2.1-9.82,5.14,5.14,0,0,0-5.09,2.6,2,2,0,0,0-.25.42c-.1.27-.29.46-.87.4a.76.76,0,0,1-.26-1,19.2,19.2,0,0,1,1.4-2.17l-2.3-2.31V8.57c0,.48,0,1-.64,1s-.61-.54-.63-.9a38.23,38.23,0,0,1-.06-4,1.26,1.26,0,0,1,.91-.89c1.29,0,2.78,0,4.1.08.34,0,.87,0,.84.66s-.36.56-.71.61c-.74.09-3.18,0-3.18,0,.72.65,1.91,1.7,2.66,2.31a.73.73,0,0,0,.63,0,6.79,6.79,0,0,1,7,.72l3.12-3c-.91,0-1.66,0-2.39,0-.48,0-.91-.1-.93-.61s.63-.7,1-.73c1.26-.08,2.52,0,3.78,0,.69,0,1,.28,1,1,0,1.32,0,2.65,0,4,0,.31,0,.79-.67.88-.54-.07-.6-.51-.62-.84-.05-.78,0-1.52,0-2.19l-2.87,3a7.21,7.21,0,0,1,1.12,5.52c0,.07-.74,1.9-.74,1.9.62.55,1.39,1.19,2,1.83.07.06.16.1.44.28a21.82,21.82,0,0,1,0-2.58.78.78,0,0,1,.61-.65c.69-.12.73.87.73,1.4,0,1.22,0,2.06,0,3.29C31.6,21.29,31.26,21.56,30.57,21.56Z" transform="translate(-3.31 -0.53)"/></svg>