<svg id="graphic-control-system" data-name="圖控系統" xmlns="http://www.w3.org/2000/svg" viewBox="0 0 38.4 30.86" fill="currentColor"><path class="cls-1" d="M34.2,29.65H4.2V5.94c0-1.32.31-1.62,1.64-1.62H32.55c1.36,0,1.65.3,1.65,1.68V29.65ZM31.78,5.74H6.67V28.57H31.78Z" transform="translate(-0.6 -4.32)"/><path class="cls-1" d="M16.17,30.85c0,.79-1.82,1.42-1.8,2.13H24.74c0-.65-1.33-1.32-1.29-2a2.29,2.29,0,0,1,.44-.09h13.7c.94,0,1.42.79,1.41,2.22,0,1.18-.43,2-1.08,2.08a4.56,4.56,0,0,1-.64,0H2.11c-1,0-1.5-.69-1.51-2.13s.49-2.19,1.55-2.19h14Z" transform="translate(-0.6 -4.32)"/><path class="cls-1" d="M24.93,26.27a.68.68,0,0,1-.56-.3L15.7,12l-.47,9a.65.65,0,0,1-.65.62h-4a.65.65,0,0,1,0-1.3H14l.54-10.49A.65.65,0,0,1,15,9.3a.63.63,0,0,1,.71.28l8.57,13.78V13.18a.65.65,0,0,1,.65-.65h4a.65.65,0,0,1,0,1.3H25.57v11.8a.64.64,0,0,1-.47.62A.52.52,0,0,1,24.93,26.27Z" transform="translate(-0.6 -4.32)"/><circle class="cls-1" cx="14.87" cy="6.49" r="2.23"/><circle class="cls-1" cx="24.35" cy="20.99" r="2.23"/><circle class="cls-1" cx="10.56" cy="16.83" r="2.23"/><circle class="cls-1" cx="27.87" cy="8.71" r="2.23"/></svg>