<svg id="graphic-control-edit" data-name="圖控編輯" xmlns="http://www.w3.org/2000/svg" viewBox="0 0 38.94 31.35" fill="currentColor"><path class="cls-1" d="M16.34,31.3c0,.79-1.84,1.43-1.82,2.15H25c0-.66-1.35-1.33-1.31-2.06a2.65,2.65,0,0,1,.44-.09c4.63,0,9.27,0,13.9,0,1,0,1.44.8,1.43,2.25,0,1.2-.43,2-1.1,2.11a4.56,4.56,0,0,1-.64,0H2.1c-1,0-1.53-.7-1.54-2.15s.5-2.23,1.58-2.23c3.07,0,6.14,0,9.22,0Z" transform="translate(-0.56 -4.33)"/><path class="cls-1" d="M34.64,30H4.21V6c0-1.34.31-1.65,1.67-1.65H33c1.38,0,1.68.31,1.68,1.7V30ZM32.18,5.77H6.71V28.92H32.18Z" transform="translate(-0.56 -4.33)"/><path class="cls-1" d="M10.78,10.27c.31-.73.45-.82,1.28-.82h9.31a10.84,10.84,0,0,0-1,1,2,2,0,0,1-1.91.79c-1.82-.06-3.65,0-5.47,0h-.46V24.5H25.83v-.45c0-2.1,0-4.2,0-6.3a1,1,0,0,1,.26-.6c.44-.5.92-1,1.48-1.53V16c0,3,0,6,0,9a1.11,1.11,0,0,1-.79,1.21H11.58a1.41,1.41,0,0,1-.8-.79Z" transform="translate(-0.56 -4.33)"/><path class="cls-1" d="M28.54,11.46,27.19,13,24.14,9.93a14.91,14.91,0,0,1,1.22-1.3.73.73,0,0,1,1,0c.68.64,1.33,1.31,2,2a1.85,1.85,0,0,1,.21.33Z" transform="translate(-0.56 -4.33)"/><path class="cls-1" d="M19.19,20.87l-3.07-3,7-7,3.05,3Z" transform="translate(-0.56 -4.33)"/><path class="cls-1" d="M15.2,18.82l3,3-3.91.88Z" transform="translate(-0.56 -4.33)"/></svg>