<svg id="helper" data-name="小幫手" xmlns="http://www.w3.org/2000/svg" viewBox="0 0 39 37.18" fill="currentColor"><path class="cls-1" d="M9.84,30.65" transform="translate(-0.5 -1.57)"/><path class="cls-1" d="M39.5,19.16A17.59,17.59,0,0,0,5.06,14.1,6.31,6.31,0,0,0,.5,20.38c0,3.55,2.6,6.43,5.82,6.43h.22v-11A15.73,15.73,0,1,1,25.46,34.48a4.11,4.11,0,0,0-2.8-1c-2,0-3.57,1.18-3.57,2.63s1.6,2.64,3.57,2.64,3.5-1.13,3.57-2.54A17.61,17.61,0,0,0,39.5,19.16Z" transform="translate(-0.5 -1.57)"/><path class="cls-1" d="M21.91,6.34A12.82,12.82,0,1,0,34.72,19.16,12.82,12.82,0,0,0,21.91,6.34Zm5.73,6.31a2.25,2.25,0,1,1-2.25,2.24A2.24,2.24,0,0,1,27.64,12.65ZM17,12.65a2.25,2.25,0,1,1-2.25,2.24A2.24,2.24,0,0,1,17,12.65Zm5.15,15.12c-4.45,0-8.07-3.26-8.07-7.26a.65.65,0,1,1,1.29,0c0,3.29,3,6,6.78,6s6.78-2.68,6.78-6a.65.65,0,1,1,1.29,0C30.2,24.51,26.58,27.77,22.13,27.77Z" transform="translate(-0.5 -1.57)"/></svg>