<svg id="inspect" data-name="例行檢查" xmlns="http://www.w3.org/2000/svg" viewBox="0 0 36.46 37.81" fill="currentColor"><rect class="cls-1" x="11.06" y="11.99" width="12.16" height="0.97"/><rect class="cls-1" x="11.06" y="18.05" width="7.17" height="0.97"/><rect class="cls-1" x="11.06" y="24.11" width="7.53" height="0.97"/><rect class="cls-1" x="11.06" y="30.18" width="7.65" height="0.97"/><path class="cls-1" d="M29.93,14.6V4.13H22.75V1.54h-13V4.13H1.69V39.35H29.93v-5.2H28v3.26H3.63V6.06H9.78V8h13V6.06H28V14.6Z" transform="translate(-1.69 -1.54)"/><path class="cls-1" d="M5.22,13.56c.15-.19.86-.73,1.09-1L7.75,14.2a18.34,18.34,0,0,0,1.66-1.87c.55-.62,1.07-1.39,1.59-2,.25.27,1,.87,1.25,1.16A27,27,0,0,0,7.8,15.92,14.13,14.13,0,0,0,5.22,13.56Z" transform="translate(-1.69 -1.54)"/><path class="cls-1" d="M5.22,20.43c.15-.19.86-.72,1.09-1l1.44,1.67A17.43,17.43,0,0,0,9.41,19.2c.55-.62,1.07-1.38,1.59-2,.25.27,1,.87,1.25,1.16A27,27,0,0,0,7.8,22.8,14.16,14.16,0,0,0,5.22,20.43Z" transform="translate(-1.69 -1.54)"/><path class="cls-1" d="M5.22,26.81c.15-.19.86-.73,1.09-1l1.44,1.67a18.34,18.34,0,0,0,1.66-1.87c.55-.62,1.07-1.39,1.59-2,.25.27,1,.87,1.25,1.16A27,27,0,0,0,7.8,29.17,14.13,14.13,0,0,0,5.22,26.81Z" transform="translate(-1.69 -1.54)"/><path class="cls-1" d="M5.22,32.56c.15-.19.86-.73,1.09-1L7.75,33.2a18.34,18.34,0,0,0,1.66-1.87c.55-.62,1.07-1.39,1.59-2,.25.27,1,.87,1.25,1.16A27,27,0,0,0,7.8,34.92,14.13,14.13,0,0,0,5.22,32.56Z" transform="translate(-1.69 -1.54)"/><path class="cls-1" d="M23.42,24.84c.21-.28,1.27-1.07,1.6-1.51l2.13,2.46A24.66,24.66,0,0,0,29.6,23c.82-.92,1.59-2.05,2.35-3,.38.4,1.44,1.29,1.85,1.72-2.51,2.25-5,4.18-6.58,6.54A20.51,20.51,0,0,0,23.42,24.84Z" transform="translate(-1.69 -1.54)"/><path class="cls-1" d="M34.93,19.79a7.53,7.53,0,1,0-2.75,11l.47.74c-.31.56.35,2.15.74,2.71l1.45,1.94a1.73,1.73,0,0,0,2.4.43l.18-.12a1.74,1.74,0,0,0,.43-2.41l-1.44-1.93c-.35-.49-1.56-1.64-2.35-1.51l-.52-.82A7.5,7.5,0,0,0,34.93,19.79Zm-11.48,8a6.45,6.45,0,1,1,9,1.62A6.45,6.45,0,0,1,23.45,27.76Z" transform="translate(-1.69 -1.54)"/></svg>