<svg id="mail" data-name="mail" xmlns="http://www.w3.org/2000/svg" viewBox="0 0 38.95 30.15" fill="currentColor"><path class="cls-1" d="M37.12,4.76H3.1A2.48,2.48,0,0,0,.63,7.23V32.45A2.48,2.48,0,0,0,3.1,34.92h34a2.47,2.47,0,0,0,2.46-2.47V7.23A2.47,2.47,0,0,0,37.12,4.76ZM22.48,20.59A2.91,2.91,0,0,1,19,20.14L4.84,7.36h30C31.1,11.86,24.6,19.47,22.48,20.59Zm-9.3-3.05L3.23,31V8.53Zm1.45,1.31,2.92,2.64A4.94,4.94,0,0,0,21,22.93a5.07,5.07,0,0,0,2.4-.62,18.45,18.45,0,0,0,3.46-3l8.65,13H4.67Zm13.74-1.07c3.23-3.46,6.9-7.9,8.62-10V30.7Z" transform="translate(-0.63 -4.76)"/></svg>