<svg id="maintain" viewBox="0 0 300 300" fill="currentColor" xmlns="http://www.w3.org/2000/svg">
<path d="M36.7284 262.837L36.7395 262.858C37.3407 263.998 38.8718 265.363 40.6835 266.23C41.8491 266.767 42.832 267.195 53.8621 267.375C64.7837 267.554 85.1467 267.512 124.682 267.427L36.7284 262.837ZM36.7284 262.837L36.7168 262.816L36.7112 262.806C36.6091 262.622 36.3713 262.193 36.1718 259.805C35.9691 257.379 35.8235 253.244 35.7226 245.817C35.5213 230.996 35.5 203.358 35.5 150.767C35.5 96.0212 35.5001 68.4296 35.712 54.1488C35.8183 46.9823 35.9774 43.2706 36.202 41.1824C36.313 40.1498 36.4302 39.6188 36.5253 39.3123C36.6036 39.0599 36.6789 38.9112 36.8506 38.6118C37.6214 37.3506 39.447 35.6683 40.8937 34.9461C40.9051 34.9406 40.9165 34.935 40.928 34.9295C41.9794 34.4196 42.8899 33.978 53.7341 33.7573C64.579 33.5366 84.9413 33.5154 124.689 33.5154L124.693 33.5153C157.125 33.4732 177.697 33.5154 190.55 33.6733C196.979 33.7523 201.453 33.8599 204.506 33.999C207.632 34.1414 209.032 34.3113 209.519 34.438C212.736 35.3562 214.962 37.2504 216.229 39.8094C217.521 42.4192 217.922 45.9466 216.993 50.2173L216.991 50.2245L216.989 50.2317C215.002 59.6298 208.358 71.8466 200.849 80.0009L200.962 77.5236C200.962 77.5226 200.963 77.5217 200.963 77.5208C201.034 76.1005 201.126 74.3413 201.227 72.4108C201.484 67.4978 201.798 61.4756 201.982 57.1075C201.982 57.1031 201.982 57.0987 201.982 57.0943L202.575 45.9057L202.715 43.2734H200.079H124.774H49.555H47.055V45.7734V150.767V255.76V258.26H49.555H125.878H202.201H204.378L204.677 256.104L205.696 248.767L205.697 248.76C207.82 233.152 209.423 222.845 210.78 216.454C211.464 213.236 212.057 211.152 212.572 209.916C212.657 209.712 212.733 209.548 212.798 209.418C212.954 209.436 213.124 209.458 213.305 209.483C213.955 209.571 214.708 209.689 215.389 209.807L216.067 209.955L215.832 234.737L215.586 260.526L214.147 262.127C213.156 263.091 210.817 264.748 208.947 265.642L208.938 265.646C208.152 266.01 207.643 266.246 206.119 266.454C204.425 266.686 201.601 266.859 196.231 266.985C185.548 267.237 165.244 267.301 124.821 267.427L124.684 267.427L36.7284 262.837Z"/>
<path d="M76.563 222.8C80.7647 218.236 88.6639 209.783 94.126 204.035C103.202 194.398 104.294 193.553 106.395 194.144C108.58 194.652 108.664 194.821 108.664 201.245C108.664 206.401 109.084 208.599 110.513 211.558C113.874 218.236 117.319 219.504 136.815 221.617C147.235 222.716 149 223.646 149 227.788V231H109H69L76.563 222.8Z" />
<path d="M156.535 224.908C154.07 224.655 153.73 224.318 154.155 222.801C154.325 221.79 156.28 213.109 158.404 203.586C166.477 167.346 169.536 160.435 199.874 109.7C207.607 96.7208 216.529 81.5507 219.589 75.9883C229.701 58.037 235.565 54.4131 247.801 58.5427C254.6 60.9025 265.137 67.8133 266.412 70.7631C268.026 74.6399 266.752 77.7582 257.064 93.6868C252.305 101.609 243.128 117.285 236.669 128.662C214.235 168.357 203.868 184.286 193.415 195.074C187.212 201.563 162.228 223.812 160.189 224.824C159.764 224.992 158.064 225.077 156.535 224.908Z"/>
<path d="M83.5598 177.598C80.7391 176.997 77.6696 173.562 76.6741 169.611C75.4296 164.888 75.7615 163.6 78.914 161.367C81.4028 159.649 104.051 149 105.296 149C105.627 149 112.181 152.951 119.897 157.76L134 166.434L131.345 167.636C119.067 172.961 112.513 174.85 100.982 176.482C88.7863 178.199 87.0442 178.285 83.5598 177.598Z"/>
<path d="M91.061 135.552C85.3429 134.965 85.2589 134.881 80.1294 129.851L75 124.737L78.6999 120.713C85.2589 113.587 83.9975 113.922 109.392 113.252C121.922 112.916 139.664 112.916 148.914 113.252L165.732 113.922L171.366 119.791L177 125.659L172.207 129.851C169.6 132.198 166.489 134.462 165.312 134.965C162.957 135.971 100.815 136.39 91.061 135.552Z"/>
<path d="M83.563 88.4403C79.6173 88.0256 78.5259 87.5281 76.9309 85.5379L75 83.133L79.1136 79.4843C86.5012 72.7673 84.4864 73.099 120.249 73.0161C137.795 72.9331 155.509 73.1819 159.706 73.5136L167.262 74.0112L172.131 79.3184L177 84.6257L173.474 86.2012C171.123 87.1964 166.506 87.9427 159.37 88.4403C147.785 89.1866 91.2864 89.1866 83.563 88.4403Z"/>
</svg>
