<svg id="maintenance" data-name="維護保養-管" xmlns="http://www.w3.org/2000/svg" viewBox="0 0 37.17 38.32" fill="currentColor"><rect class="cls-1" x="4.8" y="5.64" width="20.17" height="1.68"/><rect class="cls-1" x="4.8" y="10.69" width="12.01" height="1.68"/><rect class="cls-1" x="4.8" y="15.62" width="9.72" height="1.68"/><rect class="cls-1" x="4.8" y="20.66" width="10.14" height="1.68"/><path class="cls-1" d="M38.62,20.41A10.71,10.71,0,0,0,28.23,9.62c-5.95-.1-10.91,5-10.64,10.32-.43,5.55,4.28,10.53,10,10.75a10.29,10.29,0,0,0,2.69-.25v6.35S17.67,30.22,12.39,27.1c0,1.22,0,2,0,2.8-.1,2.2-1,4.23-4.5,4.57-3.47-.34-4.94-2.71-4.95-4.06,0-6.6,0-28,0-28H30.33V7.93l1.48.75V.93H1.54S1.42,23,1.46,30.18c0,3.16,2.4,5.63,6,6.15,3.37.5,18.33,2.48,22.38,2.9,1.58.16,1.91-.34,2-1.76,0-.09,0-3.15,0-7.46A10.68,10.68,0,0,0,38.62,20.41ZM26.16,25.49l-4.35-4.75L23,19.39l3.06,3A33.89,33.89,0,0,0,29.58,19c1.18-1.11,2.3-2.28,3.39-3.36l1.59,1.41Z" transform="translate(-1.45 -0.93)"/></svg>