<svg id="maintenance-records" data-name="圖層 1" xmlns="http://www.w3.org/2000/svg" viewBox="0 0 35.66 38" fill="currentColor"><path class="cls-1" d="M10.85,4.84V2.76c1,0,1.85.05,2.74,0a2.51,2.51,0,0,0,1.26-.41,8.8,8.8,0,0,1,10.34,0,2.2,2.2,0,0,0,1.17.38c.9.06,1.8,0,2.82,0V4.84h2.87c3.53,0,5.78,1.91,5.78,4.88v24c0,3-2.22,4.92-5.84,4.93q-12,0-24,0c-3.54,0-5.79-1.9-5.8-4.87,0-6.83,0-17.27,0-24.1,0-3,2.28-4.83,5.82-4.85Zm0,3H8.37c-2.06,0-2.66.51-2.66,2.25V33.43c0,1.78.62,2.3,2.73,2.3,5.22,0,10.44,0,15.65,0,2.65,0,5.29,0,7.93,0,1.53,0,2.23-.63,2.25-1.89s0-5.83,0-6.94q0-8.61,0-17.23A1.52,1.52,0,0,0,33,7.92a28,28,0,0,0-3.79,0v4H10.85Z" transform="translate(-2.18 -0.67)"/><line class="cls-1" x1="8.11" y1="16.4" x2="27.19" y2="16.4"/><rect class="cls-1" x="8.11" y="15.32" width="19.08" height="2.17"/><line class="cls-1" x1="8.11" y1="20.5" x2="27.19" y2="20.5"/><rect class="cls-1" x="8.11" y="19.41" width="19.08" height="2.17"/><line class="cls-1" x1="8.11" y1="24.59" x2="27.19" y2="24.59"/><rect class="cls-1" x="8.11" y="23.51" width="19.08" height="2.17"/><line class="cls-1" x1="8.11" y1="28.69" x2="27.19" y2="28.69"/><rect class="cls-1" x="8.11" y="27.6" width="19.08" height="2.17"/></svg>