<svg id="mechanicalVentilation" fill="currentColor" xmlns="http://www.w3.org/2000/svg" viewBox="0 0 34.92969 33.70996"><path d="M32.46973,33.71H2.46A2.46272,2.46272,0,0,1,0,31.25V2.46A2.46273,2.46273,0,0,1,2.46,0H32.46973a2.46273,2.46273,0,0,1,2.46,2.46V31.25A2.46272,2.46272,0,0,1,32.46973,33.71ZM2.54,31.1709H32.39062V2.54H2.54Z"/><path d="M26.46,29.34c-1.52,0-2.25-.83-2.25-2.41V17.14l-4.37,8.77a2.48,2.48,0,0,1-2.39,1.46,2.45,2.45,0,0,1-2.41-1.46l-4.44-8.9v10c0,1.59-.83,2.38-2.49,2.38-1.51-.05-2.24-.88-2.24-2.48V8.71c0-1.59.72-2.38,2.21-2.38A2.61,2.61,0,0,1,10.6,7.75l6.79,13.32L24.18,7.75a2.37,2.37,0,0,1,2.25-1.42,2.14,2.14,0,0,1,2.45,2.38V26.96a2.14,2.14,0,0,1-2.42,2.38Z"/></svg>