<svg id="menu" data-name="menu" xmlns="http://www.w3.org/2000/svg" viewBox="0 0 35.69 38.88" fill="currentColor"><path class="cls-1" d="M27.83,8.53H7A1,1,0,0,1,7,6.61H27.83a1,1,0,1,1,0,1.92Z" transform="translate(-2.14 -0.57)"/><path class="cls-1" d="M27.83,14.82H7a1,1,0,0,1,0-1.93H27.83a1,1,0,0,1,0,1.93Z" transform="translate(-2.14 -0.57)"/><path class="cls-1" d="M16.09,22.13H7.27a1,1,0,0,1,0-1.92h8.82a1,1,0,0,1,0,1.92Z" transform="translate(-2.14 -0.57)"/><path class="cls-1" d="M37.67,32.56c-.42-.8-.85-1.59-1.29-2.35a1.2,1.2,0,0,0-1-.63,9.21,9.21,0,0,0-.6-3.07,28.07,28.07,0,0,0-1.29-3V2.65A2.08,2.08,0,0,0,31.46.57H4.21A2.08,2.08,0,0,0,2.14,2.65V27.77a2.07,2.07,0,0,0,2.07,2.07H19.54A6.1,6.1,0,0,0,23,34.42l1.79.93.09,0a1.42,1.42,0,0,0,.19,1.34l.35.65c.25.46.5.91.76,1.36a1.23,1.23,0,0,0,1.1.71,1.46,1.46,0,0,0,.73-.2l.88-.48L31,37.62l6.08-3.34A1.24,1.24,0,0,0,37.67,32.56ZM3.42,27.77V2.65a.79.79,0,0,1,.79-.79H31.46a.79.79,0,0,1,.79.79V21.13c-.14-.25-.28-.5-.43-.75a7.72,7.72,0,0,0-.93-1.24,2,2,0,0,0-2.39-.51,4,4,0,0,0-.55.28l-.22-.17a2.43,2.43,0,0,0-2.9.39c-.09.08-.15.13-.19.13a1.66,1.66,0,0,0-1,.18l-1,.53c-.24-.44-.49-.9-.75-1.35l-.21-.37c-.34-.6-.69-1.23-1.08-1.83a2.27,2.27,0,0,0-4.05,1.23,3.14,3.14,0,0,0,.31,1.43c1.05,2,2.15,4.08,3.22,6.07l.14.26a3,3,0,0,0-1,3,1.06,1.06,0,0,1,0,.19H4.21A.79.79,0,0,1,3.42,27.77Z" transform="translate(-2.14 -0.57)"/></svg>