<svg id="missing-content" data-name="缺失內容" xmlns="http://www.w3.org/2000/svg" viewBox="0 0 33.64 37.97" fill="missing-content"><path class="cls-1" d="M30,.86H7.39A3.06,3.06,0,0,0,4.33,3.91V35.78a3.06,3.06,0,0,0,3.06,3H34.92a3.06,3.06,0,0,0,3.06-3V9.18Zm-.43,2.5,6.26,6.57H29.61Zm5.31,33.43H7.39a1,1,0,0,1-1-1V3.91a1,1,0,0,1,1-1H27.57V12h8.37V35.78A1,1,0,0,1,34.92,36.79Z" transform="translate(-4.33 -0.86)"/><path class="cls-1" d="M20.07,9.91a7.33,7.33,0,0,1,5.15,1.73,6,6,0,0,1,.72,8.28c-.59.75-1.29,1.41-1.94,2.1-.48.51-1,1-1.45,1.5a3.88,3.88,0,0,0-1,2.3c0,.14,0,.28-.06.42a1.58,1.58,0,0,1-1.68,1.53,1.68,1.68,0,0,1-1.67-1.58,5.69,5.69,0,0,1,1.23-4.46c.72-.87,1.54-1.65,2.32-2.47.31-.32.63-.63.92-1A2.87,2.87,0,0,0,21,13.48c-2-.41-3.57.69-4.24,3a7.33,7.33,0,0,1-.31,1,1.69,1.69,0,0,1-2.08,1,2,2,0,0,1-1.39-2,6.47,6.47,0,0,1,2.48-4.89A6.91,6.91,0,0,1,20.07,9.91Z" transform="translate(-4.33 -0.86)"/><path class="cls-1" d="M19.92,34.12a2.44,2.44,0,0,1-2.32-2.56A2.49,2.49,0,0,1,19.93,29a2.48,2.48,0,0,1,2.32,2.58A2.44,2.44,0,0,1,19.92,34.12Z" transform="translate(-4.33 -0.86)"/></svg>