<svg id="move" data-name="移動" xmlns="http://www.w3.org/2000/svg" viewBox="0 0 38.04 38.33" fill="currentColor"><path class="cls-1" d="M22.62,32.37H27c-2.3,2.28-4.63,4.61-7,7l-6.71-6.94h4.43V25.22h4.9Z" transform="translate(-1.13 -1)"/><path class="cls-1" d="M8,22.55V26.9L1.13,20.1l6.76-6.65v4.2h7.23v4.9Z" transform="translate(-1.13 -1)"/><path class="cls-1" d="M22.68,15.19H17.8V8H13.12l7.07-7,7.1,6.91H22.68Z" transform="translate(-1.13 -1)"/><path class="cls-1" d="M25.17,17.69h7.19V13.38c2.29,2.38,4.56,4.76,6.81,7.11l-6.72,6.57V22.62H25.17Z" transform="translate(-1.13 -1)"/><rect class="cls-1" x="16.47" y="16.63" width="5.14" height="5.14"/></svg>