<svg id="mul-event-records" data-name="多筆紀錄" xmlns="http://www.w3.org/2000/svg" viewBox="0 0 36.66 37.45" fill="currrentColor"><polygon class="cls-1" points="9.87 18.45 13.81 23.89 6.25 24.93 9.87 18.45"/><rect class="cls-1" x="12.5" y="12.51" width="21.69" height="6.57" rx="0.63" ry="0.63" transform="matrix(0.82, -0.58, 0.58, 0.82, -6.83, 15)"/><rect class="cls-1" x="32.43" y="4.44" width="5.1" height="6.38" rx="0.61" ry="0.61" transform="translate(0.01 20.21) rotate(-35.25)"/><path class="cls-1" d="M25.18,20.83v9.72H3.91V8.35a12,12,0,0,0,3.28.05A2.63,2.63,0,0,0,9.52,5.9c0-.91,0-1.82,0-2.74H25.18v5.2L27.1,6.92V4.22a2.66,2.66,0,0,0-1.66-2.6,5.53,5.53,0,0,0-.72-.24H8.35l-.29.29C6.12,3.49,4.18,5.32,2.26,7.15A.8.8,0,0,0,2,7.68Q2,18.62,2,29.55a2.74,2.74,0,0,0,3,2.78q9.6,0,19.2,0a3.21,3.21,0,0,0,.69,0,2.69,2.69,0,0,0,2.26-2.72c0-1.81,0-3.61,0-5.42V19.5Z" transform="translate(-2 -1.38)"/><path class="cls-1" d="M28.65,18.22V33.78H7.34v-.69H5.47c0,.15,0,.27,0,.39a2.84,2.84,0,0,0,3,2.11h19a2.77,2.77,0,0,0,3.07-2.9V16.85Z" transform="translate(-2 -1.38)"/><path class="cls-1" d="M32.08,16.32V37H10.81l-.05-.69H8.93A2.19,2.19,0,0,0,9.71,38a11.6,11.6,0,0,0,1.51.83h20.4s0,0,.07,0A2.73,2.73,0,0,0,34,35.87V14.74Z" transform="translate(-2 -1.38)"/></svg>