<svg id="notCategorized" fill="currentColor" xmlns="http://www.w3.org/2000/svg" viewBox="0 0 36.51953 36.23926"><path d="M14.83008,17.23H2.3999A2.40271,2.40271,0,0,1,0,14.83008V2.3999A2.40271,2.40271,0,0,1,2.3999,0H14.83008A2.40271,2.40271,0,0,1,17.23,2.3999V14.83008A2.40271,2.40271,0,0,1,14.83008,17.23Zm-12.29-2.54h12.1499V2.54H2.54Z"/><path d="M34.12012,17.23H21.69043A2.4025,2.4025,0,0,1,19.29,14.83008V2.3999A2.4025,2.4025,0,0,1,21.69043,0H34.12012a2.40229,2.40229,0,0,1,2.39941,2.3999V14.83008A2.40229,2.40229,0,0,1,34.12012,17.23Zm-12.291-2.54H33.98047V2.54H21.8291Z"/><path d="M14.83008,36.23926H2.3999A2.40229,2.40229,0,0,1,0,33.83984V21.41016a2.40229,2.40229,0,0,1,2.3999-2.39942H14.83008A2.40229,2.40229,0,0,1,17.23,21.41016V33.83984A2.40229,2.40229,0,0,1,14.83008,36.23926ZM2.54,33.7002h12.1499V21.5498H2.54Z"/><path d="M34.12012,36.23926H21.69043A2.40208,2.40208,0,0,1,19.29,33.83984V21.41016a2.40208,2.40208,0,0,1,2.40039-2.39942H34.12012a2.40187,2.40187,0,0,1,2.39941,2.39942V33.83984A2.40187,2.40187,0,0,1,34.12012,36.23926ZM21.8291,33.7002H33.98047V21.5498H21.8291Z"/></svg>