<svg id="notice" data-name="notice" xmlns="http://www.w3.org/2000/svg" viewBox="0 0 36.48 36.65" fill="currentColor"><path class="cls-1" d="M37.79,23.46a14.58,14.58,0,0,1-5.86,8.29,1.76,1.76,0,0,1-2.57-.37,1.79,1.79,0,0,1,.5-2.49,11.51,11.51,0,0,0,4.42-6c1.2-4-.41-8.32-4.11-11.12A2.05,2.05,0,0,1,29.07,10,1.72,1.72,0,0,1,30,8.45a1.53,1.53,0,0,1,1.76.06A14.53,14.53,0,0,1,38,18.13,13.85,13.85,0,0,1,37.79,23.46Z" transform="translate(-1.7 -1.79)"/><path class="cls-1" d="M31.42,20.09a7.35,7.35,0,0,1-1.89,5.15,1.44,1.44,0,0,1-2,.47A1.65,1.65,0,0,1,27,23.5c.18-.35.42-.68.64-1a4,4,0,0,0,0-4.5A10.37,10.37,0,0,1,27,16.73a1.59,1.59,0,0,1,.58-2.06,1.41,1.41,0,0,1,2,.46A7.14,7.14,0,0,1,31.42,20.09Z" transform="translate(-1.7 -1.79)"/><path class="cls-1" d="M22.09,2.81c0-1.43-1.84-.94-2.06-.94C17.94,3.5,15.81,5.1,13.75,6.78c-2.46,2-4.87,4.09-7.32,6.11a2,2,0,0,1-.95.34,4.4,4.4,0,0,1-1,0A2.52,2.52,0,0,0,1.7,15V25.23a2.23,2.23,0,0,0,2.57,1.61A3.8,3.8,0,0,1,7.52,28c3.42,3.06,6.91,6,10.39,9a15.64,15.64,0,0,0,1.8,1.2,2.4,2.4,0,0,0,.91.24c1.05-.12,1.37-.69,1.54-2C22.2,36.12,22.09,3.5,22.09,2.81ZM19.14,9.17,7.94,18.75V15.12l11.2-9.35Z" transform="translate(-1.7 -1.79)"/></svg>