<svg id="personal-status" data-name="個人狀態" xmlns="http://www.w3.org/2000/svg" viewBox="0 0 36.73 38.11" currentColor="fill"><path class="cls-1" d="M38.32,31.71H6.22a2.72,2.72,0,0,0-2.71,3.48,2.69,2.69,0,0,0,2.66,1.94H38.29V39l-.55,0c-8.5,0-22.87,0-31.37,0a4.54,4.54,0,0,1-4.78-4.77V4.71A3.6,3.6,0,0,1,5.44.88c7.71,0,21.31,0,29,0a3.62,3.62,0,0,1,3.85,3.84v27ZM3.41,30.84c1.29-1,2.71-.93,4.11-.93h29V4.83c0-1.47-2.18-2.15-2.18-2.15H5.65s-2.24.66-2.24,2.24V30.84Z" transform="translate(-1.59 -0.88)"/><path class="cls-1" d="M5.22,35.32c0-.53,0-1,0-1.56,0-.09.15-.2.26-.24a1.39,1.39,0,0,1,.41,0H36.46v1.81Z" transform="translate(-1.59 -0.88)"/><circle class="cls-1" cx="17.97" cy="8.42" r="5.61"/><path class="cls-1" d="M30.55,26.86c-.75-4.47-2.39-8-5-10.43a23.6,23.6,0,0,0-2-1.49,18.52,18.52,0,0,1-2.46.91l-1,4.78-1-4.65a9.37,9.37,0,0,1-2.84-1l-.25.16q-5.31,3.33-6.68,11.71c-.14.88.11,1.33.72,1.33H29.85C30.4,28.19,30.69,27.66,30.55,26.86Z" transform="translate(-1.59 -0.88)"/></svg>