<svg id="phone" data-name="phone" xmlns="http://www.w3.org/2000/svg" viewBox="0 0 37.48 38.92" fill="currentColor"><path class="cls-1" d="M14.19,5.43H10V1.88a1.29,1.29,0,1,0-2.58,0V5.43H6.62A.55.55,0,0,0,6.07,6V33.15a.55.55,0,0,0,.55.55h7.57a.55.55,0,0,0,.55-.55V6A.55.55,0,0,0,14.19,5.43Z" transform="translate(-1.28 -0.58)"/><path class="cls-1" d="M36.93,9.13H16.05V35H4.67V9.13H3.11A1.84,1.84,0,0,0,1.28,11V37.67A1.83,1.83,0,0,0,3.11,39.5H36.93a1.84,1.84,0,0,0,1.83-1.83V11A1.84,1.84,0,0,0,36.93,9.13ZM21.69,34.43a.36.36,0,0,1-.36.36h-2a.37.37,0,0,1-.37-.36V32.57a.37.37,0,0,1,.37-.36h2a.36.36,0,0,1,.36.36Zm0-4.22a.36.36,0,0,1-.36.37h-2a.37.37,0,0,1-.37-.37V28.36a.37.37,0,0,1,.37-.36h2a.36.36,0,0,1,.36.36Zm0-4.21a.37.37,0,0,1-.36.37h-2A.38.38,0,0,1,19,26V24.15a.38.38,0,0,1,.37-.37h2a.37.37,0,0,1,.36.37Zm0-4.21a.37.37,0,0,1-.36.37h-2a.38.38,0,0,1-.37-.37V19.94a.38.38,0,0,1,.37-.37h2a.37.37,0,0,1,.36.37Zm4.53,12.64a.37.37,0,0,1-.37.36h-2a.36.36,0,0,1-.36-.36V32.57a.36.36,0,0,1,.36-.36h2a.37.37,0,0,1,.37.36Zm0-4.22a.37.37,0,0,1-.37.37h-2a.36.36,0,0,1-.36-.37V28.36a.36.36,0,0,1,.36-.36h2a.37.37,0,0,1,.37.36Zm0-4.21a.38.38,0,0,1-.37.37h-2a.37.37,0,0,1-.36-.37V24.15a.37.37,0,0,1,.36-.37h2a.38.38,0,0,1,.37.37Zm0-4.21a.38.38,0,0,1-.37.37h-2a.37.37,0,0,1-.36-.37V19.94a.37.37,0,0,1,.36-.37h2a.38.38,0,0,1,.37.37Zm4.59,12.64a.36.36,0,0,1-.37.36h-2a.36.36,0,0,1-.36-.36V32.57a.36.36,0,0,1,.36-.36h2a.36.36,0,0,1,.37.36Zm0-4.22a.36.36,0,0,1-.37.37h-2a.36.36,0,0,1-.36-.37V28.36a.36.36,0,0,1,.36-.36h2a.36.36,0,0,1,.37.36Zm0-4.21a.37.37,0,0,1-.37.37h-2a.37.37,0,0,1-.36-.37V24.15a.37.37,0,0,1,.36-.37h2a.37.37,0,0,1,.37.37Zm0-4.21a.37.37,0,0,1-.37.37h-2a.37.37,0,0,1-.36-.37V19.94a.37.37,0,0,1,.36-.37h2a.37.37,0,0,1,.37.37ZM35.4,34.43a.36.36,0,0,1-.36.36H33a.36.36,0,0,1-.37-.36V32.57a.36.36,0,0,1,.37-.36h2a.36.36,0,0,1,.36.36Zm0-4.22a.36.36,0,0,1-.36.37H33a.36.36,0,0,1-.37-.37V28.36A.36.36,0,0,1,33,28h2a.36.36,0,0,1,.36.36Zm0-4.21a.37.37,0,0,1-.36.37H33a.37.37,0,0,1-.37-.37V24.15a.37.37,0,0,1,.37-.37h2a.37.37,0,0,1,.36.37Zm0-4.21a.37.37,0,0,1-.36.37H33a.37.37,0,0,1-.37-.37V19.94a.37.37,0,0,1,.37-.37h2a.37.37,0,0,1,.36.37Zm.23-4.26H18.73V12h16.9Z" transform="translate(-1.28 -0.58)"/></svg>