<svg id="plc" data-name="plc" xmlns="http://www.w3.org/2000/svg" viewBox="0 0 38.25 29.71" fill="currentColor"><path class="cls-1" d="M8,13.44H7.46V17H4.37V5.18H8c3.72,0,5.6,1.37,5.6,4.07S11.73,13.44,8,13.44ZM9.92,8.23a2,2,0,0,0-1.28-.4H7.46v3H8.64a1.86,1.86,0,0,0,1.28-.42,1.4,1.4,0,0,0,.47-1.12A1.31,1.31,0,0,0,9.92,8.23Z" transform="translate(-0.75 -4.95)"/><path class="cls-1" d="M15.33,17V5.18H18.4v9.23h5.1V17Z" transform="translate(-0.75 -4.95)"/><path class="cls-1" d="M33.58,16.18a4.9,4.9,0,0,1-3.34,1.11,5.23,5.23,0,0,1-4.31-1.83,6.47,6.47,0,0,1-1.37-4.32,6.52,6.52,0,0,1,1.38-4.31A5.22,5.22,0,0,1,30.24,5a4.79,4.79,0,0,1,3.25,1.1A4.88,4.88,0,0,1,35,9.32H31.89A1.71,1.71,0,0,0,30.1,7.85c-1.59,0-2.38,1.1-2.38,3.29s.77,3.29,2.33,3.29A1.94,1.94,0,0,0,32,13h3.11A5,5,0,0,1,33.58,16.18Z" transform="translate(-0.75 -4.95)"/><path class="cls-1" d="M25.31,34.6a1.07,1.07,0,0,1-.66-.19,1.36,1.36,0,0,1-.68-1,1.51,1.51,0,0,1,.59-1.14,1.36,1.36,0,0,1,.91-.23h5.88a4.94,4.94,0,0,0,4.32-7.47,5.06,5.06,0,0,0-4.28-2.35c-2.29,0-4.63,0-6.88,0H21.93a4.87,4.87,0,0,0-3,1A4.8,4.8,0,0,0,17,27a1.54,1.54,0,0,1-.52,1.15,1.2,1.2,0,0,1-.95.26c-.45-.06-1.2-.34-1.14-1.55a7.36,7.36,0,0,1,7-7.19c.82,0,1.66-.06,2.56-.08,2.46,0,4.93,0,7.32,0v0h.78a6.59,6.59,0,0,1,4.36,1.8,7.83,7.83,0,0,1,2.5,6.83,7.45,7.45,0,0,1-7.35,6.35c-1.76,0-2.54,0-4,0H25.31Z" transform="translate(-0.75 -4.95)"/><path class="cls-1" d="M12.57,34.65c-1.57,0-3.12,0-4.64-.07a7,7,0,0,1-6.62-4.82A7.11,7.11,0,0,1,2.78,22l0,0a7.7,7.7,0,0,1,5.46-2.4h5.17a1,1,0,0,1,.77.2l.06,0a1.63,1.63,0,0,1,.67.9,1.14,1.14,0,0,1-.19.92,1.32,1.32,0,0,1-.95.52,3.78,3.78,0,0,1-.45,0H11.41c-1.25,0-1.84,0-3.19,0a4.92,4.92,0,0,0-3.48,8.28A5.13,5.13,0,0,0,8.49,32c2.23,0,4.49,0,6.69,0h2.16A5.64,5.64,0,0,0,18,32a4.89,4.89,0,0,0,4.27-4.77,1.48,1.48,0,0,1,.49-1.11,1.22,1.22,0,0,1,.92-.29,1.29,1.29,0,0,1,1.19,1.46,7.47,7.47,0,0,1-7,7.3C16.08,34.62,14.31,34.65,12.57,34.65Zm.72-13.72.13-.18-.14.17.38-.52,0,0-.11.13Z" transform="translate(-0.75 -4.95)"/></svg>