<svg id="point" data-name="point" xmlns="http://www.w3.org/2000/svg" viewBox="0 0 37.5 37.49" fill="currentColor"><path class="cls-1" d="M38.5,19.66A18.75,18.75,0,1,1,19.78.92,18.73,18.73,0,0,1,38.5,19.66ZM19.76,33.21c.1-.17.17-.29.23-.41l7.29-14.7a7.83,7.83,0,0,0,.78-4.72,8,8,0,0,0-5.95-7A7.86,7.86,0,0,0,13.39,9a7.92,7.92,0,0,0-1.13,9.09c2.34,4.89,4.79,9.72,7.2,14.57C19.54,32.85,19.64,33,19.76,33.21Z" transform="translate(-1 -0.92)"/><path class="cls-1" d="M23.94,14.43a4.19,4.19,0,0,1-4.19,4.19,4.2,4.2,0,1,1,0-8.39A4.16,4.16,0,0,1,23.94,14.43Z" transform="translate(-1 -0.92)"/></svg>