<svg id="polygon" viewBox="0 0 328 328" fill="currentColor" xmlns="http://www.w3.org/2000/svg">
<path d="M12.107 255.976L12.2676 235.898L18.0476 235.736L23.7741 235.575V160.269V84.9095H20.0278H16.2815L16.3885 64.5624L16.5491 44.2691L36.5116 44.1077L56.4205 44V49.8673C56.4205 53.097 56.5811 56.1114 56.7416 56.5958C57.0627 57.3494 63.8061 57.4571 127.921 57.4571H198.727L198.887 50.8362L199.048 44.2691H219.117H239.187L239.454 63.6473L239.722 83.0255L241.221 86.5244C242.077 88.4622 243.094 90.7768 243.468 91.6381C243.896 92.5531 246.412 98.4742 249.088 104.826C251.764 111.178 255.885 120.867 258.186 126.357C260.487 131.848 264.608 141.537 267.284 147.889C272.368 159.946 276.008 168.559 277.239 171.304C277.613 172.219 280.129 178.14 282.805 184.492C289.494 200.425 290.297 202.309 291.1 204.139C291.475 205.054 292.438 207.315 293.241 209.253C294.043 211.191 295.114 213.721 295.649 214.905C296.184 216.089 298.325 221.257 300.466 226.316L304.373 235.575L312.186 235.736L320 235.898V255.814V275.731L299.823 275.892L279.593 276V270.348V264.696H166.134H52.6742V270.348V276H32.3371H12L12.107 255.976ZM279.7 241.711L279.861 235.898L282.697 235.736C284.196 235.629 285.48 235.413 285.48 235.252C285.48 235.037 284.25 231.968 282.751 228.416C281.252 224.809 279.272 220.234 278.416 218.135C277.56 216.089 276.65 213.882 276.382 213.29C275.901 212.267 266.856 190.897 257.116 167.805C249.783 150.419 243.201 134.808 242.398 133.086C242.023 132.225 241.06 129.91 240.257 127.972C239.454 126.034 238.491 123.774 238.116 122.858C237.688 121.997 235.173 116.022 232.497 109.671C223.345 87.8701 222.971 87.0626 222.382 85.9861C222.007 85.3401 219.974 85.1787 210.34 85.0172L198.78 84.9095V79.5267V74.1439L127.761 74.2515L56.6881 74.413L56.4205 79.5267L56.1529 84.6404L48.5533 84.8019L40.9001 84.9633V160.269V235.629H46.7871H52.6742V241.55V247.471H166.134H279.54L279.7 241.711Z"/>
</svg>
