<svg id="preview-file" data-name="檔案預覽" xmlns="http://www.w3.org/2000/svg" viewBox="0 0 38.08 38.4"  fill="currentColor"><path class="cls-1" d="M34.66,18.7a9.23,9.23,0,0,0-12.61-2.22,8.68,8.68,0,0,0-2.28,12.28,9.23,9.23,0,0,0,11.58,2.82l.56.86c-.37.66.43,2.52.9,3.18l2.39,3a2.11,2.11,0,0,0,2.89.51L38.3,39a2,2,0,0,0,.53-2.82l-2.39-3c-.42-.57-1.88-1.91-2.83-1.76l-.63-1A8.61,8.61,0,0,0,34.66,18.7ZM20.83,28a7.44,7.44,0,0,1,2-10.52,7.91,7.91,0,0,1,10.81,1.9,7.44,7.44,0,0,1-2,10.52A7.92,7.92,0,0,1,20.83,28Z" transform="translate(-1.11 -1.07)"/><path class="cls-1" d="M19.07,11H5.93c-.34,0-.61-.37-.61-.81s.27-.81.61-.81H19.07c.34,0,.61.36.61.81S19.41,11,19.07,11Z" transform="translate(-1.11 -1.07)"/><path class="cls-1" d="M19.07,15.86H5.93c-.34,0-.61-.36-.61-.81s.27-.81.61-.81H19.07c.34,0,.61.36.61.81S19.41,15.86,19.07,15.86Z" transform="translate(-1.11 -1.07)"/><path class="cls-1" d="M16.07,20.69H5.8c-.27,0-.48-.36-.48-.81s.21-.81.48-.81H16.07c.26,0,.47.37.47.81S16.33,20.69,16.07,20.69Z" transform="translate(-1.11 -1.07)"/><path class="cls-1" d="M16.07,25.52H5.8c-.27,0-.48-.36-.48-.81s.21-.8.48-.8H16.07c.26,0,.47.36.47.8S16.33,25.52,16.07,25.52Z" transform="translate(-1.11 -1.07)"/><path class="cls-1" d="M16.07,30.36H5.8c-.27,0-.48-.37-.48-.81s.21-.81.48-.81H16.07c.26,0,.47.36.47.81S16.33,30.36,16.07,30.36Z" transform="translate(-1.11 -1.07)"/><path class="cls-1" d="M28.71,33.4v.77a.93.93,0,0,1-.89,1h-24a.93.93,0,0,1-.89-1V4a.93.93,0,0,1,.89-1H21.4v8.6h7.31v2.47a10.44,10.44,0,0,1,1.78.39V9L23.56,1.07H3.78A2.79,2.79,0,0,0,1.11,4V34.17a2.79,2.79,0,0,0,2.67,2.89h24a2.79,2.79,0,0,0,2.67-2.89V33A10.44,10.44,0,0,1,28.71,33.4Zm-5.53-30,5.47,6.22H23.18Z" transform="translate(-1.11 -1.07)"/></svg>