<svg id="print" data-name="列印" xmlns="http://www.w3.org/2000/svg" viewBox="0 0 38 38.33" fill="currentColor"><rect class="cls-1" x="12.37" y="28.87" width="13.3" height="1.04" rx="0.48" ry="0.48"/><rect class="cls-1" x="12.37" y="31.38" width="13.3" height="1.04" rx="0.48" ry="0.48"/><rect class="cls-1" x="12.37" y="33.77" width="13.3" height="1.04" rx="0.48" ry="0.48"/><path class="cls-1" d="M39,17.31c0-1.42-.51-1.95-1.73-2-.86,0-1.73,0-2.72,0v-3.7c0-.51.06-1.52-1.22-1.52H31.72c0-.61,0-5.33,0-7.2,0-1.16-.38-2.06-1.55-2.06Q20,.83,9.84.84c-1,0-1.42.63-1.44,1.7,0,1.68,0,6.67,0,7.66H6.73c-1.32,0-1.39,1.11-1.39,1.65v3.47H3.12c-1.71,0-2.09.45-2.1,2.51,0,3.15,0,6.3,0,9.45,0,3.32.26,3.59,3.05,3.59h4.3c0,2.12,0,4,0,5.94s.45,2.34,1.92,2.34q9.74,0,19.49,0c1.39,0,1.91-.61,1.94-2.22s.05-3.11,0-4.66c0-1,.24-1.49,1.19-1.43,1.4.08,2.8,0,4.2,0S39,30.2,39,28.67Q39,23,39,17.31Zm-8.88,20H9.86l.06-9.13,20.17,0Zm-18-18V17.78H27.36v1.51Zm18-4.14H9.85V2.56l20.26,0Zm5.05,5a1.34,1.34,0,1,1,1.33-1.34A1.34,1.34,0,0,1,35.17,20.17Z" transform="translate(-1 -0.83)"/></svg>