<svg id="process-edit" data-name="流程編輯" xmlns="http://www.w3.org/2000/svg" viewBox="0 0 38.79 37.62" fill="currentColor"><path class="cls-1" d="M35.91,29.48c-.53,0-1.6,0-1.6,0h-.5s0-2.44,0-3.45a2.46,2.46,0,0,0-.29-1.16A2.63,2.63,0,0,0,31,23.63c-3.3,0-7,0-10.28,0-.48,0-.62-.12-.61-.54,0-.85,0-1.71,0-2.57,0-.42.17-.52.6-.5s5.29,0,5.76,0a1.77,1.77,0,0,0,2-1.74c0-.84,0-3.14,0-5.62l6.91-4.14c-1.07-1.69-2.12-3.37-3.15-5L28.47,5.76v-1a1.78,1.78,0,0,0-1.94-1.73H11.44A1.75,1.75,0,0,0,9.5,4.73c0,2,0,11.65,0,13.63A1.76,1.76,0,0,0,11.38,20c.52,0,5.91,0,6.42,0s.56.08.55.45c0,.89,0,1.78,0,2.67,0,.42-.17.49-.6.49-3.34,0-7.06,0-10.4,0A2.46,2.46,0,0,0,4.65,26c0,.47,0,.94,0,1.41v2.06H2.75c-1.3,0-2,.67-2.06,1.82q0,2.82,0,5.64c0,1.14.77,1.81,2.06,1.82H9.16a1.83,1.83,0,0,0,2.07-1.83c0-1.8-.06-3.59,0-5.39a2,2,0,0,0-2.39-2.07c-.53,0-2.37,0-2.9,0V25.93c0-.22,0-1.4,1.13-1.4,3,0,7.45,0,10.47,0a.88.88,0,0,1,.76.42c0,1.09,0,3.35,0,4.52H16.08c-1.35,0-2.09.66-2.1,1.84,0,1.88,0,3.76,0,5.65,0,1.11.79,1.78,2,1.79h6.47a1.81,1.81,0,0,0,2-1.76c0-1.93,0-3.86,0-5.79a1.78,1.78,0,0,0-1.94-1.73H20.13s0-3.63,0-4.59a.56.56,0,0,1,.39-.34c3.3,0,7,0,10.34,0a1.44,1.44,0,0,1,1.47,1.28c0,.94,0,3.68,0,3.68l-3.16,0a1.74,1.74,0,0,0-1.91,1.69c0,2,0,3.93,0,5.89a1.75,1.75,0,0,0,1.92,1.69q3.34,0,6.7,0a1.75,1.75,0,0,0,1.89-1.65c0-2,0-4,0-6A1.75,1.75,0,0,0,35.91,29.48Zm-24-10.4a.87.87,0,0,1-.95-.73V4.91a.87.87,0,0,1,.95-.73H26.05a.87.87,0,0,1,1,.73V6.63l-6.42,3.84c1.07,1.68,2.12,3.35,3.17,5L27,13.54v4.81a.87.87,0,0,1-1,.73Z" transform="translate(-0.68 -1.13)"/><path class="cls-1" d="M39.3,4.88c-.67-1.09-1.34-2.19-2-3.26a1,1,0,0,0-1.31-.38,21.8,21.8,0,0,0-2,1.33l3.14,5L39.32,6l.15-.63A2.67,2.67,0,0,0,39.3,4.88Z" transform="translate(-0.68 -1.13)"/><path class="cls-1" d="M16.64,16.38l5.54.09-3.14-5C18.24,13.1,17.45,14.71,16.64,16.38Z" transform="translate(-0.68 -1.13)"/></svg>