<svg id="process-instruction" data-name="流程指令" xmlns="http://www.w3.org/2000/svg" viewBox="0 0 38.4 36.49" fill="currentColor"><path class="cls-1" d="M32,38.5a.86.86,0,0,1-.75-.48l-.51-.93-.24-.44a1,1,0,0,1-.13-.91l-.06,0-1.22-.63a4.59,4.59,0,0,1-1.85-1.66,6.06,6.06,0,0,1-.63-2c0-.11,0-.19,0-.26a1.85,1.85,0,0,0,0-.23,2,2,0,0,1,.67-2l-.1-.18c-.72-1.34-1.47-2.73-2.19-4.12a2,2,0,0,1-.2-1,1.43,1.43,0,0,1,1.09-1.36,1.41,1.41,0,0,1,1.65.53c.27.4.51.83.74,1.24l.14.25c.18.31.35.62.51.92.23-.13.45-.25.68-.36a1.06,1.06,0,0,1,.66-.12.5.5,0,0,0,.13-.09,1.67,1.67,0,0,1,2-.27l.15.12a3.22,3.22,0,0,1,.37-.2,1.36,1.36,0,0,1,1.63.36,4.85,4.85,0,0,1,.62.83,23,23,0,0,1,2,4.17,5.94,5.94,0,0,1,.41,2.08.81.81,0,0,1,.66.44c.29.51.59,1.05.87,1.59A.85.85,0,0,1,38.63,35L34.5,37.26,33.08,38l-.59.33A1.07,1.07,0,0,1,32,38.5Z" transform="translate(-0.73 -2.01)"/><path class="cls-1" d="M25,30.49H23.18c-.57,0-.79-.2-.78-.72,0-2.5,0-7,0-9.52,0-.51.2-.74.77-.73h8.41c.61,0,.86.21.85.77,0,.79,0,1.59,0,2.39h1.35V20.84a2.4,2.4,0,0,0-2.5-2.54c-1.35-.05-6.44-.05-7.79,0A2.39,2.39,0,0,0,21,20.8v2.7l-1.2,0c-1.4,0-1.59-1.18-1.59-2.55,0-.38,0-.77,0-1.15a3.88,3.88,0,0,0-1.16-3.19,3.79,3.79,0,0,0,1.15-2.51c0-.59,0-1.19,0-1.79,0-1.67.67-2.67,2.79-2.43v2.47a2.42,2.42,0,0,0,2.61,2.57c1.28,0,6.29,0,7.57,0a2.42,2.42,0,0,0,2.57-2.55c0-2.1,0-5.72,0-7.82A2.45,2.45,0,0,0,31.14,2C29.93,2,25,2,23.78,2A2.45,2.45,0,0,0,21,4.66V8.25h-.93c-2.1,0-3.13,1.33-3.36,3.36-.09.78,0,1.93-.05,2.72s-1,1.48-1.92,1.58-1.76,0-2.76,0c0-.76,0-4.74,0-5.48A2.33,2.33,0,0,0,9.54,8.06c-1.36,0-5,0-6.32,0A2.35,2.35,0,0,0,.74,10.44c0,2.19,0,10.17,0,12.36a2.34,2.34,0,0,0,2.49,2.37c1.28,0,4.81,0,6.09,0A2.39,2.39,0,0,0,12,22.56c0-.68,0-4.61,0-5.33.87,0,1.64-.05,2.39,0,1.13.08,2.21.74,2.24,1.82,0,.62,0,1.61,0,2.23.07,1.89.82,3.32,2.72,3.66A14.46,14.46,0,0,0,21,25v4.11a2.44,2.44,0,0,0,2.62,2.56H25Z" transform="translate(-0.73 -2.01)"/></svg>