<svg id="ReportPublicSafe" data-name="公安申報" xmlns="http://www.w3.org/2000/svg" viewBox="0 0 33.93 38.92" fill="currentColor"><path class="cls-1" d="M24.77,28.94l2.73,2.2V6.1L24.76,8.59C24.93,9.77,25,13.91,24.77,28.94Z" transform="translate(-2.7 -0.52)"/><path class="cls-1" d="M18.51,14.13a1.87,1.87,0,0,1-1.91-1.88,1.9,1.9,0,0,1,1.89-1.92,2,2,0,0,1,1.9,1.86A1.92,1.92,0,0,1,18.51,14.13Z" transform="translate(-2.7 -0.52)"/><path class="cls-1" d="M36.59,22A36.74,36.74,0,0,0,35,14.15c-.78-2.48-1-5,1-7.17l-5.27-5.9C26.82,4.19,23.17,3.56,19.66.52c-3.55,3.07-7.22,3.66-11.09.56l-5.34,6c1.49,1.07,1.65,2.62,1.56,4.13A16.83,16.83,0,0,1,4,15.25,25.34,25.34,0,0,0,2.72,24c.1,3.08,1.7,5.59,3.87,7.78A35.43,35.43,0,0,0,17.94,39a3.49,3.49,0,0,0,3.39,0c.56-.32,1.19-.51,1.78-.79a31.41,31.41,0,0,0,10-6.85A11.7,11.7,0,0,0,36.59,22Zm-25-4.79c.24-.76.46-1.52.72-2.27.06-.16.25-.38.41-.4a13,13,0,0,1,1.58,0c-.63,1.25-1.09,2.35-1.71,3.36a12.2,12.2,0,0,1-1,1.36Zm0,12.26V22.42l1.06-.85c.81.69,1.57,1.38,2.38,2a5.56,5.56,0,0,1,1.85,2.48c.43,1.14.95,2.25,1.47,3.35l.06.1Zm11.71,0H20a1.28,1.28,0,0,0-.08-.68c-.49-1.53-.94-3.08-1.48-4.6a4.34,4.34,0,0,0-.93-1.44c-.78-.82-1.65-1.57-2.49-2.35l1.53-2.05c.34.46.58,1.15,1,1.23a24.31,24.31,0,0,0,3.72.39c.18,0,.39-.32.58-.49-.15-.14-.28-.37-.46-.41-.85-.22-1.71-.41-2.58-.55-.44-.08-.63-.25-.64-.7,0-.74-.1-1.47-.15-2.2s0-1.27-.83-1.53c-.22-.07-.36-.4-.58-.54a1.8,1.8,0,0,0-.89-.43c-1.08,0-2.15.07-3.23.07a1,1,0,0,0-.79.31v-5H23.33Zm5.53,2.6a4.07,4.07,0,0,1-.87,0,.28.28,0,0,1-.15,0,.32.32,0,0,1-.21-.08l-3.41-2.74a.37.37,0,0,1-.13-.27c.1-7.71.18-19.33,0-20.5a.33.33,0,0,1,0-.33.24.24,0,0,1,.06-.08l3.41-3.11A.33.33,0,0,1,28,5a2.32,2.32,0,0,0,.88.31Z" transform="translate(-2.7 -0.52)"/></svg>