<svg id="ReportInspection" data-name="檢修申報" xmlns="http://www.w3.org/2000/svg" viewBox="0 0 33.93 38.92" fill="currentColor"><path class="cls-1" d="M37,22a36.72,36.72,0,0,0-1.59-7.88c-.79-2.48-1-5,1-7.17-1.76-2-3.51-3.92-5.27-5.9C27.23,4.19,23.58,3.56,20.07.52,16.52,3.59,12.85,4.18,9,1.08l-5.34,6C5.13,8.12,5.3,9.67,5.21,11.18a16.84,16.84,0,0,1-.84,4.07A25.34,25.34,0,0,0,3.13,24c.1,3.08,1.7,5.59,3.87,7.78A35.43,35.43,0,0,0,18.35,39a3.49,3.49,0,0,0,3.39,0c.56-.32,1.19-.51,1.78-.79a31.57,31.57,0,0,0,10-6.85A11.72,11.72,0,0,0,37,22ZM27.32,6.89c-1,.07-2.08,0-3.12,0H22.65c0,.22,0,.49-.06.71,1.26.14,2.38.24,3.95.4-1.16,1.45-2.83.32-3.74,1,0,.82,0,1.48.08,2.17,0,.41.5.45.94.69a5.53,5.53,0,0,1,3.33,5.43c0,4.07,0,8.15,0,12.22,0,1.42-.38,2-1.94,2-2.55-.1-5.11-.07-7.67,0-1.24,0-1.65-.46-1.64-1.63,0-4.32,0-8.65,0-13,0-1.92.17-3.14,1.77-4.25.2-.14,1.27-.37,1.56-.58a1.31,1.31,0,0,0,.38-.59,47.56,47.56,0,0,0-5,0,2.35,2.35,0,0,0-2.19,2.41c0,1.19-.21,2.31.66,3.56.74,1.09.48,2.84.66,4.3.23,1.85.45,3.7.69,5.69H9.21c.31-2.63.69-5.13.89-7.64a4.67,4.67,0,0,1,.65-2.55c.68-.77.61-2.71.68-3.93.13-2.13,1.62-2.95,3.5-3.08,1.15-.08,2.3,0,3.44-.06,1.74-.05,2.21-.51,2.22-2.13V5.36c2.38.15,4.56.27,6.73.45a.71.71,0,0,1,.76.54C28,6.89,27.59,6.87,27.32,6.89Z" transform="translate(-3.12 -0.52)"/><path class="cls-1" d="M20.63,13.5c2.27.88,2.68,2.6,2.56,4.61-.06,1.11,0,2.23,0,3.35v8.08h2.05c0-.44.05-.78.05-1.13,0-4,.09-8,0-12A3.46,3.46,0,0,0,20.63,13.5Z" transform="translate(-3.12 -0.52)"/></svg>