<svg id="reset" data-name="reset" xmlns="http://www.w3.org/2000/svg" viewBox="0 0 36.37 37.83" fill="currentColor"><path class="cls-1" d="M32.11,1.25c.07.4.13.64.15.89.3,3.33.58,6.67.89,10,.05.48,0,.7-.55.71l-11.17.32a2.42,2.42,0,0,1-.46-.1l4-4.28A23,23,0,0,0,22,8c-5.48-.75-9.94,1-13.15,5.58a12.25,12.25,0,0,0-2.13,9.19,12.64,12.64,0,0,0,8,10.36,13.12,13.12,0,0,0,17.11-6.7A12.83,12.83,0,0,0,33,21.57c0-.32,0-.64.44-.64H38c-.14,1.22-.19,2.39-.42,3.52a17.93,17.93,0,0,1-8.79,12.24A17.53,17.53,0,0,1,17.8,39,17.44,17.44,0,0,1,7.31,34.1,17.77,17.77,0,0,1,1.82,23.38,17.31,17.31,0,0,1,3.5,13,17.75,17.75,0,0,1,15.69,3.27,17.62,17.62,0,0,1,27.85,4.7.8.8,0,0,0,29,4.49c.81-.89,1.64-1.75,2.47-2.62C31.63,1.69,31.82,1.53,32.11,1.25Z" transform="translate(-1.64 -1.25)"/></svg>