<svg id="retreat" data-name="撤退" xmlns="http://www.w3.org/2000/svg" viewBox="0 0 36.86 36.58" fill="currentColor"><polygon class="cls-1" points="36.87 17.88 25.74 11.69 25.74 14.94 11.18 14.94 11.18 20.56 25.74 20.56 25.74 23.94 36.87 17.88"/><path class="cls-1" d="M7,38.58A5,5,0,0,1,3,36.77a6.64,6.64,0,0,1-1.29-4.41V7.86A5.85,5.85,0,0,1,3.25,3.59,5.81,5.81,0,0,1,7.63,2h22A5.24,5.24,0,0,1,34,3.75a4.28,4.28,0,0,1,.92,2.84v7.47H30.75V6.72a3.17,3.17,0,0,0-1.1-.15H7.39A2.12,2.12,0,0,0,6.05,7a1.31,1.31,0,0,0-.24.91V32.7a1.83,1.83,0,0,0,.25,1A1.42,1.42,0,0,0,7,34H30.3c1-.06,1-.72,1-1V26.11h4.15V33a5.24,5.24,0,0,1-5.08,5.56Z" transform="translate(-1.66 -2)"/></svg>