<svg id="role-management" data-name="角色管理" xmlns="http://www.w3.org/2000/svg" viewBox="0 0 38.66 38.84" fill="currentColor"><path class="cls-1" d="M19.94,39.43h-.32c-2.61-.1-3.31-.79-3.45-3.39,0-.17,0-.34,0-.51l-4.35-1.85-.38.27a5.6,5.6,0,0,1-2.52,1.28c-1.08.15-2-.82-2.83-1.68l-.21-.23c-1.91-2-1.34-2.93.46-5.14L4.45,23.7l-.14,0a4.32,4.32,0,0,0-.6,0c-.77,0-2.37.13-2.78-1.55a10.17,10.17,0,0,1,0-4.28c.18-.86.86-1.84,3.13-1.64.43,0,.6.06.82-.69a30.34,30.34,0,0,1,1.14-3l.3-.7-.28-.43A6.57,6.57,0,0,1,4.9,8.94c-.17-1,.75-2.1,1.66-3,2-1.95,3.18-1.37,5.31.38l4.27-1.68c0-.16.06-.33.1-.49A7.59,7.59,0,0,1,17,1.7c.38-.69,1.27-1,2.8-1.1,3.3-.15,3.74.87,4.13,4.08l4.19,1.71.47-.28A7.6,7.6,0,0,1,31.21,5c1.06-.18,2,.75,2.95,1.72,1.86,2,1.38,3-.51,5.23l.32.81c.44,1.09.9,2.21,1.29,3.35.08.22.09.26.57.24,1,0,3-.11,3.4,1.83a11.49,11.49,0,0,1-.07,4c-.17,1.12-1.79,1.53-2,1.58a9.19,9.19,0,0,1-1.7.18h0l-1.8,4.33c.3.34.62.71.93,1.08A2.59,2.59,0,0,1,34.49,33l-.41.41-.24.23c-2.34,2.31-3.1,2.33-5.46.16l-.17-.14-4.4,1.87c0,.42-.08.89-.14,1.37A2.58,2.58,0,0,1,21,39.4h-.37Zm-8.36-8L18,34.15l.09,1c0,.28.05.54.07.81.07,1.45.07,1.45,1.53,1.5a6.32,6.32,0,0,0,.87,0H21c.46,0,.68-.12.75-.76s.1-1,.14-1.42l.09-1.08,6.6-2.81.68.55c.18.14.35.28.51.43a7,7,0,0,0,1.35,1.07,7.63,7.63,0,0,0,1.37-1.18l.27-.27a3.51,3.51,0,0,0,.34-.33c.32-.33.39-.56,0-1s-.64-.74-.94-1.08l-.78-.88L34.09,22l.61,0,.69,0a7.81,7.81,0,0,0,1.34-.13,2,2,0,0,0,.49-.19,8.92,8.92,0,0,0,.07-3c0-.21-.28-.3-1.39-.26a2.33,2.33,0,0,1-2.52-1.58c-.38-1.09-.82-2.19-1.25-3.26-.19-.46-.37-.91-.55-1.37l-.22-.55.39-.46a9.76,9.76,0,0,0,1.6-2.18c0-.14-.35-.56-.64-.86a4.94,4.94,0,0,0-1.25-1.1,6.48,6.48,0,0,0-1.86.88c-.32.2-.64.39-1,.56l-.41.22L22.08,6.07,22,5.49a9.12,9.12,0,0,0-.54-2.79c-.15-.18-1.09-.14-1.59-.12a4,4,0,0,0-1.22.19,7.42,7.42,0,0,0-.47,1.77c-.07.35-.14.72-.22,1.09l-.12.5L11.5,8.62l-.45-.38C8.92,6.45,8.92,6.45,7.94,7.39a4.2,4.2,0,0,0-1.07,1.3,5.43,5.43,0,0,0,.86,1.67c.21.31.41.63.6,1l.23.42-.18.44c-.16.4-.33.79-.5,1.19a26.38,26.38,0,0,0-1.06,2.75,2.6,2.6,0,0,1-2.91,2.1c-.82-.07-1,.06-1,.07a8.55,8.55,0,0,0,0,3.4,0,0,0,0,1,0,0,3.54,3.54,0,0,0,.73,0,6.44,6.44,0,0,1,.88,0l.54.08.84.14,2.73,6.59L8.21,29a9.77,9.77,0,0,0-1.57,2.2,3.52,3.52,0,0,0,.63.76l.23.24a6.35,6.35,0,0,0,1.18,1.07,4.52,4.52,0,0,0,1.54-.9c.31-.22.61-.45.92-.64ZM8.72,33.26ZM6.86,8.72ZM18.61,2.8Z" transform="translate(-0.72 -0.58)"/><path class="cls-1" d="M18.14,26.73c.56-1.15.89-2,.77-2.13-.21-.3-.77-2-.55-2.26s1-.3,1.39-.29c.68,0,1.14.24.95.91A14.37,14.37,0,0,1,20,24.6c.2.51.48,1.59.7,2.19.08,0,.1-.27.17-.28.62-1.94,1.24-3.88,1.89-5.89,1.61.76,3.14,1.44,4.63,2.2a2.46,2.46,0,0,1,1.28,2c.17,1.4.37,5.12.37,5.12H10s-.22-4.3.5-6a2.8,2.8,0,0,1,1.2-1.28c1.4-.74,2.87-1.34,4.4-2C16.78,22.62,17.41,24.53,18.14,26.73Z" transform="translate(-0.72 -0.58)"/><path class="cls-1" d="M23.63,13c.14.61.41.32.42.93a6.7,6.7,0,0,1-.35,2,7.61,7.61,0,0,1-.86,1.71,8.17,8.17,0,0,1-1.37,1.71,3.1,3.1,0,0,1-4.5-.44,10.9,10.9,0,0,1-2.08-4.08,2.86,2.86,0,0,1,.1-1.11c0-.32-.55-1.06-.61-1.36-.54-2.84,1.91-4.61,4.76-4.8a5.38,5.38,0,0,1,3.44.94A5.14,5.14,0,0,1,24,9.76C24.57,10.74,24.26,11.87,23.63,13Z" transform="translate(-0.72 -0.58)"/></svg>