<svg id="save-picture" data-name="儲存照片" xmlns="http://www.w3.org/2000/svg" viewBox="0 0 37.08 37.99" fill="currentColor"><path class="cls-1" d="M38.35,7.2a2.35,2.35,0,0,0-2.53-1.84h-6.1V8.82H35.3V36H4.44V8.82H10V5.36H3.93A2.36,2.36,0,0,0,1.39,7.2a.47.47,0,0,1-.06.09V37.06a2.41,2.41,0,0,0,1,1.45A2.84,2.84,0,0,0,3.56,39c3.17,0,6.35,0,9.53,0,0,0,5.66,0,6.78,0s6.76,0,6.78,0c3.18,0,6.36,0,9.54,0a2.84,2.84,0,0,0,1.26-.46,2.44,2.44,0,0,0,1-1.45V7.29A.47.47,0,0,1,38.35,7.2Z" transform="translate(-1.33 -1)"/><path class="cls-1" d="M13.36,16.34c0,1.23,0,2.2,0,3.16s.37,1.34,1.4,1.33q5.25,0,10.5,0c1,0,1.4-.42,1.38-1.33,0-1.34,0-2.68,0-4.12a33.77,33.77,0,0,1,4.16,0c1,.13,1.38,1,1.38,1.89,0,2.59,0,5.18,0,7.77s0,5,0,7.45c0,1.68-.71,2.3-2.55,2.3H10.42c-1.89,0-2.57-.63-2.57-2.37,0-3.59,0-7.18,0-10.77a2.37,2.37,0,0,1,1.11-2.13C10.36,18.57,11.74,17.52,13.36,16.34ZM20,23.65a4.37,4.37,0,0,0-4.59,4.19A4.37,4.37,0,0,0,20,32a4.36,4.36,0,0,0,4.54-4.14A4.35,4.35,0,0,0,20,23.65Z" transform="translate(-1.33 -1)"/><path class="cls-1" d="M24.53,15.37V18.9h-9V15.37Z" transform="translate(-1.33 -1)"/><path class="cls-1" d="M20,30.07a2.31,2.31,0,1,1,.06-4.61A2.31,2.31,0,1,1,20,30.07Z" transform="translate(-1.33 -1)"/><path class="cls-1" d="M17.65,7.74v-6c0-.5.27-.74.85-.74h2.73c.5,0,.79.26.79.7v6h2.8a.79.79,0,0,1,.77.37.6.6,0,0,1-.17.77L20.8,13.52l-.33.33a.8.8,0,0,1-1.27,0l-2-2L14.37,9l-.22-.23a.56.56,0,0,1-.06-.68.71.71,0,0,1,.66-.35h2.9Z" transform="translate(-1.33 -1)"/></svg>