<svg id="smokeSwitch" xmlns="http://www.w3.org/2000/svg" viewBox="0 0 291 291"><path d="M156.639,0H0V291H291V0Zm0,29.14561a115.6616,115.6616,0,0,1,105.28053,106.505H156.639Zm-17.20362,106.505h-107.86a115.6106,115.6106,0,0,1,107.86-106.63521Zm0,17.20363V259.48977a115.61061,115.61061,0,0,1-107.86-106.63555Zm17.20362,0H261.91953A115.66159,115.66159,0,0,1,156.639,259.35953Zm117.15774-47.20288A133.33507,133.33507,0,0,0,185.349,17.20363h88.44736ZM108.14432,17.20363A133.21081,133.21081,0,0,0,17.20363,115.3301V17.20363ZM17.20363,173.17393A133.12045,133.12045,0,0,0,117.825,273.79639H17.20363ZM175.66828,273.79639a133.22131,133.22131,0,0,0,98.12811-90.94431v90.94431Z"/></svg>
