<svg id="switchboard" data-name="火警總機" xmlns="http://www.w3.org/2000/svg" viewBox="0 0 38 38.56" fill="currentColor"><rect class="cls-1" x="19.93" y="4.37" width="13.2" height="11.37"/><rect class="cls-1" x="29.31" y="18.69" width="4.59" height="6.34"/><path class="cls-1" d="M35.19,17.71H19.91V4.22H35.19Zm-14.85-.5H34.76V4.72H20.34Z" transform="translate(-0.92 -0.88)"/><path class="cls-1" d="M37.7.88H15.65a1.21,1.21,0,0,0-1.21,1.21V20.25c-.19,2.26-.36,4.22-.52,6.17-1.23-3.79-2-7.68-4.58-11.25-.21,3.39-.5,6.4-2.07,9.23L4.72,19.69l-.39.14A16.58,16.58,0,0,1,1.68,30.69a5.31,5.31,0,0,0-.58,1.49c-.85,3.26,1.4,6.78,4.47,7a3.72,3.72,0,0,1-1.06-4.56c.82-2,1.58-4.07,2.35-6.08l1.43,2.71h.38c.3-1.94.59-3.88.92-6,1.38,2.24,1.69,4.66,2.17,7h.3l.7-3.36.37-.09c.43,1.41.89,2.82,1.31,4.24v4.18a1.28,1.28,0,0,0,.23.72,4.3,4.3,0,0,1-1.16,1.46,5.16,5.16,0,0,0,2.61-1H37.7a1.22,1.22,0,0,0,1.22-1.21V2.09A1.22,1.22,0,0,0,37.7.88Zm-.09,36.28H17.43a6.67,6.67,0,0,0,1.1-2.59c.94-4.68-.32-8.8-2.78-12.82V2.19H37.61Z" transform="translate(-0.92 -0.88)"/><path class="cls-1" d="M17.91,17.49a1.23,1.23,0,1,1,1.23-1.23A1.23,1.23,0,0,1,17.91,17.49Zm0-2a.74.74,0,1,0,.73.74A.74.74,0,0,0,17.91,15.52Z" transform="translate(-0.92 -0.88)"/></svg>