<svg id="tree" width="328" height="328" viewBox="0 0 328 328" fill="currentColor" xmlns="http://www.w3.org/2000/svg">
<path d="M293.346 217.672C295.115 219.704 296 222.074 296 224.782V285.735C296 288.67 295.115 291.097 293.346 293.016C291.576 294.934 289.412 295.893 286.857 295.893H233.762C231.4 295.893 229.336 294.934 227.566 293.016C225.797 291.097 224.912 288.67 224.912 285.735V224.782C224.912 222.977 225.304 221.284 226.092 219.704C226.879 218.124 227.96 216.883 229.336 215.979C230.643 215.097 232.185 214.625 233.762 214.624H253.82V174.327C253.833 173.031 253.529 171.752 252.933 170.602C252.383 169.519 251.573 168.588 250.576 167.894C249.625 167.228 248.492 166.873 247.331 166.879H172.112V214.624H192.17C194.529 214.624 196.594 215.639 198.365 217.672C200.135 219.704 201.02 222.074 201.02 224.782V285.735C201.02 287.542 200.626 289.233 199.838 290.815C199.054 292.395 197.971 293.636 196.594 294.54C195.287 295.421 193.746 295.892 192.17 295.893H139.075C137.498 295.892 135.958 295.421 134.651 294.54C133.273 293.636 132.143 292.395 131.258 290.815C130.381 289.266 129.923 287.515 129.93 285.735V224.782C129.93 222.074 130.816 219.704 132.586 217.672C134.356 215.639 136.519 214.624 139.075 214.624H158.838V166.877H80.6688C78.7033 166.877 77.0801 167.611 75.8034 169.08C74.5246 170.546 73.8853 172.297 73.8853 174.327V214.624H93.9451C96.5006 214.624 98.6146 215.639 100.285 217.672C101.956 219.704 102.793 222.074 102.793 224.782V285.735C102.793 288.67 101.958 291.097 100.285 293.016C98.6146 294.934 96.5006 295.893 93.9451 295.893H40.8481C39.8664 295.893 38.93 295.724 38.0473 295.385C37.1928 295.064 36.396 294.606 35.6878 294.03C34.94 293.399 34.2932 292.657 33.7696 291.83C33.1872 290.942 32.7402 289.972 32.4434 288.952C32.1439 287.906 31.9946 286.823 32 285.735V224.782C32 223.881 32.099 222.977 32.2949 222.074C32.4645 221.242 32.763 220.442 33.1798 219.702C33.5716 219.025 34.0646 218.349 34.6544 217.672C35.2443 216.994 35.8342 216.431 36.4241 215.979C37.0139 215.525 37.7028 215.189 38.4886 214.962C39.2765 214.735 40.0623 214.624 40.8481 214.624H60.908V159.089C60.908 157.058 61.5474 155.309 62.8261 153.842C64.1028 152.374 65.627 151.639 67.3966 151.639H158.838V113.716H139.075C136.517 113.716 134.356 112.702 132.586 110.67C130.845 108.714 129.898 106.177 129.932 103.558V42.6013C129.932 39.6663 130.816 37.1831 132.586 35.1515C134.356 33.1199 136.519 32.1052 139.075 32.1052H192.17C193.743 32.1052 195.218 32.6126 196.594 33.6294C197.972 34.6478 199.085 35.9835 199.838 37.5234C200.626 39.1033 201.02 40.7966 201.02 42.6013V103.554C201.02 106.262 200.133 108.634 198.365 110.666C196.594 112.697 194.529 113.712 192.17 113.712H172.112V151.639H260.308C262.276 151.639 263.897 152.372 265.176 153.84C266.455 155.307 267.094 157.058 267.094 159.089V214.622H286.857C289.412 214.622 291.576 215.639 293.346 217.672Z"/>
</svg>
