<svg id="unit" data-name="單位" xmlns="http://www.w3.org/2000/svg" viewBox="0 0 38.35 38.53" fill="currentColor"><path class="cls-1" d="M39.12,18.47c-.23-1.16-1.45-1.15-2.49-1.12a1.38,1.38,0,0,1-1.6-1c-.56-1.65-1.23-3.27-1.85-4.9,2.34-2.69,2.45-3,1-4.55-.6-.65-1.52-1.6-2.15-1.5A12.26,12.26,0,0,0,28.69,7L23.3,4.75C22.91.92,22.74.67,20,.76c-.73,0-1.82.15-2.08.6A13.62,13.62,0,0,0,17,4.71L11.46,6.84C8.85,4.6,8.39,4.48,6.83,6c-.65.61-1.55,1.54-1.46,2.19A11,11,0,0,0,7,11.31c-.56,1.36-1.25,2.74-1.71,4.19-.33,1.07-.84,1.55-2,1.44-.87-.08-2-.07-2.17.87a9.69,9.69,0,0,0-.08,4c.29,1.24,1.66.75,2.6.85.23,0,.45.07.8.13L6.8,28.6c-2.31,2.76-2.39,3-1,4.47.66.7,1.59,1.8,2.27,1.71,1.08-.14,2.05-1.12,3.08-1.74l5.61,2.45c0,.44.08.82.1,1.2.09,2.16.4,2.48,2.57,2.59.46,0,.92,0,1.39,0a1.69,1.69,0,0,0,1.8-1.7c.09-.74.16-1.48.21-2l5.77-2.39c.25.2.49.39.71.59,2,1.9,2.22,1.9,4.28-.1l.67-.64a1.67,1.67,0,0,0,.06-2.47c-.47-.57-1-1.13-1.36-1.6.87-2,1.64-3.83,2.44-5.71a14.44,14.44,0,0,0,2.29-.18c.47-.1,1.22-.44,1.27-.77A11.13,11.13,0,0,0,39.12,18.47ZM19.85,30.85A11,11,0,1,1,30.94,20,11,11,0,0,1,19.85,30.85Z" transform="translate(-0.89 -0.75)"/></svg>