<svg id="update" data-name="更新" xmlns="http://www.w3.org/2000/svg" viewBox="0 0 38.49 32.63" fill="currentColor"><path class="cls-1" d="M38.93,6.64c-1-1-2-2.06-3-3a1.13,1.13,0,0,0-1.52-.07,25.16,25.16,0,0,0-1.87,2C34,7,35.56,8.59,37.18,10.21l2.07-2.33V7.14A2.37,2.37,0,0,0,38.93,6.64Z" transform="translate(-0.76 -3.26)"/><path class="cls-1" d="M30.94,7,29.3,8.6V3.71h-24V7H.76V35.88h24V32.6H29.3V18l6.33-6.29ZM23.25,34.33H2.32V8.55H5.26V32.6h18ZM27.75,31H6.82V5.27H27.75v4.88l-7.6,7.53,4.73,4.67,2.87-2.85Z" transform="translate(-0.76 -3.26)"/><path class="cls-1" d="M17.4,25.2l6-1.35L18.73,19.2Z" transform="translate(-0.76 -3.26)"/><path class="cls-1" d="M24.72,10.28H9.32a.77.77,0,0,1-.77-.78.76.76,0,0,1,.77-.77h15.4a.77.77,0,0,1,.78.77A.78.78,0,0,1,24.72,10.28Z" transform="translate(-0.76 -3.26)"/><path class="cls-1" d="M20.78,14.61H9.32a.78.78,0,0,1,0-1.56H20.78a.78.78,0,0,1,0,1.56Z" transform="translate(-0.76 -3.26)"/><path class="cls-1" d="M17.28,18.93h-8a.77.77,0,0,1-.77-.78.76.76,0,0,1,.77-.77h8a.77.77,0,0,1,.78.77A.78.78,0,0,1,17.28,18.93Z" transform="translate(-0.76 -3.26)"/><path class="cls-1" d="M16,23.26H9.32a.78.78,0,0,1,0-1.56H16a.78.78,0,0,1,0,1.56Z" transform="translate(-0.76 -3.26)"/><path class="cls-1" d="M24.72,27.58H9.32a.78.78,0,0,1,0-1.56h15.4a.78.78,0,1,1,0,1.56Z" transform="translate(-0.76 -3.26)"/></svg>