<svg id="upload-photo" data-name="上傳照片" xmlns="http://www.w3.org/2000/svg" viewBox="0 0 34.29 39.05" fill="currentColor"><path class="cls-1" d="M20.59,32.83a41,41,0,0,1-10-.9l5.21,5.73a9.31,9.31,0,0,0,1.3,1.08,5.8,5.8,0,0,0,5.88,0,10,10,0,0,0,1.3-1.08l5.23-5.76A45,45,0,0,1,20.59,32.83Z" transform="translate(-3.13 -0.49)"/><path class="cls-1" d="M32.88,6.17A16.91,16.91,0,0,0,8.75,5a16.74,16.74,0,0,0-2.7,22l1.54,1.69c.32-2.48,2.05-3.33,3.78-4.15,1.39-.66,2.83-1.21,4.19-1.93s1.72-1.93.87-3.38c-.65-1.1-1.4-2.14-2-3.27a5.47,5.47,0,0,1-.31-.74,1.73,1.73,0,0,1-1.31-1.69,1.75,1.75,0,0,1,1-1.57c0-.07,0-.15,0-.22A6.44,6.44,0,0,1,19.93,5a6.44,6.44,0,0,1,6.14,6.71s0,0,0,.07a1.76,1.76,0,0,1,0,3.26,8.09,8.09,0,0,1-.43,1.38c-.68,1.16-1.14,1.6-1.84,2.75a2.16,2.16,0,0,0,.69,3.28A20,20,0,0,0,27.74,24c2.18.87,4.22,1.86,5,4.3l2.73-3A16.54,16.54,0,0,0,32.88,6.17Z" transform="translate(-3.13 -0.49)"/></svg>