<svg id="upload" data-name="上傳" xmlns="http://www.w3.org/2000/svg" viewBox="0 0 38.55 25.83" fill="currentColor"><polygon class="cls-1" points="26.38 18.83 19.59 6.68 12.76 18.83 16.46 18.83 16.46 25.83 22.59 25.83 22.59 18.83 26.38 18.83"/><path class="cls-1" d="M30.05,14.71a10.11,10.11,0,0,0-19.77,0,8.83,8.83,0,1,0-.63,17.63h4.56V30.42H9.65a6.9,6.9,0,1,1,0-13.79,7.66,7.66,0,0,1,1.26.11l1,.19.12-1a8.18,8.18,0,0,1,16.25,0l.11,1,1-.17a7.52,7.52,0,0,1,1.15-.09,6.9,6.9,0,1,1,0,13.79H26.1v1.93h4.45a8.83,8.83,0,1,0-.5-17.64Z" transform="translate(-0.83 -6.73)"/></svg>