<svg id="usually-strain" data-name="平時應變" xmlns="http://www.w3.org/2000/svg" viewBox="0 0 37.25 36.9" currentColor="fill"><path class="cls-1" d="M16.91,21.69H7.46V21H6.21v.68h-2A2.68,2.68,0,0,0,1.5,24.36V36.17a2.67,2.67,0,0,0,2.67,2.66H16.91a2.66,2.66,0,0,0,2.66-2.66V24.36A2.67,2.67,0,0,0,16.91,21.69Zm1.42,14.48a1.43,1.43,0,0,1-1.42,1.42H4.17a1.42,1.42,0,0,1-1.42-1.42V24.36a1.42,1.42,0,0,1,1.42-1.42H16.91a1.43,1.43,0,0,1,1.42,1.42Z" transform="translate(-1.5 -1.93)"/><path class="cls-1" d="M8.19,8.3l-.88-.89A4,4,0,0,0,6.24,9.79l1.24.14A2.77,2.77,0,0,1,8.19,8.3Z" transform="translate(-1.5 -1.93)"/><path class="cls-1" d="M6.21,12.54H7.46V10.32l-.63,0-.62,0v2.19Z" transform="translate(-1.5 -1.93)"/><path class="cls-1" d="M9.9,7.71h.33V6.46H9.9a3.78,3.78,0,0,0-2.16.6l.7,1A2.54,2.54,0,0,1,9.9,7.71Z" transform="translate(-1.5 -1.93)"/><rect class="cls-1" x="4.71" y="11.05" width="1.25" height="2.23"/><rect class="cls-1" x="4.71" y="16.4" width="1.25" height="2.23"/><rect class="cls-1" x="4.71" y="13.73" width="1.25" height="2.23"/><rect class="cls-1" x="9.18" y="4.53" width="2.78" height="1.25"/><path class="cls-1" d="M20.68,24.36V36.17a2.67,2.67,0,0,0,2.67,2.66H36.09a2.66,2.66,0,0,0,2.66-2.66V24.36a2.67,2.67,0,0,0-2.66-2.67H34V21H32.8v.68H23.35A2.68,2.68,0,0,0,20.68,24.36Zm1.25,0a1.42,1.42,0,0,1,1.42-1.42H36.09a1.43,1.43,0,0,1,1.42,1.42V36.17a1.43,1.43,0,0,1-1.42,1.42H23.35a1.42,1.42,0,0,1-1.42-1.42Z" transform="translate(-1.5 -1.93)"/><path class="cls-1" d="M32.07,8.3l.87-.89A4,4,0,0,1,34,9.79l-1.24.14A2.69,2.69,0,0,0,32.07,8.3Z" transform="translate(-1.5 -1.93)"/><path class="cls-1" d="M34,12.54H32.8V10.32l.62,0,.63,0a1.13,1.13,0,0,1,0,.14Z" transform="translate(-1.5 -1.93)"/><path class="cls-1" d="M30.35,7.71H30V6.46h.32a3.74,3.74,0,0,1,2.16.6l-.7,1A2.49,2.49,0,0,0,30.35,7.71Z" transform="translate(-1.5 -1.93)"/><rect class="cls-1" x="31.3" y="11.05" width="1.25" height="2.23"/><rect class="cls-1" x="31.3" y="16.4" width="1.25" height="2.23"/><rect class="cls-1" x="31.3" y="13.73" width="1.25" height="2.23"/><rect class="cls-1" x="25.5" y="4.53" width="2.57" height="1.25"/><path class="cls-1" d="M12.78,30.52c-.43.27-.84.55-1.24.81a1.4,1.4,0,0,0-.68,1.06v.32H8.39v-.32A2.45,2.45,0,0,1,9,30.74a6.86,6.86,0,0,1,1.37-1.1c.68-.46,1.11-.75,1.28-.9a1.59,1.59,0,0,0,.64-1.18c0-.72-.75-1.08-2.2-1.08A9.32,9.32,0,0,0,6.62,27V25a14.11,14.11,0,0,1,3.47-.37,6.68,6.68,0,0,1,3.3.75,2.49,2.49,0,0,1,1.37,2.18A3.65,3.65,0,0,1,12.78,30.52Zm-4.57,5.3V33.65h2.84v2.17Z" transform="translate(-1.5 -1.93)"/><path class="cls-1" d="M30.86,33.05H28.75L28.32,25h3Zm-2.47,3.11V34h2.83v2.17Z" transform="translate(-1.5 -1.93)"/><path class="cls-1" d="M25.23,7.28C25,9.24,24.61,11,23,12.09a.88.88,0,0,0-.34,1.19A1.11,1.11,0,0,1,22,14.89a3.87,3.87,0,0,1-3.69,0c-.72-.36-.93-.77-.69-1.51s-.07-1-.48-1.39a6.28,6.28,0,0,1-1.76-6.19A5,5,0,0,1,20.2,1.93a4.82,4.82,0,0,1,4.7,3.66A4.35,4.35,0,0,1,25.23,7.28Z" transform="translate(-1.5 -1.93)"/><path class="cls-1" d="M27.72,16.77a1.74,1.74,0,0,0-1-1.47c-1-.47-2.05-.9-3.06-1.34a3.59,3.59,0,0,1-2.48,1.85L20.4,19l-1-3.17a3.62,3.62,0,0,1-2.74-2c-1,.44-1.92.85-2.83,1.27a2,2,0,0,0-1.17,1.38,12.84,12.84,0,0,0-.2,4.45c1.89,0,14.14-.1,15.55-.1C27.92,19.55,27.85,18.16,27.72,16.77Z" transform="translate(-1.5 -1.93)"/></svg>