<svg id="verfy-resident" data-name="住戶驗證" xmlns="http://www.w3.org/2000/svg" viewBox="0 0 39.12 29.99" fill="currentColor"><path class="cls-1" d="M9.85,21.46c.45-.6,2.71-2.29,3.43-3.24l4.55,5.27c2-1.69,3.49-4,5.23-5.91s3.38-4.37,5-6.29c.81.86,3.09,2.76,4,3.67-5.37,4.8-10.63,8.92-14.05,14C15.77,26.09,13.1,24,9.85,21.46Z" transform="translate(-0.52 -4.76)"/><path class="cls-1" d="M33.76,34.75H6.31a1,1,0,0,1-1-1V19.47H1.51a1,1,0,0,1-.92-1.36L5.68,5.38a1,1,0,0,1,.92-.62H32.7a1,1,0,0,1,.9.57l5.94,12.73a1,1,0,0,1-.06,1,1,1,0,0,1-.84.46H34.76V33.76A1,1,0,0,1,33.76,34.75Zm-26.46-2H32.77V18.48a1,1,0,0,1,1-1h3.32l-5-10.75H7.28L3,17.49H6.31a1,1,0,0,1,1,1Z" transform="translate(-0.52 -4.76)"/></svg>