<svg id="view" data-name="查看" xmlns="http://www.w3.org/2000/svg" viewBox="0 0 38.81 19" fill="currentColor"><path class="cls-1" d="M20,10.63c-10.72,0-19.4,9.5-19.4,9.5s8.68,9.5,19.4,9.5,19.41-9.5,19.41-9.5S30.73,10.63,20,10.63Zm-.1,16.53a7.22,7.22,0,1,1,7.22-7.22A7.22,7.22,0,0,1,19.91,27.16Z" transform="translate(-0.61 -10.63)"/><path class="cls-1" d="M24.86,17.58a2.24,2.24,0,0,1-4.46-.35A2.22,2.22,0,0,1,22.32,15a5.41,5.41,0,0,0-2.41-.57,5.51,5.51,0,1,0,4.95,3.13Z" transform="translate(-0.61 -10.63)"/></svg>