<?xml version="1.0" encoding="UTF-8"?><svg id="wateringAutomaticAlarmCheckValve" fill="currentColor" data-name="自動灑水 - 自動警報逆止閥" xmlns="http://www.w3.org/2000/svg" viewBox="0 0 289.0434 226.70332"><defs><style>.cls-1{fill-rule:evenodd;}</style></defs><path d="M178.62537,226.70332h-.00977l-67.80518-.03223c-1.2417-.00098-2.35498-.7666-2.7998-1.92578-.44434-1.15918-.12891-2.47363,.79443-3.30371l31.44922-28.30859-31.41553-28.33496-.00879-.00781-.00488-.00488c-.31787-.28906-.55908-.63184-.72314-1.00098v-.00098l-.00195-.00391c-.15869-.35938-.24902-.75586-.25439-1.17188-.00146-.08398,.00098-.16797,.00684-.25098l.00049-.00488c.02148-.30566,.08887-.59766,.19531-.87109l.00049-.00098,.00195-.00586c.09961-.25488,.23535-.49805,.40771-.72461,.0625-.08203,.12939-.16016,.19971-.23535l.00391-.00391c.2749-.29199,.59521-.5166,.94043-.67383,.36768-.16699,.7749-.2627,1.2041-.26855,.01611-.00098,.03369-.00098,.05029,0l9.80029,.00488c-7.52246-4.06738-13.85791-10.00586-18.40576-17.20801l-81.32178,.54883h-.00049c-.00586,.00098-.01221,.00098-.02051,0-.00293-.00488-.01904,0-.0293,0h-.00977c-.28467-.00391-.56006-.04688-.8208-.125l-.00439-.00098c-1.1167-.33594-1.96094-1.30469-2.11182-2.49219h0l-.00098-.00879-.00049-.00293-.00049-.00684-.00049-.00098-.00195-.01758v-.00195l-.00098-.00781v-.00098l-.00098-.00879-.00049-.00195-.00049-.00684-.00049-.00391-.00049-.00586-.00098-.00879h0l-.00098-.00879v-.00098l-.00391-.04688-.00049-.00098-.00049-.00684v-.00195l-.00049-.00879v-.00098l-.00098-.00781v-.00195l-.00049-.00586v-.00391l-.00049-.00684v-.00195l-.00049-.00684-.00049-.00293-.00049-.00781v-.00195l-.00049-.00684v-.00293l-.00049-.00488v-.00879l-.00049-.00488v-.00391l-.00049-.00586v-.00391l-.00049-.00586v-.00977h-.00049c-.00098-.03223-.00146-.06348-.00195-.0957l-.1792-26.37207C9.64587,112.43086,1.49011,106.5041,.12048,95.06074c-.00684-.05469-.01172-.10986-.01514-.16504l-.09912-1.5498c-.0083-.12891-.0083-.2583,0-.38721l.09912-1.51709c.00342-.05371,.0083-.10791,.01514-.16162,1.48486-12.38184,10.90967-18.30566,19.59131-18.68408,8.67676-.37256,18.59619,4.70312,21.15283,16.91016,.01562,.0752,.02832,.15137,.03857,.22754l.19727,1.51709c.01074,.08496,.01855,.17041,.02197,.25635l.06592,1.51709c.00391,.08594,.00391,.17188,0,.25781l-.06592,1.5498c-.00342,.08691-.01074,.17334-.02197,.25928l-.19727,1.5166c-.01025,.07666-.02295,.15283-.03857,.22803-2.16748,10.34814-9.62256,15.5752-17.13525,16.6958l.15869,23.36133,75.13721-.50684c-2.05322-4.51758-3.45605-9.40137-4.09473-14.53613l-.3042-3.00293c-.00781-.07812-.0127-.15625-.01465-.23535l-.06543-2.96777c-.00146-.04492-.00146-.08887,0-.13379l.06592-2.93457c.00146-.07812,.00635-.15625,.01416-.23389l.29639-2.93457c.62207-4.93896,1.95361-9.64307,3.88623-14.01074l-33.79785,.23047c-.00879-.00146-.01562,0-.02393,0-1.64697,0-2.98779-1.3291-2.99951-2.979l-.30957-44.18555c-3.24854-.4541-6.50635-1.67969-9.33105-3.72266l-10.37354,10.52197c-1.1626,1.18115-3.06152,1.19385-4.24219,.03027-1.18018-1.16309-1.19385-3.0625-.03027-4.24219l10.37939-10.52881c-2.05029-2.77344-3.50732-6.27979-4.01318-10.55762-.0083-.07373-.01465-.14746-.01758-.22168l-.06592-1.51709c-.00391-.08594-.00391-.17188,0-.25781l.06592-1.5498c.00293-.0752,.00879-.1499,.01758-.22461,1.46338-12.38086,10.90039-18.30371,19.60352-18.68164,4.42969-.18848,9.18359,1.0332,13.11035,3.89746L87.14636,.89375c1.16357-1.18018,3.06299-1.19287,4.24219-.03027,1.18018,1.16309,1.19385,3.0625,.03027,4.24219l-10.39258,10.54199c1.7334,2.36572,3.06299,5.27588,3.78711,8.771,.01514,.07373,.02783,.14746,.0376,.22217l.19727,1.5166c.01123,.08594,.01855,.17236,.02197,.25928l.06592,1.5498c.00391,.08594,.00391,.17188,0,.25781l-.06592,1.51709c-.00342,.08594-.01123,.17139-.02197,.25635l-.19727,1.51709c-.00977,.07422-.02246,.14795-.0376,.22168-2.146,10.35498-9.6084,15.58252-17.13574,16.69824l.28906,41.17139,34.01416-.23193c8.30518-13.45703,22.76025-22.61328,39.31934-23.68115l2.4585-.0835c.12354-.01465,.25098-.01904,.37109-.02246,.05371,0,.10742,.00146,.16113,.00439l.06494-.00244c.06689-.00293,.13428-.00244,.20166,0l2.93018,.09961c16.40137,1.05371,30.74902,9.93164,39.11328,23.13477l33.97559-.23145-.25977-40.92627-15.72754,.10449h-.01953c-.78809,0-1.5459-.31055-2.10742-.86475-.56641-.55859-.8877-1.31982-.89258-2.11523l-.2334-35.24951c-.01074-1.65674,1.32324-3.00879,2.98047-3.02002l37.46191-.24902h.01953c.78906,0,1.5459,.31055,2.10742,.86475,.56641,.55859,.8877,1.31982,.89258,2.11523l.2334,35.25c.01074,1.65674-1.32324,3.00879-2.98047,3.02002l-15.73438,.10449,.27832,43.92627c.00977,1.50439-1.08984,2.75684-2.53223,2.98291h0l-.00879,.00098-.00879,.00146c-.00684-.00049-.00684,.00049-.00977,.00146l-.00879,.00146c0,.00098-.00391,.00146-.00879,.00098l-.00879,.00146-.00879,.00098-.00879,.00146c-.00586-.00049-.00781,.00098-.00879,.00098l-.00977,.00146-.00879,.00098c-.00684-.00098-.00781,.00049-.00879,.00098l-.00879,.00098-.00977,.00098-.00879,.00146c-.00488-.00049-.00977-.00098-.00879,.00098l-.00977,.00049-.00781,.00098-.00977,.00098h0c-.09082,.00928-.18359,.01416-.27637,.01465l-33.77832,.22998c1.63477,3.58545,2.86133,7.40674,3.62109,11.4126l.47656,3.02979c.00879,.05371,.01562,.10791,.02051,.1626l.29688,2.93457c.00684,.06689,.01172,.13379,.01367,.20117l.09863,2.93457c.00293,.06641,.00293,.13379,0,.2002l-.09863,2.96777c-.00195,.06738-.00684,.13477-.01367,.20215l-.29688,2.93457c-.00488,.05469-.01172,.1084-.02051,.16309l-.45996,2.93555c-.72656,3.82324-1.87793,7.47852-3.39941,10.91602l19.65918-.11914,.11523-1.01465c1.77539-12.68066,12.27344-22.53857,25.00391-23.57959,.05566-.00488,.1123-.00928,.16895-.01367,.03711-.00244,.0752-.00488,.1123-.00635l1.74512-.06592c.07617-.00293,.15039-.00293,.22656,0l1.74414,.06592c.03418,.00146,.06836,.00342,.10156,.00586,12.09277,.86963,22.32031,9.74512,24.87305,21.58496,.00879,.04004,.0166,.08105,.02344,.12207l.2959,1.71484c.00977,.05664,.01855,.11426,.02441,.17188l.07422,.64941,18.61523-.12598-.14453-21.46777c-.01074-1.65674,1.32324-3.00879,2.97949-3.02002h.02051c1.64746,0,2.98926,1.33008,3,2.97998l.16406,24.41309c.00098,.01758,.00098,.03613,.00098,.05371v.05469l.16406,24.41309c.01074,1.65723-1.32324,3.00977-2.97949,3.02051h-.02051c-1.64746,0-2.98926-1.33008-3-2.97949l-.14453-21.46777-18.61523,.125-.11426,.99219c-.00684,.05176-.01367,.10449-.02246,.15625l-.2959,1.74707c-.00879,.04883-.01758,.09668-.02832,.14551l-.00684,.02832c-2.81055,12.68359-13.83105,21.55566-26.81055,21.58301h-.01172c-.03809,0-.07617-.00098-.11426-.00195l-1.74512-.06641c-.07617-.00293-.15332-.00879-.22949-.01758l-1.71191-.19727c-12.0957-1.69238-21.66113-11.27344-23.33398-23.30859l-.08008-.69434-22.87402,.13867c-4.62695,7.49512-11.15137,13.62207-18.83691,17.78027l10.57812,.00488c.0293-.00195,.06055,0,.09082,.00098,.40137,.00977,.78223,.09863,1.12988,.25195,.37109,.16211,.71387,.40332,1.00488,.7207,.04688,.05078,.0918,.10352,.13574,.1582l.00391,.00586,.00391,.00391h0c.2002,.25293,.35254,.5293,.45898,.81836l.00293,.00586v.00098c.08789,.24023,.14648,.49414,.16992,.75879l.00098,.00391v.00391c.00977,.11426,.01367,.22949,.01074,.34375-.00977,.4043-.10059,.78809-.25488,1.13672-.15723,.35645-.38672,.6875-.6875,.9707-.02051,.01855-.04004,.03711-.06055,.05469l-31.4375,28.29785,31.41016,28.33105,.03516,.03223c.30957,.28516,.54492,.62207,.70605,.98535l.00098,.00293,.00098,.00195c.1582,.3584,.24902,.75488,.25488,1.1709,.00098,.08691-.00195,.17383-.00781,.26074-.02148,.29688-.08691,.58203-.18848,.84961l-.00293,.00684c-.10156,.26465-.24219,.51855-.42188,.75195-.06055,.07812-.12402,.15332-.19141,.22559l-.00391,.00293-.00098,.00098c-.27441,.29199-.59473,.5166-.94043,.67383-.37012,.16895-.78027,.26465-1.21289,.26855h-.03027Zm-60.00049-6.02832l52.19189,.02441-26.08301-23.52539-26.10889,23.50098Zm.02979-55.10352l26.0835,23.52637,26.10889-23.50098-25.23535-.0127c-.38477,.00977-.81201,.01074-1.15674,.0166-.0332,0-.06641-.00098-.09961-.00195l-.45654-.01465-25.24414-.0127Zm116.82129-5.66797l1.57031,.05957c10.08691-.0459,18.65039-6.92578,20.88672-16.7666l.00293-.01367,.00293-.01562,.00391-.01367,.00488-.02441,.27051-1.59375,.17578-1.52051,.05664-1.51953-.05664-1.52246-.17578-1.54883-.27051-1.56543c-2.0127-9.20508-9.96777-16.10352-19.37598-16.80176l-1.57812-.05957-1.57324,.05957c-9.98926,.78027-18.23633,8.49316-19.61914,18.35938l-.1748,1.55566-.05762,1.52344,.05762,1.51855,.18457,1.59961c1.25586,9.0332,8.2998,16.33203,17.26758,17.97363,.28906,.05273,.58105,.10059,.87402,.1416l1.52344,.1748Zm-91.47461-.31934h1.5332c13.79492-.37402,26.2373-7.17285,34.10938-17.72266l-70.13818,.45508c6.95264,9.12891,17.41309,15.42188,29.42627,16.91016l2.7627,.2793,2.30664,.07812Zm.16455-84.98779l-35.02979,61.72314,70.86328-.45996-35.8335-61.26318Zm-43.55811,43.76416l.28467,2.81738c.51807,4.16797,1.61377,8.14941,3.20459,11.86328l34.66602-61.08105c-19.61816,2.5542-35.36572,18.17627-37.87891,38.12305l-.27637,2.74316-.06152,2.75195,.06152,2.78223Zm48.92871-46.4668l35.44434,60.59668c1.13867-2.73926,2.01172-5.62891,2.58301-8.63574l.43066-2.75781,.27832-2.75195,.0918-2.7666-.0918-2.73438-.27832-2.75195-.44727-2.85449c-.92578-4.88135-2.64941-9.45557-5.02637-13.59375-.14258-.18799-.2627-.39307-.3584-.61133-6.8584-11.50439-18.8125-19.51221-32.62598-21.13867ZM6.08728,94.42744c1.1665,9.43359,8.20068,13.07324,13.8833,13.32129,5.69336,.24561,13.00293-2.75781,14.99805-12.0332l.16504-1.26904,.05469-1.29053-.05469-1.25928-.16504-1.27051c-1.99463-9.27588-9.30371-12.29004-14.99561-12.03564-5.68262,.24756-12.71777,3.8877-13.88574,13.32617l-.08105,1.23975,.08105,1.271ZM56.62537,40.39912c2.31982,1.45557,4.92969,2.14795,7.30518,2.25098,5.70264,.25342,13.01367-2.75781,14.98535-12.0249l.16553-1.27344,.05469-1.25928-.05469-1.29102-.16553-1.27148c-.4624-2.17432-1.22021-4.00439-2.18164-5.52832l-20.10889,20.39746ZM207.35583,12.50068l.19434,29.24951,31.46191-.2085-.19434-29.25-31.46191,.20898ZM50.03894,29.36592c.33789,2.73779,1.17432,4.98682,2.32959,6.80518l20.13623-20.42578c-2.71631-1.72461-5.82666-2.3584-8.57422-2.24023-5.69189,.24707-12.72949,3.875-13.8916,13.28271l-.05518,1.30469,.05518,1.27344Z"/><g><polyline class="cls-1" points="143.66592 69.16484 103.5039 139.92985 184.7497 139.40223"/><polygon points="102.64197 140.43574 143.23083 68.91816 144.10095 69.41133 104.3656 139.42402 184.74646 138.90254 184.75232 139.90254 102.64197 140.43574"/></g></svg>