<svg id="zoom-in" data-name="放大" xmlns="http://www.w3.org/2000/svg" viewBox="0 0 37.63 39.16" fill="currentColor"><polygon class="cls-1" points="27.07 16.26 19 16.26 19 8.2 15.71 8.2 15.71 16.26 7.65 16.26 7.65 19.56 15.71 19.56 15.71 27.62 19 27.62 19 19.56 27.07 19.56 27.07 16.26"/><path class="cls-1" d="M37.86,35.52l-6.57-4.86a17.81,17.81,0,1,0-3.79,2.86l7.68,5.65a2.27,2.27,0,0,0,1.34.43,2.23,2.23,0,0,0,1.82-.92A2.27,2.27,0,0,0,37.86,35.52ZM3.09,18.13A15.75,15.75,0,1,1,18.83,33.87,15.76,15.76,0,0,1,3.09,18.13Z" transform="translate(-1.15 -0.45)"/></svg>